<svg width="28" height="28" viewBox="0 0 28 28" fill="none" xmlns="http://www.w3.org/2000/svg">
<path fill-rule="evenodd" clip-rule="evenodd" d="M14 2C20.6274 2 26 7.40541 26 14.0733C26 20.0994 21.6118 25.0943 15.875 26V17.5633H18.6711L19.2031 14.0733H15.875V11.8096C15.875 10.8716 16.3229 9.95767 17.7487 9.92408C17.7757 9.92345 17.803 9.92313 17.8306 9.92313H19.3438V6.95195C19.3438 6.95195 19.2068 6.92844 18.978 6.89627C18.5729 6.83929 17.8799 6.75513 17.1498 6.72628C16.9867 6.71983 16.8216 6.71615 16.6576 6.71615C13.9166 6.71615 12.125 8.38755 12.125 11.4134V14.0733H9.07812V17.5633H12.125V26C6.3882 25.0943 2 20.0994 2 14.0733C2 7.40541 7.37258 2 14 2Z" fill="black"/>
</svg>
