<svg width="28" height="28" viewBox="0 0 28 28" fill="none" xmlns="http://www.w3.org/2000/svg">
<path d="M14 4.16221C17.2041 4.16221 17.5836 4.1744 18.849 4.23213C20.019 4.28553 20.6544 4.48102 21.0773 4.64531C21.6373 4.863 22.0371 5.12308 22.457 5.54297C22.8769 5.96287 23.137 6.36266 23.3546 6.92274C23.519 7.34564 23.7145 7.98103 23.7679 9.15097C23.8256 10.4164 23.8378 10.7959 23.8378 14C23.8378 17.2042 23.8256 17.5837 23.7679 18.849C23.7145 20.019 23.519 20.6544 23.3546 21.0773C23.137 21.6374 22.8769 22.0372 22.457 22.4571C22.0371 22.877 21.6373 23.137 21.0773 23.3547C20.6544 23.519 20.019 23.7145 18.849 23.7679C17.5838 23.8256 17.2043 23.8378 14 23.8378C10.7956 23.8378 10.4161 23.8256 9.15097 23.7679C7.98098 23.7145 7.34559 23.519 6.92274 23.3547C6.36261 23.137 5.96282 22.877 5.54293 22.4571C5.12303 22.0372 4.86295 21.6374 4.64531 21.0773C4.48097 20.6544 4.28548 20.019 4.23209 18.8491C4.17435 17.5837 4.16216 17.2042 4.16216 14C4.16216 10.7959 4.17435 10.4164 4.23209 9.15102C4.28548 7.98103 4.48097 7.34564 4.64531 6.92274C4.86295 6.36266 5.12303 5.96287 5.54293 5.54297C5.96282 5.12308 6.36261 4.863 6.92274 4.64531C7.34559 4.48102 7.98098 4.28553 9.15092 4.23213C10.4163 4.1744 10.7958 4.16221 14 4.16221ZM14 2C10.7409 2 10.3323 2.01381 9.05241 2.07221C7.77511 2.13052 6.90283 2.33334 6.1395 2.63001C5.35039 2.93668 4.68118 3.347 4.01406 4.01411C3.34695 4.68123 2.93663 5.35044 2.62996 6.13954C2.3333 6.90288 2.13047 7.77516 2.07217 9.05246C2.01377 10.3323 2 10.741 2 14C2 17.2591 2.01377 17.6677 2.07217 18.9476C2.13047 20.2249 2.3333 21.0972 2.62996 21.8605C2.93663 22.6496 3.34695 23.3188 4.01406 23.9859C4.68118 24.6531 5.35039 25.0634 6.1395 25.37C6.90283 25.6667 7.77511 25.8695 9.05241 25.9278C10.3323 25.9862 10.7409 26 14 26C17.259 26 17.6677 25.9862 18.9475 25.9278C20.2248 25.8695 21.0971 25.6667 21.8605 25.37C22.6496 25.0634 23.3188 24.6531 23.9859 23.9859C24.653 23.3188 25.0633 22.6496 25.37 21.8605C25.6667 21.0972 25.8695 20.2249 25.9278 18.9476C25.9862 17.6677 26 17.2591 26 14C26 10.741 25.9862 10.3323 25.9278 9.05246C25.8695 7.77516 25.6667 6.90288 25.37 6.13954C25.0633 5.35044 24.653 4.68123 23.9859 4.01411C23.3188 3.347 22.6496 2.93668 21.8605 2.63001C21.0971 2.33334 20.2248 2.13052 18.9475 2.07221C17.6677 2.01381 17.259 2 14 2ZM14 7.83784C10.5967 7.83784 7.83779 10.5968 7.83779 14C7.83779 17.4033 10.5967 20.1622 14 20.1622C17.4032 20.1622 20.1622 17.4033 20.1622 14C20.1622 10.5968 17.4032 7.83784 14 7.83784ZM14 18C11.7909 18 9.99995 16.2091 9.99995 14C9.99995 11.7909 11.7909 10 14 10C16.2091 10 18 11.7909 18 14C18 16.2091 16.2091 18 14 18ZM21.8456 7.59438C21.8456 8.38968 21.2009 9.03441 20.4056 9.03441C19.6103 9.03441 18.9656 8.38968 18.9656 7.59438C18.9656 6.79909 19.6103 6.15441 20.4056 6.15441C21.2009 6.15441 21.8456 6.79909 21.8456 7.59438Z" fill="black"/>
</svg>
