<svg width="28" height="28" viewBox="0 0 28 28" fill="none" xmlns="http://www.w3.org/2000/svg">
<path fill-rule="evenodd" clip-rule="evenodd" d="M26 12.7945C26 7.39378 20.617 3 13.9999 3C7.38366 3 2 7.39378 2 12.7945C2 17.6362 6.26911 21.691 12.0358 22.4578C12.4266 22.5425 12.9585 22.717 13.0931 23.0529C13.2141 23.3581 13.1722 23.8361 13.1317 24.1443C13.1317 24.1443 12.9909 24.996 12.9606 25.1774L12.9559 25.2042C12.8989 25.531 12.7552 26.3557 13.9999 25.828C15.2808 25.2852 20.9108 21.7352 23.4284 18.8206C25.1675 16.9025 26 14.956 26 12.7945ZM11.5618 10.1847H10.7201C10.5911 10.1847 10.4862 10.29 10.4862 10.4193V15.6784C10.4862 15.808 10.5911 15.9131 10.7201 15.9131H11.5618C11.6909 15.9131 11.7956 15.808 11.7956 15.6784V10.4193C11.7956 10.29 11.6909 10.1847 11.5618 10.1847ZM16.5138 10.1847H17.3555C17.4848 10.1847 17.5892 10.29 17.5892 10.4193V15.6784C17.5892 15.808 17.4848 15.9131 17.3555 15.9131H16.5138C16.4931 15.9131 16.4731 15.91 16.454 15.905L16.4515 15.9044L16.4505 15.9043C16.4452 15.9026 16.4402 15.901 16.4346 15.8989C16.4323 15.8982 16.43 15.8973 16.4277 15.8964L16.4208 15.8935L16.4162 15.8915C16.4126 15.8899 16.4086 15.8881 16.4052 15.886L16.4032 15.885C16.4024 15.8846 16.4015 15.8841 16.4006 15.8837C16.3999 15.8833 16.3992 15.8829 16.3985 15.8825C16.3937 15.8797 16.3889 15.8767 16.384 15.8737L16.383 15.8728L16.3817 15.8719C16.3594 15.8566 16.3389 15.8374 16.3224 15.8138L13.9233 12.5549V15.6784C13.9233 15.808 13.8186 15.9131 13.6893 15.9131H12.8478C12.7188 15.9131 12.6139 15.808 12.6139 15.6784V10.4193C12.6139 10.29 12.7188 10.1847 12.8478 10.1847H13.6893L13.6914 10.1848L13.6935 10.1849C13.6948 10.1851 13.6961 10.1852 13.6976 10.1852L13.7052 10.1855L13.7096 10.1859L13.7127 10.1862C13.7158 10.1865 13.7189 10.1868 13.722 10.1875C13.7252 10.1877 13.7287 10.1882 13.7319 10.1886C13.7363 10.1896 13.7406 10.1907 13.7452 10.1916L13.7488 10.1927L13.751 10.1932L13.7533 10.194C13.7581 10.1951 13.7627 10.1967 13.7673 10.1984C13.7698 10.1993 13.7721 10.2002 13.7749 10.2011C13.7795 10.2028 13.7839 10.2048 13.7882 10.2069C13.7908 10.2078 13.7931 10.2092 13.7956 10.2104C13.7997 10.2125 13.8039 10.215 13.808 10.2176C13.8105 10.2187 13.8129 10.2201 13.8152 10.2217C13.8177 10.2233 13.8201 10.225 13.8226 10.2268L13.824 10.2278L13.8273 10.2301C13.8294 10.2317 13.8315 10.2331 13.8333 10.2349C13.8377 10.2382 13.8418 10.2416 13.8458 10.2453L13.8464 10.2459C13.8477 10.247 13.8489 10.2481 13.8501 10.2493C13.855 10.2539 13.8596 10.2585 13.8642 10.2638L13.8658 10.2652C13.8722 10.2729 13.8784 10.2807 13.8839 10.2891L16.28 13.5438V10.4193C16.28 10.29 16.3847 10.1847 16.5138 10.1847ZM9.53292 14.5962H7.24585V10.4196C7.24585 10.2898 7.14118 10.1846 7.01236 10.1846H6.17041C6.04135 10.1846 5.93668 10.2898 5.93668 10.4196V15.6778C5.93668 15.741 5.96176 15.7986 6.00202 15.8407L6.00297 15.8419C6.00361 15.8427 6.00432 15.8434 6.00524 15.8442L6.00869 15.8474C6.05079 15.8882 6.10738 15.9131 6.17018 15.9131H9.53292C9.66198 15.9131 9.76619 15.8076 9.76619 15.6778V14.8312C9.76619 14.7014 9.66198 14.5962 9.53292 14.5962ZM22.2369 11.2665C22.2369 11.3965 22.1327 11.5015 22.0037 11.5015H19.7168V12.3903H22.0037C22.1327 12.3903 22.2369 12.4958 22.2369 12.6256V13.4722C22.2369 13.602 22.1327 13.7072 22.0037 13.7072H19.7168V14.5962H22.0037C22.1327 14.5962 22.2369 14.7017 22.2369 14.8312V15.6781C22.2369 15.8076 22.1327 15.9131 22.0037 15.9131H18.6411C18.5786 15.9131 18.5213 15.8879 18.4794 15.8474C18.4783 15.8465 18.4769 15.8454 18.476 15.8442C18.4755 15.8438 18.4751 15.8434 18.4747 15.843C18.474 15.8422 18.4733 15.8414 18.4728 15.8407C18.4325 15.7986 18.4074 15.7415 18.4074 15.6783V10.4199C18.4074 10.3569 18.4323 10.2998 18.4723 10.2577C18.473 10.2568 18.4737 10.256 18.4745 10.2551C18.475 10.2546 18.4755 10.254 18.476 10.2535C18.4764 10.253 18.4769 10.2525 18.4775 10.252C18.4779 10.2517 18.4784 10.2514 18.4787 10.251C18.5208 10.21 18.5777 10.1846 18.6407 10.1846H22.0037C22.1327 10.1846 22.2369 10.2901 22.2369 10.4199V11.2665Z" fill="black"/>
</svg>
