<svg width="28" height="28" viewBox="0 0 28 28" fill="none" xmlns="http://www.w3.org/2000/svg">
<path fill-rule="evenodd" clip-rule="evenodd" d="M20.77 5.80166C19.861 4.76155 19.3603 3.4269 19.3609 2.04553H18.2575C18.4004 2.80904 18.6967 3.53561 19.1286 4.18124C19.5605 4.82688 20.1189 5.37814 20.77 5.80166ZM10.5804 13.9128C9.66258 13.9139 8.78267 14.279 8.13368 14.9279C7.48469 15.5769 7.11963 16.4568 7.11856 17.3746C7.11917 18.006 7.29232 18.6252 7.61928 19.1653C7.94625 19.7054 8.4146 20.1459 8.97372 20.4391C8.548 19.852 8.31874 19.1454 8.31869 18.4202C8.3196 17.5023 8.6846 16.6222 9.33361 15.9731C9.98261 15.324 10.8626 14.9588 11.7805 14.9578C12.1372 14.9578 12.4791 15.0168 12.802 15.1181V10.9137C12.4636 10.8657 12.1223 10.8409 11.7805 10.8392C11.7204 10.8392 11.6614 10.8427 11.6019 10.8438V14.0732C11.2715 13.968 10.9271 13.9139 10.5804 13.9128Z" fill="black"/>
<path fill-rule="evenodd" clip-rule="evenodd" d="M23.89 7.64709V10.8478C21.7543 10.8478 19.776 10.1647 18.1602 9.00525V17.3747C18.1602 21.5545 14.7602 24.955 10.5804 24.955C8.96513 24.955 7.46726 24.4454 6.23621 23.5809C6.94398 24.3441 7.80176 24.953 8.7558 25.3692C9.70985 25.7855 10.7396 26.0003 11.7805 26C15.9603 26 19.3609 22.5994 19.3609 18.4202V10.0508C21.0301 11.2511 23.0347 11.8957 25.0907 11.8933V7.7742C24.6784 7.7742 24.2776 7.72954 23.89 7.64651" fill="black"/>
<path fill-rule="evenodd" clip-rule="evenodd" d="M18.1602 17.3747V9.00525C19.8294 10.2057 21.834 10.8503 23.89 10.8478V7.64709C22.6778 7.38564 21.583 6.7381 20.7701 5.80166C20.1189 5.37814 19.5605 4.82688 19.1286 4.18124C18.6968 3.53561 18.4004 2.80904 18.2576 2.04553H15.2424L15.2361 18.5502C15.1668 20.3984 13.6454 21.882 11.7805 21.882C11.2319 21.8814 10.6912 21.7503 10.2032 21.4994C9.71526 21.2485 9.29402 20.885 8.97433 20.4391C8.4151 20.1459 7.94663 19.7055 7.61956 19.1654C7.29249 18.6253 7.11926 18.0061 7.1186 17.3747C7.11966 16.4568 7.48473 15.5769 8.13371 14.9279C8.7827 14.279 9.66261 13.9139 10.5804 13.9128C10.9366 13.9128 11.2784 13.9712 11.6019 14.0732V10.8438C7.50452 10.94 4.20073 14.2999 4.20073 18.4202C4.20073 20.4128 4.97486 22.2267 6.23625 23.5814C7.50787 24.4766 9.02531 24.9564 10.5804 24.955C14.7603 24.955 18.1602 21.5545 18.1602 17.3747Z" fill="black"/>
</svg>
