<svg width="28" height="28" viewBox="0 0 28 28" fill="none" xmlns="http://www.w3.org/2000/svg">
<path fill-rule="evenodd" clip-rule="evenodd" d="M23.3904 6.11401C24.4184 6.39078 25.2289 7.20132 25.5057 8.22932C26.0197 10.1074 25.9999 14.0217 25.9999 14.0217C25.9999 14.0217 25.9999 17.9163 25.5057 19.7943C25.2289 20.8223 24.4184 21.6329 23.3904 21.9097C21.5123 22.4039 13.9999 22.4039 13.9999 22.4039C13.9999 22.4039 6.50739 22.4039 4.60954 21.8899C3.58154 21.6131 2.771 20.8026 2.49423 19.7746C2 17.9163 2 14.0019 2 14.0019C2 14.0019 2 10.1074 2.49423 8.22932C2.771 7.20132 3.60131 6.37101 4.60954 6.09424C6.48763 5.60001 13.9999 5.60001 13.9999 5.60001C13.9999 5.60001 21.5123 5.60001 23.3904 6.11401ZM11.6078 10.4039L17.8549 14.0019L11.6078 17.5999V10.4039Z" fill="black"/>
</svg>
