<svg width="28" height="28" viewBox="0 0 28 28" fill="none" xmlns="http://www.w3.org/2000/svg">
<path d="M14 26.4922C20.5391 26.4922 25.9531 21.0664 25.9531 14.5391C25.9531 8 20.5273 2.58594 13.9883 2.58594C7.46094 2.58594 2.04688 8 2.04688 14.5391C2.04688 21.0664 7.47266 26.4922 14 26.4922ZM14 24.5C8.46875 24.5 4.05078 20.0703 4.05078 14.5391C4.05078 9.00781 8.45703 4.57812 13.9883 4.57812C19.5195 4.57812 23.9492 9.00781 23.9609 14.5391C23.9727 20.0703 19.5312 24.5 14 24.5ZM10.1328 20.0586C10.5547 20.0586 10.8594 19.8594 11.0352 19.3086L11.8906 16.8125H16.0859L16.9414 19.3086C17.1172 19.8477 17.4102 20.0586 17.8438 20.0586C18.3594 20.0586 18.7109 19.7188 18.7109 19.25C18.7109 19.0625 18.6641 18.8984 18.582 18.6406L15.2891 9.79297C15.0664 9.18359 14.6211 8.86719 13.9766 8.86719C13.3438 8.86719 12.9102 9.18359 12.6758 9.79297L9.39453 18.6406C9.30078 18.8984 9.26562 19.0625 9.26562 19.2383C9.26562 19.7305 9.60547 20.0586 10.1328 20.0586ZM12.3594 15.4062L13.918 10.8711H14.0469L15.6055 15.4062H12.3594Z" fill="black"/>
</svg>
