<svg width="28" height="28" viewBox="0 0 28 28" fill="none" xmlns="http://www.w3.org/2000/svg">
<path d="M6.88672 25.3438H21.1016C23.5625 25.3438 24.7812 24.125 24.7812 21.7109V7.40234C24.7812 4.98828 23.5625 3.76953 21.1016 3.76953H6.88672C4.4375 3.76953 3.20703 4.97656 3.20703 7.40234V21.7109C3.20703 24.1367 4.4375 25.3438 6.88672 25.3438ZM10.0273 20.1992C9.48828 20.1992 9.125 19.8594 9.125 19.3672C9.125 19.1797 9.16016 19.0039 9.25391 18.7344L12.6406 9.61719C12.8867 8.98438 13.332 8.65625 13.9883 8.65625C14.6562 8.65625 15.1133 8.98438 15.3594 9.61719L18.7461 18.7344C18.8398 19.0039 18.875 19.1797 18.875 19.3672C18.875 19.8594 18.5117 20.1992 17.9727 20.1992C17.5391 20.1992 17.2227 19.9883 17.0352 19.4258L16.1562 16.8594H11.8438L10.9648 19.4258C10.7773 20 10.4609 20.1992 10.0273 20.1992ZM12.3242 15.3945H15.6758L14.0586 10.7305H13.9414L12.3242 15.3945Z" fill="black"/>
</svg>
