<svg width="28" height="28" viewBox="0 0 28 28" fill="none" xmlns="http://www.w3.org/2000/svg">
<path d="M6.88672 25.3438H21.1016C23.5625 25.3438 24.7812 24.125 24.7812 21.7109V7.40234C24.7812 4.98828 23.5625 3.76953 21.1016 3.76953H6.88672C4.4375 3.76953 3.20703 4.97656 3.20703 7.40234V21.7109C3.20703 24.1367 4.4375 25.3438 6.88672 25.3438ZM6.91016 23.457C5.73828 23.457 5.09375 22.8359 5.09375 21.6172V7.49609C5.09375 6.27734 5.73828 5.65625 6.91016 5.65625H21.0781C22.2383 5.65625 22.8945 6.27734 22.8945 7.49609V21.6172C22.8945 22.8359 22.2383 23.457 21.0781 23.457H6.91016ZM10.1445 20.0586C10.5664 20.0586 10.8711 19.8594 11.0469 19.3086L11.9023 16.8125H16.0977L16.9531 19.3086C17.1289 19.8477 17.4336 20.0586 17.8555 20.0586C18.3711 20.0586 18.7227 19.7188 18.7227 19.25C18.7227 19.0625 18.6758 18.8984 18.5938 18.6406L15.3125 9.79297C15.0781 9.18359 14.6328 8.86719 13.9883 8.86719C13.3555 8.86719 12.9219 9.18359 12.6875 9.79297L9.40625 18.6406C9.32422 18.8984 9.27734 19.0625 9.27734 19.2383C9.27734 19.7305 9.62891 20.0586 10.1445 20.0586ZM12.3711 15.4062L13.9414 10.8711H14.0586L15.6289 15.4062H12.3711Z" fill="black"/>
</svg>
