<svg width="56" height="56" viewBox="0 0 56 56" fill="none" xmlns="http://www.w3.org/2000/svg">
    <g id="Icon / acheckmark.shield.fill">
        <path id="symbol" d="M27.5898 49.9062C27.2617 49.9062 26.7695 49.8037 26.2363 49.5166C14.7725 43.0566 10.8145 40.3496 10.8145 32.9873V17.5244C10.8145 15.4121 11.7373 14.7148 13.4395 14.0176C15.8389 13.0537 23.5088 10.2031 25.9082 9.42383C26.4414 9.25977 27.0156 9.13672 27.5898 9.13672C28.1641 9.13672 28.7383 9.23926 29.292 9.42383C31.6709 10.2441 39.3408 13.0332 41.7402 14.0176C43.4629 14.7354 44.3652 15.4121 44.3652 17.5244V32.9873C44.3652 40.3496 40.6123 43.4053 28.9434 49.5166C28.4307 49.7832 27.918 49.9062 27.5898 49.9062ZM25.293 38.7705C25.9902 38.7705 26.585 38.4424 27.0156 37.7861L36.6543 22.5898C36.9209 22.1797 37.167 21.708 37.167 21.2363C37.167 20.293 36.3262 19.6777 35.4443 19.6777C34.8906 19.6777 34.3574 19.9854 33.9678 20.6211L25.2109 34.6895L21.0479 29.3164C20.5352 28.6396 20.084 28.4346 19.5098 28.4346C18.5664 28.4346 17.8486 29.1934 17.8486 30.1367C17.8486 30.5879 18.0332 31.0596 18.3408 31.4697L23.4883 37.7861C24.0215 38.5039 24.5957 38.7705 25.293 38.7705Z" fill="#00FF29"/>
    </g>
</svg>
