<svg width="18" height="19" viewBox="0 0 18 19" fill="none" xmlns="http://www.w3.org/2000/svg">
<path d="M8.86865 16.5413C8.76318 16.5413 8.60498 16.5083 8.43359 16.416C4.74878 14.3396 3.47656 13.4695 3.47656 11.103V6.13281C3.47656 5.45386 3.77319 5.22974 4.32031 5.00562C5.09155 4.6958 7.55688 3.77954 8.32812 3.52905C8.49951 3.47632 8.68408 3.43677 8.86865 3.43677C9.05322 3.43677 9.23779 3.46973 9.41577 3.52905C10.1804 3.79272 12.6458 4.68921 13.417 5.00562C13.9707 5.23633 14.2607 5.45386 14.2607 6.13281V11.103C14.2607 13.4695 13.0544 14.4517 9.30371 16.416C9.13892 16.5017 8.97412 16.5413 8.86865 16.5413ZM8.13037 12.9619C8.35449 12.9619 8.54565 12.8564 8.68408 12.6455L11.7822 7.76099C11.8679 7.62915 11.947 7.47754 11.947 7.32593C11.947 7.02271 11.6768 6.82495 11.3933 6.82495C11.2153 6.82495 11.0439 6.92383 10.9187 7.12817L8.104 11.6501L6.76587 9.9231C6.60107 9.70557 6.45605 9.63965 6.27148 9.63965C5.96826 9.63965 5.73755 9.88354 5.73755 10.1868C5.73755 10.3318 5.79688 10.4834 5.89575 10.6152L7.55029 12.6455C7.72168 12.8762 7.90625 12.9619 8.13037 12.9619Z" fill="#666BF7"/>
</svg>
