<svg width="28" height="28" viewBox="0 0 28 28" fill="none" xmlns="http://www.w3.org/2000/svg">
<path d="M21.9102 19.918C22.2852 20.3516 22.9414 20.3516 23.3867 19.8594C25.332 17.75 26.4336 14.9375 26.4336 11.9024C26.4336 8.8672 25.332 6.0547 23.3867 3.94532C22.9414 3.45314 22.2852 3.45314 21.9102 3.88673C21.5352 4.30861 21.6523 4.85939 22.0742 5.33986C23.6445 7.08595 24.5234 9.38282 24.5234 11.9024C24.5234 14.4219 23.6445 16.7188 22.0742 18.4649C21.6523 18.9453 21.5352 19.4961 21.9102 19.918ZM1.55469 11.9024C1.55469 14.9375 2.65625 17.75 4.60156 19.8594C5.04688 20.3516 5.70312 20.3516 6.07812 19.918C6.45312 19.4961 6.33594 18.9453 5.91406 18.4649C4.34375 16.7188 3.46484 14.4219 3.46484 11.9024C3.46484 9.38282 4.34375 7.08595 5.91406 5.33986C6.33594 4.85939 6.45312 4.30861 6.07812 3.88673C5.70312 3.45314 5.04688 3.45314 4.60156 3.94532C2.65625 6.0547 1.55469 8.8672 1.55469 11.9024ZM6.48828 11.9024C6.48828 13.625 7.07422 15.2305 8.09375 16.4961C8.50391 17.0352 9.20703 17.0234 9.59375 16.5781C9.96875 16.1563 9.81641 15.6289 9.44141 15.125C8.73828 14.2578 8.39844 13.1211 8.39844 11.9024C8.39844 10.6836 8.77344 9.58204 9.44141 8.6797C9.80469 8.16407 9.96875 7.64845 9.59375 7.22657C9.20703 6.78126 8.50391 6.76954 8.09375 7.30861C7.07422 8.57423 6.48828 10.1797 6.48828 11.9024ZM18.3945 16.5781C18.7812 17.0234 19.4844 17.0352 19.8945 16.4961C20.9141 15.2305 21.5 13.625 21.5 11.9024C21.5 10.1797 20.9141 8.57423 19.8945 7.30861C19.4844 6.76954 18.7812 6.78126 18.3945 7.22657C18.0195 7.64845 18.1836 8.16407 18.5469 8.6797C19.2148 9.58204 19.5898 10.6836 19.5898 11.9024C19.5898 13.1211 19.25 14.2578 18.5469 15.125C18.1719 15.6289 18.0195 16.1563 18.3945 16.5781ZM11.8906 11.9024C11.8906 12.7461 12.3711 13.4727 13.0977 13.8008V24.3359C13.0977 24.9336 13.4609 25.3438 14 25.3438C14.5508 25.3438 14.8906 24.9453 14.8906 24.3359V13.8008C15.6055 13.4727 16.0977 12.7344 16.0977 11.9024C16.0977 10.7305 15.1719 9.78126 14 9.78126C12.8164 9.78126 11.8906 10.7305 11.8906 11.9024Z" fill="black"/>
</svg>
