<svg width="28" height="28" viewBox="0 0 28 28" fill="none" xmlns="http://www.w3.org/2000/svg">
<path d="M24.4453 3.56854C25.7918 4.91498 26 6.77501 26 9.06536V13.5489H19.712C21.4332 12.7577 22.627 11.3141 22.627 9.56507C22.627 7.52458 21.1139 6.01157 19.0873 6.01157C17.3522 6.01157 15.7976 7.08039 14.8953 8.85714V2H18.9346C21.225 2 23.0989 2.22209 24.4453 3.56854ZM12.4523 13.3545C9.73164 13.3545 7.42741 11.4806 7.42741 9.74552C7.42741 8.71833 8.05205 8.07981 9.03759 8.07981C11.092 8.07981 12.8548 10.3563 12.8548 12.952V13.3545H12.4523ZM15.5477 13.3545H15.1452V12.952C15.1452 10.3563 16.908 8.07981 18.9624 8.07981C19.9479 8.07981 20.5865 8.71833 20.5865 9.74552C20.5865 11.4806 18.2684 13.3545 15.5477 13.3545ZM2 13.5489V9.03759C2 6.7889 2.22209 4.91498 3.55466 3.56854C4.9011 2.23597 6.7889 2 9.03759 2H13.1186V8.85714C12.2024 7.08039 10.6478 6.01157 8.91267 6.01157C6.88606 6.01157 5.38693 7.52458 5.38693 9.56507C5.38693 11.3141 6.5668 12.7577 8.30191 13.5489H2ZM21.5998 19.4899C19.6981 19.2678 17.0746 16.8248 16.2695 15.1729H26V18.9346C26 21.225 25.7918 23.085 24.4453 24.4315C23.1128 25.7779 21.225 26 18.9346 26H14.8953V16.2001H14.9925C15.9086 19.0596 19.2817 21.5442 21.4332 21.8635C22.2661 21.9746 22.7796 21.3638 22.7796 20.7392C22.7796 20.0312 22.3632 19.5732 21.5998 19.4899ZM3.55466 24.4315C2.20821 23.0989 2 21.225 2 18.9346V15.1729H11.7305C10.9254 16.8248 8.30191 19.2539 6.40023 19.4899C5.65067 19.587 5.23424 20.0312 5.23424 20.7392C5.23424 21.3638 5.73395 21.9746 6.5668 21.8635C8.71833 21.5442 12.0914 19.0596 13.0214 16.2001H13.1186V26H9.07924C6.7889 26 4.9011 25.7779 3.55466 24.4315Z" fill="black"/>
</svg>
