<svg width="28" height="28" viewBox="0 0 28 28" fill="none" xmlns="http://www.w3.org/2000/svg">
<path d="M17.6094 6.00781C18.3242 5.14062 18.8281 3.95703 18.8281 2.76172C18.8281 2.59766 18.8164 2.43359 18.793 2.30469C17.6211 2.35156 16.2148 3.07812 15.3828 4.0625C14.7148 4.8125 14.1055 6.00781 14.1055 7.20312C14.1055 7.39062 14.1406 7.56641 14.1523 7.625C14.2227 7.63672 14.3398 7.66016 14.4688 7.66016C15.5117 7.66016 16.8242 6.95703 17.6094 6.00781ZM18.4297 7.90625C16.6836 7.90625 15.2539 8.97266 14.3398 8.97266C13.3672 8.97266 12.1016 7.97656 10.5781 7.97656C7.68359 7.97656 4.75391 10.3672 4.75391 14.8672C4.75391 17.6797 5.83203 20.6445 7.17969 22.5547C8.32812 24.1719 9.33594 25.4961 10.7891 25.4961C12.2188 25.4961 12.8516 24.5469 14.6328 24.5469C16.4375 24.5469 16.8477 25.4727 18.4297 25.4727C20 25.4727 21.043 24.0312 22.0391 22.6133C23.1406 20.9844 23.6094 19.4023 23.6211 19.3203C23.5273 19.2969 20.5273 18.0664 20.5273 14.6328C20.5273 11.6562 22.8828 10.3203 23.0234 10.2148C21.4648 7.97656 19.0859 7.90625 18.4297 7.90625Z" fill="black"/>
</svg>
