<svg width="28" height="28" viewBox="0 0 28 28" fill="none" xmlns="http://www.w3.org/2000/svg">
<path d="M14 26C20.5635 26 26 20.5635 26 14C26 7.43653 20.5511 2 13.9876 2C7.43653 2 2 7.43653 2 14C2 20.5635 7.43653 26 14 26ZM14.0124 20.0805C13.4551 20.0805 13.0464 19.6842 13.0464 19.1146V13.2074L13.1455 10.6563L11.9814 12.0805L10.5697 13.5046C10.3963 13.6904 10.161 13.7895 9.90093 13.7895C9.36842 13.7895 8.97214 13.4056 8.97214 12.8854C8.97214 12.613 9.05882 12.3901 9.2322 12.2167L13.257 8.17957C13.517 7.91951 13.7276 7.82043 14.0124 7.82043C14.3096 7.82043 14.5325 7.93189 14.7802 8.17957L18.805 12.2167C18.9783 12.3901 19.065 12.613 19.065 12.8854C19.065 13.4056 18.6687 13.7895 18.1362 13.7895C17.8762 13.7895 17.6285 13.7028 17.4551 13.5046L16.0681 12.0805L14.8793 10.644L14.9907 13.2074V19.1146C14.9907 19.6842 14.582 20.0805 14.0124 20.0805Z" fill="black"/>
</svg>
