<svg width="28" height="28" viewBox="0 0 28 28" fill="none" xmlns="http://www.w3.org/2000/svg">
<path d="M14 26C20.5635 26 26 20.5635 26 14C26 7.43653 20.5511 2 13.9876 2C7.43653 2 2 7.43653 2 14C2 20.5635 7.43653 26 14 26ZM14 23.8824C8.52632 23.8824 4.14242 19.4861 4.14242 14C4.14242 8.51393 8.51393 4.11765 13.9876 4.11765C19.4737 4.11765 23.8824 8.51393 23.8824 14C23.8824 19.4861 19.4861 23.8824 14 23.8824ZM14 8.01858C13.4675 8.01858 13.0712 8.40248 13.0712 8.94737V14.6935L13.1703 17.1455L12.031 15.7709L10.6687 14.3715C10.5077 14.2105 10.2848 14.1115 10.0124 14.1115C9.51703 14.1115 9.13313 14.483 9.13313 14.9783C9.13313 15.2384 9.21981 15.4489 9.38081 15.6223L13.2817 19.5232C13.5294 19.7709 13.7276 19.87 14 19.87C14.2848 19.87 14.5077 19.7585 14.743 19.5232L18.6316 15.6223C18.7926 15.4489 18.8916 15.2384 18.8916 14.9783C18.8916 14.483 18.4954 14.1115 18 14.1115C17.7276 14.1115 17.5046 14.1981 17.3437 14.3715L15.9938 15.7709L14.8421 17.1579L14.9288 14.6935V8.94737C14.9288 8.40248 14.5449 8.01858 14 8.01858Z" fill="black"/>
</svg>
