<svg width="28" height="28" viewBox="0 0 28 28" fill="none" xmlns="http://www.w3.org/2000/svg">
<path d="M22.4609 25.5195C22.4609 24.8984 22.0273 24.4531 21.4297 24.4531H14.0938C14.3516 24.4297 14.5977 24.3125 14.7852 24.1016L22.1328 16.7539C22.3555 16.5195 22.4609 16.2617 22.4609 15.9805C22.4609 15.3945 22.0273 14.9492 21.4297 14.9492C21.1484 14.9492 20.8672 15.0547 20.6797 15.2422L18.1602 17.7266L14.9727 21.2422L15.0547 18.8633V4.53125C15.0547 3.91016 14.6211 3.47656 13.9883 3.47656C13.3672 3.47656 12.9336 3.91016 12.9336 4.53125V18.8633L13.0156 21.2305L9.82812 17.7266L7.30859 15.2422C7.12109 15.0547 6.83984 14.9492 6.55859 14.9492C5.96094 14.9492 5.52734 15.3945 5.52734 15.9805C5.52734 16.2617 5.63281 16.5195 5.85547 16.7539L13.2031 24.1016C13.3906 24.3125 13.6367 24.4297 13.8945 24.4531H6.58203C5.96094 24.4531 5.52734 24.8984 5.52734 25.5195C5.52734 26.1289 5.96094 26.5742 6.58203 26.5742H21.4297C22.0273 26.5742 22.4609 26.1289 22.4609 25.5195Z" fill="black"/>
</svg>
