<svg width="28" height="28" viewBox="0 0 28 28" fill="none" xmlns="http://www.w3.org/2000/svg">
<path d="M14 26C20.5635 26 26 20.5635 26 14C26 7.43653 20.5511 2 13.9876 2C7.43653 2 2 7.43653 2 14C2 20.5635 7.43653 26 14 26ZM14.0124 7.82043C14.582 7.82043 14.9907 8.21672 14.9907 8.77399V14.6935L14.8793 17.257L16.0681 15.8081L17.4551 14.3839C17.6285 14.1981 17.8762 14.0991 18.1362 14.0991C18.6687 14.0991 19.065 14.4954 19.065 15.0155C19.065 15.2879 18.9783 15.4985 18.805 15.6842L14.7802 19.709C14.5325 19.9567 14.3096 20.0805 14.0124 20.0805C13.7276 20.0805 13.517 19.969 13.257 19.709L9.2322 15.6842C9.05882 15.4985 8.97214 15.2879 8.97214 15.0155C8.97214 14.4954 9.36842 14.0991 9.90093 14.0991C10.161 14.0991 10.3963 14.2105 10.5697 14.3839L11.9814 15.8204L13.1455 17.2446L13.0464 14.6935V8.77399C13.0464 8.21672 13.4551 7.82043 14.0124 7.82043Z" fill="black"/>
</svg>
