<svg width="24" height="24" viewBox="0 0 24 24" fill="none" xmlns="http://www.w3.org/2000/svg">
<path d="M12.0004 22.7076C6.40555 22.7076 1.75488 18.057 1.75488 12.4621C1.75488 6.85718 6.39551 2.21655 11.9904 2.21655C17.5953 2.21655 22.246 6.85718 22.246 12.4621C22.246 18.057 17.6053 22.7076 12.0004 22.7076ZM12.0004 21C16.7415 21 20.5384 17.2032 20.5384 12.4621C20.5384 7.72102 16.7314 3.92414 11.9904 3.92414C7.2493 3.92414 3.47252 7.72102 3.47252 12.4621C3.47252 17.2032 7.25935 21 12.0004 21ZM16.3297 12.452C15.9379 12.452 15.6265 12.1407 15.6265 11.7489V11.2567L15.727 9.66968L13.5573 11.9498C13.256 12.2712 12.7839 12.2612 12.4826 11.9599C12.1913 11.6686 12.2013 11.1764 12.4926 10.8951L14.7627 8.73553L13.2259 8.83597H12.7337C12.3419 8.83597 12.0205 8.52459 12.0205 8.13285C12.0205 7.74111 12.3419 7.41968 12.7337 7.41968H16.2091C16.7314 7.41968 17.0428 7.6507 17.0428 8.25338V11.7489C17.0428 12.1407 16.7214 12.452 16.3297 12.452ZM11.2571 17.5246H7.77162C7.2493 17.5246 6.94796 17.2936 6.94796 16.6909V13.1953C6.94796 12.8036 7.25935 12.4922 7.65109 12.4922C8.04283 12.4922 8.36426 12.8036 8.36426 13.1953V13.6875L8.25377 15.2746L10.4335 12.9945C10.7247 12.673 11.2069 12.6831 11.4982 12.9844C11.7895 13.2757 11.7794 13.7679 11.4881 14.0491L9.2281 16.2087L10.7649 16.1083H11.2571C11.6489 16.1083 11.9602 16.4197 11.9602 16.8114C11.9602 17.2032 11.6489 17.5246 11.2571 17.5246Z" fill="white"/>
</svg>
