<svg width="28" height="28" viewBox="0 0 28 28" fill="none" xmlns="http://www.w3.org/2000/svg">
<path d="M6.71465 7.09375C6.2459 7.5625 6.2752 8.17773 6.66582 8.51953C7.06621 8.88086 7.63262 8.88086 8.10137 8.43164C9.55645 6.84961 11.6658 5.85352 13.9998 5.85352C18.1307 5.85352 21.4705 8.89062 22.0076 12.7871H20.533C19.7908 12.7871 19.5857 13.334 20.0154 13.9395L22.3396 17.2207C22.6912 17.709 23.2283 17.709 23.5896 17.2207L25.9139 13.9492C26.3533 13.3438 26.1482 12.7871 25.3963 12.7871H24.0291C23.4529 7.83594 19.1561 3.86133 13.9998 3.86133C11.1287 3.86133 8.51153 5.13086 6.71465 7.09375ZM2.07598 13.959C1.64629 14.5645 1.8416 15.1211 2.59356 15.1211H3.98028C4.54668 20.0723 8.84356 24.0469 13.9998 24.0469C16.8807 24.0469 19.4979 22.7773 21.3045 20.8047C21.7635 20.3359 21.7342 19.7207 21.3436 19.3691C20.9432 19.0078 20.3865 19.0176 19.908 19.4668C18.4627 21.0586 16.3533 22.0547 13.9998 22.0547C9.87871 22.0547 6.5291 19.0273 5.99199 15.1211H7.45684C8.19903 15.1211 8.4041 14.5742 7.97442 13.9688L5.6502 10.6875C5.29863 10.1992 4.76153 10.1992 4.40996 10.6875L2.07598 13.959Z" fill="black"/>
</svg>
