<svg width="28" height="28" viewBox="0 0 28 28" fill="none" xmlns="http://www.w3.org/2000/svg">
<path d="M22.6484 18.8398L22.6367 7.05078C22.6367 6.38281 22.2031 5.91406 21.5 5.91406H9.71094C9.05469 5.91406 8.60938 6.41797 8.60938 6.98047C8.60938 7.54297 9.11328 8.02344 9.66406 8.02344H13.7422L19.4609 7.83594L17.2812 9.74609L5.66797 21.3828C5.45703 21.5938 5.33984 21.8633 5.33984 22.1211C5.33984 22.6836 5.84375 23.2109 6.42969 23.2109C6.69922 23.2109 6.95703 23.1172 7.16797 22.8945L18.8047 11.2695L20.7383 9.07812L20.5273 14.5508V18.8867C20.5273 19.4375 21.0078 19.9531 21.582 19.9531C22.1445 19.9531 22.6484 19.4727 22.6484 18.8398Z" fill="black"/>
</svg>
