<svg width="28" height="28" viewBox="0 0 28 28" fill="none" xmlns="http://www.w3.org/2000/svg">
<path d="M14 26C20.5635 26 26 20.5635 26 14C26 7.43653 20.5511 2 13.9876 2C7.43653 2 2 7.43653 2 14C2 20.5635 7.43653 26 14 26ZM7.7709 13.9876C7.7709 13.7028 7.88235 13.4923 8.14242 13.2322L12.2291 9.14551C12.4149 8.97214 12.6378 8.88545 12.8978 8.88545C13.4303 8.88545 13.8142 9.28173 13.8142 9.80186C13.8142 10.0743 13.6904 10.3096 13.5294 10.483L12.0433 11.9443L10.6068 13.1207L13.1455 13.0217H19.3127C19.87 13.0217 20.2663 13.418 20.2663 13.9876C20.2663 14.5449 19.87 14.9536 19.3127 14.9536H13.1455L10.6068 14.8545L12.0433 16.031L13.5294 17.4923C13.7028 17.6656 13.8142 17.9009 13.8142 18.1734C13.8142 18.6935 13.4303 19.1022 12.8978 19.1022C12.6378 19.1022 12.4149 19.0031 12.2291 18.8297L8.14242 14.7554C7.89474 14.5077 7.7709 14.2848 7.7709 13.9876Z" fill="black"/>
</svg>
