<svg width="28" height="28" viewBox="0 0 28 28" fill="none" xmlns="http://www.w3.org/2000/svg">
<path d="M21.9277 18.1865L21.917 7.37988C21.917 6.76758 21.5195 6.33789 20.875 6.33789H10.0684C9.4668 6.33789 9.05859 6.7998 9.05859 7.31543C9.05859 7.83105 9.52051 8.27148 10.0254 8.27148H13.7637L19.0059 8.09961L17.0078 9.85059L6.3623 20.5176C6.16895 20.7109 6.06152 20.958 6.06152 21.1943C6.06152 21.71 6.52344 22.1934 7.06055 22.1934C7.30762 22.1934 7.54395 22.1074 7.7373 21.9033L18.4043 11.2471L20.1768 9.23828L19.9834 14.2549V18.2295C19.9834 18.7344 20.4238 19.207 20.9502 19.207C21.4658 19.207 21.9277 18.7666 21.9277 18.1865Z" fill="#FF3B30"/>
</svg>
