<svg width="28" height="28" viewBox="0 0 28 28" fill="none" xmlns="http://www.w3.org/2000/svg">
<path d="M21.9277 10.3555C21.9277 9.76465 21.4658 9.33496 20.9502 9.33496C20.4238 9.33496 19.9834 9.79688 19.9834 10.3125V14.2764L20.1768 19.293L18.4043 17.2949L7.7373 6.62793C7.54395 6.43457 7.30762 6.33789 7.06055 6.33789C6.52344 6.33789 6.06152 6.83203 6.06152 7.34766C6.06152 7.57324 6.16895 7.83105 6.3623 8.02441L17.0078 18.6807L19.0059 20.4424L13.7637 20.2705H10.0254C9.52051 20.2705 9.05859 20.7109 9.05859 21.2266C9.05859 21.7422 9.4668 22.1934 10.0684 22.1934H20.875C21.5195 22.1934 21.917 21.7744 21.917 21.1621L21.9277 10.3555Z" fill="#0A84FF"/>
</svg>
