<svg width="28" height="28" viewBox="0 0 28 28" fill="none" xmlns="http://www.w3.org/2000/svg">
<path d="M23.9688 14.2441C23.9688 13.9756 23.8613 13.7285 23.6465 13.5244L16.5244 6.42383C16.2881 6.1875 16.0625 6.10156 15.8047 6.10156C15.2783 6.10156 14.8701 6.48828 14.8701 7.02539C14.8701 7.2832 14.9561 7.53027 15.1279 7.70215L17.5342 10.1514L21.1436 13.4492L18.5547 13.2881H4.96582C4.40723 13.2881 4.02051 13.6855 4.02051 14.2441C4.02051 14.8027 4.40723 15.2002 4.96582 15.2002H18.5547L21.1543 15.0391L17.5342 18.3369L15.1279 20.7861C14.9561 20.9473 14.8701 21.2051 14.8701 21.4629C14.8701 22 15.2783 22.3867 15.8047 22.3867C16.0625 22.3867 16.2881 22.29 16.5029 22.0859L23.6465 14.9639C23.8613 14.7598 23.9688 14.5127 23.9688 14.2441Z" fill="white"/>
</svg>
