<svg width="28" height="28" viewBox="0 0 28 28" fill="none" xmlns="http://www.w3.org/2000/svg">
<path d="M2.354 14.4194C2.354 21.8203 7.36279 26.3125 14.2583 26.3125C16.1226 26.3125 17.897 26.0542 18.9976 25.6948C19.7725 25.4478 20.0195 25.0435 20.0195 24.6279C20.0195 24.2124 19.6938 23.8979 19.2783 23.8979C19.1436 23.8979 18.9639 23.9204 18.7505 23.9766C17.3804 24.3135 16.2012 24.5381 14.6177 24.5381C8.47461 24.5381 4.28564 20.832 4.28564 14.4868C4.28564 8.41113 8.23877 4.17725 14.1909 4.17725C19.458 4.17725 23.8604 7.42285 23.8604 13.2515C23.8604 16.6543 22.7148 18.9453 20.8618 18.9453C19.6265 18.9453 18.9302 18.2266 18.9302 17.0024V9.38818C18.9302 8.78174 18.5933 8.41113 18.0205 8.41113C17.459 8.41113 17.1108 8.78174 17.1108 9.38818V10.6685H17.0098C16.437 9.28711 15.0332 8.41113 13.3599 8.41113C10.4512 8.41113 8.40723 10.8931 8.40723 14.4531C8.40723 18.0469 10.4399 20.5513 13.4048 20.5513C15.1455 20.5513 16.4932 19.6079 17.1445 18.0132H17.2456C17.459 19.5967 18.7954 20.5625 20.5698 20.5625C23.7031 20.5625 25.646 17.4854 25.646 13.1729C25.646 6.64795 20.8506 2.41406 14.2134 2.41406C7.23926 2.41406 2.354 7.18701 2.354 14.4194ZM13.708 18.7769C11.6978 18.7769 10.4175 17.1035 10.4175 14.4419C10.4175 11.8252 11.709 10.1519 13.7192 10.1519C15.7856 10.1519 17.0884 11.7915 17.0884 14.397C17.0884 17.0586 15.752 18.7769 13.708 18.7769Z" fill="black"/>
</svg>
