<svg width="16" height="17" viewBox="0 0 16 17" fill="none" xmlns="http://www.w3.org/2000/svg">
<path d="M2.28809 9.33133C2.28809 6.32352 4.70661 3.91113 7.71443 3.91113C8.08887 3.91113 8.45103 3.9541 8.77023 4.01549L7.13742 2.40109C7.05148 2.30287 7.00237 2.18011 7.00237 2.0512C7.00237 1.76883 7.21108 1.54785 7.4873 1.54785C7.63463 1.54785 7.75739 1.59696 7.84333 1.69517L10.3723 4.26102C10.4706 4.35924 10.5258 4.49428 10.5258 4.62932C10.5258 4.77051 10.4828 4.89328 10.3723 4.99763L7.84333 7.53892C7.75739 7.631 7.64076 7.68011 7.4873 7.68011C7.21108 7.68011 7.00237 7.4714 7.00237 7.18903C7.00237 7.06013 7.05148 6.93736 7.14355 6.83915L8.97893 5.02218C8.61677 4.93624 8.18094 4.89941 7.71443 4.89941C5.25293 4.89941 3.27637 6.86984 3.27637 9.33133C3.27637 11.799 5.25293 13.7755 7.71443 13.7755C10.1759 13.7755 12.1463 11.799 12.1463 9.33133C12.1463 9.03669 12.3366 8.82185 12.6251 8.82185C12.9259 8.82185 13.1346 9.03669 13.1346 9.33133C13.1346 12.3453 10.7222 14.7638 7.71443 14.7638C4.70661 14.7638 2.28809 12.3453 2.28809 9.33133Z" fill="#EBEBF0"/>
</svg>
