<svg width="16" height="16" viewBox="0 0 16 16" fill="none" xmlns="http://www.w3.org/2000/svg">
<path d="M2.91025 12.2071C2.55088 12.2071 2.26563 12.1128 2.05449 11.9241C1.84336 11.7309 1.73779 11.4794 1.73779 11.1694C1.73779 10.81 1.85908 10.4821 2.10166 10.1856C2.34424 9.88465 2.61377 9.60165 2.91025 9.33661C3.07197 9.19286 3.19551 9.00194 3.28086 8.76385C3.36621 8.52577 3.43135 8.25624 3.47627 7.95526C3.52119 7.65428 3.56387 7.34208 3.6043 7.01864C3.65371 6.28192 3.77276 5.61932 3.96143 5.03084C4.1501 4.43787 4.41738 3.937 4.76328 3.52821C5.11367 3.11492 5.55615 2.8117 6.09073 2.61854C6.23448 2.19627 6.4793 1.84588 6.8252 1.56736C7.1711 1.28436 7.58213 1.14285 8.0583 1.14285C8.52998 1.14285 8.93877 1.28436 9.28467 1.56736C9.63057 1.84588 9.8754 2.19627 10.0191 2.61854C10.5537 2.8117 10.994 3.11492 11.3398 3.52821C11.6902 3.937 11.9575 4.43787 12.1417 5.03084C12.3304 5.61932 12.4517 6.28192 12.5056 7.01864C12.5415 7.34208 12.5819 7.65428 12.6269 7.95526C12.6763 8.25624 12.7437 8.52577 12.829 8.76385C12.9144 9.00194 13.0379 9.19286 13.1996 9.33661C13.4961 9.60165 13.7656 9.88465 14.0082 10.1856C14.2508 10.4821 14.3721 10.81 14.3721 11.1694C14.3721 11.4794 14.2665 11.7309 14.0554 11.9241C13.8442 12.1128 13.5567 12.2071 13.1929 12.2071H2.91025ZM8.0583 14.9294C7.66299 14.9294 7.30811 14.8463 6.99366 14.6801C6.68369 14.5139 6.43438 14.2937 6.24571 14.0197C6.05703 13.7457 5.94922 13.447 5.92227 13.1235H10.1876C10.1606 13.447 10.0528 13.7457 9.86417 14.0197C9.67549 14.2937 9.42393 14.5139 9.10948 14.6801C8.79952 14.8463 8.44913 14.9294 8.0583 14.9294Z" fill="#EBEBF0"/>
</svg>
