<svg width="28" height="28" viewBox="0 0 28 28" fill="none" xmlns="http://www.w3.org/2000/svg">
<path d="M18.9414 16.2852L21.165 13.5137C21.3477 13.2881 21.4443 13.0732 21.4443 12.8262C21.4443 12.418 21.1328 12.1064 20.6816 12.0957L14.7734 12.0098L17.8135 3.39453C18.2002 2.27734 17.083 1.69726 16.3525 2.61035L11.4219 8.77636L18.9414 16.2852ZM21.3906 22.8486C21.7129 23.1709 22.25 23.1709 22.5615 22.8486C22.8838 22.5371 22.8838 22.0107 22.5615 21.6777L6.35156 5.46777C6.0293 5.14551 5.48145 5.14551 5.16992 5.46777C4.8584 5.77929 4.8584 6.32715 5.16992 6.63867L21.3906 22.8486ZM11.4111 25.7168L16.3203 19.5615L8.80078 12.042L6.59863 14.8027C6.41602 15.0391 6.30859 15.2539 6.30859 15.4902C6.30859 15.9092 6.63086 16.2207 7.08203 16.2207L12.9795 16.3066L9.9502 24.9219C9.56348 26.0283 10.6807 26.6191 11.4111 25.7168Z" fill="black"/>
</svg>
