<svg width="28" height="28" viewBox="0 0 28 28" fill="none" xmlns="http://www.w3.org/2000/svg">
<path d="M14 26C20.5647 26 26 20.5529 26 14C26 7.43529 20.5529 2 13.9882 2C7.43529 2 2 7.43529 2 14C2 20.5529 7.44706 26 14 26ZM14 24C8.44706 24 4.01176 19.5529 4.01176 14C4.01176 8.44706 8.43529 4 13.9882 4C19.5412 4 23.9882 8.44706 24 14C24.0118 19.5529 19.5529 24 14 24ZM10.5059 20.2353C10.8118 20.2353 10.9882 20.0588 11.5294 19.5294L13.9294 17.1647C13.9647 17.1294 14.0118 17.1294 14.0471 17.1647L16.4588 19.5294C16.9882 20.0588 17.1647 20.2353 17.4706 20.2353C17.8588 20.2353 18.1059 19.9529 18.1059 19.4824V9.57647C18.1059 8.43529 17.5176 7.83529 16.3765 7.83529H11.6C10.4588 7.83529 9.87059 8.43529 9.87059 9.57647V19.4824C9.87059 19.9529 10.1176 20.2353 10.5059 20.2353Z" fill="black"/>
</svg>
