<svg width="28" height="28" viewBox="0 0 28 28" fill="none" xmlns="http://www.w3.org/2000/svg">
<path d="M13.9785 26.1572C14.4619 26.1572 14.9131 25.9531 15.3428 25.2119L17.3301 21.8926H20.918C24.1191 21.8926 25.8379 20.1201 25.8379 16.9727V8.74414C25.8379 5.59668 24.1191 3.82422 20.918 3.82422H7.08203C3.88086 3.82422 2.16211 5.58594 2.16211 8.74414V16.9727C2.16211 20.1309 3.88086 21.8926 7.08203 21.8926H10.627L12.6143 25.2119C13.0439 25.9531 13.4951 26.1572 13.9785 26.1572ZM13.9785 24.3955L12.1846 21.0332C11.8301 20.335 11.5723 20.1631 10.8096 20.1631H7.08203C4.91211 20.1631 3.8916 19.0566 3.8916 16.9619V8.74414C3.8916 6.64941 4.91211 5.55371 7.08203 5.55371H20.918C23.0771 5.55371 24.1084 6.64941 24.1084 8.74414V16.9619C24.1084 19.0566 23.0771 20.1631 20.918 20.1631H17.1475C16.3848 20.1631 16.127 20.335 15.7725 21.0332L13.9785 24.3955Z" fill="black"/>
</svg>
