<svg width="28" height="28" viewBox="0 0 28 28" fill="none" xmlns="http://www.w3.org/2000/svg">
<path d="M6.66309 24.1484H21.3369C23.582 24.1484 24.6992 23.0312 24.6992 20.8184V7.70215C24.6992 5.48926 23.582 4.37207 21.3369 4.37207H6.66309C4.41797 4.37207 3.29004 5.47852 3.29004 7.70215V20.8184C3.29004 23.042 4.41797 24.1484 6.66309 24.1484ZM6.50195 22.4189C5.5459 22.4189 5.01953 21.9141 5.01953 20.915V10.7852C5.01953 9.79688 5.5459 9.28125 6.50195 9.28125H21.4766C22.4326 9.28125 22.9697 9.79688 22.9697 10.7852V20.915C22.9697 21.9141 22.4326 22.4189 21.4766 22.4189H6.50195ZM11.9053 13.1377H12.5391C12.915 13.1377 13.0332 13.0303 13.0332 12.6543V12.0205C13.0332 11.6445 12.915 11.5264 12.5391 11.5264H11.9053C11.5293 11.5264 11.4004 11.6445 11.4004 12.0205V12.6543C11.4004 13.0303 11.5293 13.1377 11.9053 13.1377ZM15.4717 13.1377H16.1055C16.4814 13.1377 16.6104 13.0303 16.6104 12.6543V12.0205C16.6104 11.6445 16.4814 11.5264 16.1055 11.5264H15.4717C15.0957 11.5264 14.9668 11.6445 14.9668 12.0205V12.6543C14.9668 13.0303 15.0957 13.1377 15.4717 13.1377ZM19.0381 13.1377H19.6719C20.0479 13.1377 20.1768 13.0303 20.1768 12.6543V12.0205C20.1768 11.6445 20.0479 11.5264 19.6719 11.5264H19.0381C18.6621 11.5264 18.5439 11.6445 18.5439 12.0205V12.6543C18.5439 13.0303 18.6621 13.1377 19.0381 13.1377ZM8.33887 16.6504H8.96191C9.34863 16.6504 9.4668 16.543 9.4668 16.167V15.5332C9.4668 15.1572 9.34863 15.0498 8.96191 15.0498H8.33887C7.95215 15.0498 7.83398 15.1572 7.83398 15.5332V16.167C7.83398 16.543 7.95215 16.6504 8.33887 16.6504ZM11.9053 16.6504H12.5391C12.915 16.6504 13.0332 16.543 13.0332 16.167V15.5332C13.0332 15.1572 12.915 15.0498 12.5391 15.0498H11.9053C11.5293 15.0498 11.4004 15.1572 11.4004 15.5332V16.167C11.4004 16.543 11.5293 16.6504 11.9053 16.6504ZM15.4717 16.6504H16.1055C16.4814 16.6504 16.6104 16.543 16.6104 16.167V15.5332C16.6104 15.1572 16.4814 15.0498 16.1055 15.0498H15.4717C15.0957 15.0498 14.9668 15.1572 14.9668 15.5332V16.167C14.9668 16.543 15.0957 16.6504 15.4717 16.6504ZM19.0381 16.6504H19.6719C20.0479 16.6504 20.1768 16.543 20.1768 16.167V15.5332C20.1768 15.1572 20.0479 15.0498 19.6719 15.0498H19.0381C18.6621 15.0498 18.5439 15.1572 18.5439 15.5332V16.167C18.5439 16.543 18.6621 16.6504 19.0381 16.6504ZM8.33887 20.1738H8.96191C9.34863 20.1738 9.4668 20.0557 9.4668 19.6797V19.0459C9.4668 18.6699 9.34863 18.5625 8.96191 18.5625H8.33887C7.95215 18.5625 7.83398 18.6699 7.83398 19.0459V19.6797C7.83398 20.0557 7.95215 20.1738 8.33887 20.1738ZM11.9053 20.1738H12.5391C12.915 20.1738 13.0332 20.0557 13.0332 19.6797V19.0459C13.0332 18.6699 12.915 18.5625 12.5391 18.5625H11.9053C11.5293 18.5625 11.4004 18.6699 11.4004 19.0459V19.6797C11.4004 20.0557 11.5293 20.1738 11.9053 20.1738ZM15.4717 20.1738H16.1055C16.4814 20.1738 16.6104 20.0557 16.6104 19.6797V19.0459C16.6104 18.6699 16.4814 18.5625 16.1055 18.5625H15.4717C15.0957 18.5625 14.9668 18.6699 14.9668 19.0459V19.6797C14.9668 20.0557 15.0957 20.1738 15.4717 20.1738Z" fill="black"/>
</svg>
