<svg width="28" height="28" viewBox="0 0 28 28" fill="none" xmlns="http://www.w3.org/2000/svg">
<path d="M5.07422 22.9531H22.9258C24.957 22.9531 25.9922 21.9375 25.9922 19.9258V9.70117C25.9922 7.68945 24.957 6.68359 22.9258 6.68359H20.1328C19.3613 6.68359 19.127 6.52734 18.6875 6.03906L17.9062 5.16016C17.418 4.62305 16.9199 4.33008 15.9141 4.33008H12.0176C11.0117 4.33008 10.5137 4.62305 10.0254 5.16016L9.24414 6.03906C8.80469 6.51758 8.56055 6.68359 7.79883 6.68359H5.07422C3.0332 6.68359 2.00781 7.68945 2.00781 9.70117V19.9258C2.00781 21.9375 3.0332 22.9531 5.07422 22.9531ZM10.4746 11.127C10.123 10.7656 10.2402 10.2578 10.709 9.89648C11.5586 9.19336 12.7793 8.76367 14 8.76367C16.7832 8.76367 18.9805 10.6289 19.459 13.3438H20.4355C20.8945 13.3438 20.9824 13.7734 20.7383 14.125L19.1758 16.332C18.8926 16.7227 18.4434 16.6934 18.1797 16.332L16.5977 14.125C16.3438 13.7832 16.4512 13.3438 16.9004 13.3438H17.9941C17.5547 11.6152 15.9434 10.3066 14 10.3066C13.0527 10.3066 12.3398 10.5898 11.6465 11.1562C11.2559 11.4492 10.8262 11.498 10.4746 11.127ZM7.22266 14.3398L8.78516 12.1426C9.06836 11.752 9.51758 11.7812 9.77148 12.1426L11.3633 14.3398C11.6172 14.6914 11.5098 15.1211 11.0508 15.1211H10.0254C10.4648 16.8594 12.0762 18.168 14.0195 18.168C14.9668 18.168 15.6699 17.8652 16.373 17.3086C16.7637 17.0254 17.2031 16.9668 17.5449 17.3379C17.8965 17.6992 17.7793 18.2168 17.3105 18.5781C16.4609 19.2812 15.2402 19.7012 14.0195 19.7012C11.2363 19.7012 9.03906 17.8359 8.56055 15.1211H7.52539C7.06641 15.1211 6.97852 14.6914 7.22266 14.3398Z" fill="black"/>
</svg>
