<svg width="28" height="28" viewBox="0 0 28 28" fill="none" xmlns="http://www.w3.org/2000/svg">
<path d="M10.0576 20.3457H22.5938C23.0127 20.3457 23.3779 20.002 23.3779 19.54C23.3779 19.0781 23.0127 18.7344 22.5938 18.7344H10.2402C9.62793 18.7344 9.25195 18.3047 9.15527 17.6494L8.9834 16.5215H22.6152C24.1836 16.5215 24.9893 15.5547 25.2148 14.0186L26.0742 8.33594C26.0957 8.19629 26.1172 8.02441 26.1172 7.92773C26.1172 7.41211 25.7305 7.05762 25.1396 7.05762H7.59766L7.39355 5.69336C7.28613 4.86621 6.98535 4.44727 5.88965 4.44727H2.11914C1.68945 4.44727 1.32422 4.82324 1.32422 5.25293C1.32422 5.69336 1.68945 6.06934 2.11914 6.06934H5.75L7.46875 17.8643C7.69434 19.3896 8.5 20.3457 10.0576 20.3457ZM24.291 8.67969L23.5283 13.8252C23.4424 14.4912 23.0879 14.8994 22.4541 14.8994L8.74707 14.9102L7.83398 8.67969H24.291ZM10.9062 25.5664C11.873 25.5664 12.6465 24.8037 12.6465 23.8262C12.6465 22.8594 11.873 22.0859 10.9062 22.0859C9.92871 22.0859 9.15527 22.8594 9.15527 23.8262C9.15527 24.8037 9.92871 25.5664 10.9062 25.5664ZM20.9502 25.5664C21.9277 25.5664 22.7012 24.8037 22.7012 23.8262C22.7012 22.8594 21.9277 22.0859 20.9502 22.0859C19.9834 22.0859 19.1992 22.8594 19.1992 23.8262C19.1992 24.8037 19.9834 25.5664 20.9502 25.5664Z" fill="black"/>
</svg>
