<svg width="28" height="28" viewBox="0 0 28 28" fill="none" xmlns="http://www.w3.org/2000/svg">
<path d="M2 23.3477C2 23.6133 2.09375 23.8359 2.28125 24.0156C2.46875 24.1953 2.6875 24.2852 2.9375 24.2852H25.4961C25.7539 24.2852 25.9766 24.1953 26.1641 24.0156C26.3516 23.8359 26.4453 23.6133 26.4453 23.3477C26.4453 23.0898 26.3516 22.8672 26.1641 22.6797C25.9766 22.5 25.7539 22.4102 25.4961 22.4102H2.9375C2.6875 22.4102 2.46875 22.5 2.28125 22.6797C2.09375 22.8672 2 23.0898 2 23.3477ZM2.9375 19.7383C2.9375 20.043 3.02734 20.2812 3.20703 20.4531C3.39453 20.625 3.64844 20.7109 3.96875 20.7109H6.52344C6.83594 20.7109 7.08203 20.625 7.26172 20.4531C7.44922 20.2812 7.54297 20.043 7.54297 19.7383V10.0469C7.54297 9.74219 7.44922 9.50391 7.26172 9.33203C7.08203 9.15234 6.83594 9.0625 6.52344 9.0625H3.96875C3.64844 9.0625 3.39453 9.15234 3.20703 9.33203C3.02734 9.50391 2.9375 9.74219 2.9375 10.0469V19.7383ZM8.91406 19.7383C8.91406 20.043 9.00391 20.2812 9.18359 20.4531C9.37109 20.625 9.625 20.7109 9.94531 20.7109H12.5C12.8125 20.7109 13.0625 20.625 13.25 20.4531C13.4375 20.2812 13.5312 20.043 13.5312 19.7383V4.97266C13.5312 4.66797 13.4375 4.42969 13.25 4.25781C13.0625 4.08594 12.8125 4 12.5 4H9.94531C9.625 4 9.37109 4.08594 9.18359 4.25781C9.00391 4.42969 8.91406 4.66797 8.91406 4.97266V19.7383ZM14.9023 19.7383C14.9023 20.043 14.9922 20.2812 15.1719 20.4531C15.3594 20.625 15.6094 20.7109 15.9219 20.7109H18.4883C18.8008 20.7109 19.0469 20.625 19.2266 20.4531C19.4141 20.2812 19.5078 20.043 19.5078 19.7383V7.50391C19.5078 7.19141 19.4141 6.94922 19.2266 6.77734C19.0469 6.60547 18.8008 6.51953 18.4883 6.51953H15.9219C15.6094 6.51953 15.3594 6.60547 15.1719 6.77734C14.9922 6.94922 14.9023 7.19141 14.9023 7.50391V19.7383ZM20.8789 19.7383C20.8789 20.043 20.9688 20.2812 21.1484 20.4531C21.3359 20.625 21.5898 20.7109 21.9102 20.7109H24.4648C24.7773 20.7109 25.0273 20.625 25.2148 20.4531C25.4023 20.2812 25.4961 20.043 25.4961 19.7383V12.5078C25.4961 12.2031 25.4023 11.9648 25.2148 11.793C25.0273 11.6133 24.7773 11.5234 24.4648 11.5234H21.9102C21.5898 11.5234 21.3359 11.6133 21.1484 11.793C20.9688 11.9648 20.8789 12.2031 20.8789 12.5078V19.7383Z" fill="black"/>
</svg>
