<svg width="28" height="28" viewBox="0 0 28 28" fill="none" xmlns="http://www.w3.org/2000/svg">
<path d="M8.53125 22.1836C8.26042 22.1836 8.05469 22.1185 7.91406 21.9883C7.77344 21.8633 7.70052 21.7044 7.69531 21.5117C7.6901 21.3242 7.75521 21.1393 7.89062 20.957C8.01042 20.806 8.15365 20.6107 8.32031 20.3711C8.48698 20.1367 8.65365 19.8893 8.82031 19.6289C8.98698 19.3685 9.13021 19.1237 9.25 18.8945C8.42708 18.5143 7.70573 18.0195 7.08594 17.4102C6.47135 16.8008 5.99219 16.1133 5.64844 15.3477C5.3099 14.582 5.14062 13.7721 5.14062 12.918C5.14062 11.9336 5.36719 11.0117 5.82031 10.1523C6.27865 9.29297 6.91146 8.54036 7.71875 7.89453C8.53125 7.24349 9.47396 6.73568 10.5469 6.37109C11.6198 6.0013 12.7708 5.81641 14 5.81641C15.2292 5.81641 16.3802 6.0013 17.4531 6.37109C18.526 6.73568 19.4661 7.24349 20.2734 7.89453C21.0859 8.54036 21.7188 9.29297 22.1719 10.1523C22.6302 11.0117 22.8594 11.9336 22.8594 12.918C22.8594 13.7357 22.7031 14.5091 22.3906 15.2383C22.0833 15.9622 21.6432 16.6211 21.0703 17.2148C20.5026 17.8086 19.8229 18.319 19.0312 18.7461C18.2448 19.168 17.3698 19.4883 16.4062 19.707C15.4427 19.9258 14.4167 20.0195 13.3281 19.9883C12.8021 20.3685 12.2344 20.7253 11.625 21.0586C11.0156 21.3919 10.4349 21.6628 9.88281 21.8711C9.33073 22.0794 8.88021 22.1836 8.53125 22.1836ZM9.35156 20.8867C9.58594 20.7878 9.88281 20.6367 10.2422 20.4336C10.6016 20.2305 10.974 20.0039 11.3594 19.7539C11.7448 19.5091 12.0964 19.2721 12.4141 19.043C12.5599 18.9284 12.7005 18.8451 12.8359 18.793C12.9766 18.7357 13.1276 18.707 13.2891 18.707C13.4453 18.7122 13.5833 18.7174 13.7031 18.7227C13.8229 18.7227 13.9219 18.7227 14 18.7227C15.0521 18.7227 16.0365 18.5716 16.9531 18.2695C17.8698 17.9674 18.6719 17.5508 19.3594 17.0195C20.0521 16.4883 20.5938 15.8711 20.9844 15.168C21.375 14.4648 21.5703 13.7148 21.5703 12.918C21.5703 12.1159 21.375 11.3659 20.9844 10.668C20.5938 9.96484 20.0521 9.34766 19.3594 8.81641C18.6719 8.27995 17.8698 7.86068 16.9531 7.55859C16.0365 7.25651 15.0521 7.10547 14 7.10547C12.9479 7.10547 11.9635 7.25651 11.0469 7.55859C10.1302 7.86068 9.32552 8.27995 8.63281 8.81641C7.94531 9.34766 7.40625 9.96484 7.01562 10.668C6.63021 11.3659 6.4375 12.1159 6.4375 12.918C6.4375 13.6107 6.58854 14.2695 6.89062 14.8945C7.19271 15.5195 7.63021 16.0924 8.20312 16.6133C8.78125 17.1289 9.47917 17.5768 10.2969 17.957C10.5469 18.0768 10.6927 18.2227 10.7344 18.3945C10.776 18.5664 10.7422 18.7539 10.6328 18.957C10.4974 19.207 10.2969 19.5091 10.0312 19.8633C9.76562 20.2227 9.52344 20.5378 9.30469 20.8086C9.28385 20.8346 9.27865 20.8555 9.28906 20.8711C9.29948 20.8919 9.32031 20.8971 9.35156 20.8867Z" fill="#666BF7"/>
</svg>
