<svg width="28" height="28" viewBox="0 0 28 28" fill="none" xmlns="http://www.w3.org/2000/svg">
<path d="M7.08175 24.5H20.9183C23.3137 24.5 24.5 23.3137 24.5 20.9639V7.03612C24.5 4.68631 23.3137 3.5 20.9183 3.5H7.08175C4.69772 3.5 3.5 4.6749 3.5 7.03612V20.9639C3.5 23.3251 4.69772 24.5 7.08175 24.5ZM12.7281 19.5608C12.3403 19.5608 12.0209 19.4011 11.7243 19.0019L8.86122 15.4886C8.69011 15.2605 8.58745 15.0095 8.58745 14.7471C8.58745 14.2338 8.98669 13.8118 9.51141 13.8118C9.8308 13.8118 10.0817 13.9144 10.3669 14.2909L12.6825 17.2795L17.5532 9.45437C17.77 9.11217 18.0665 8.92966 18.3745 8.92966C18.865 8.92966 19.3327 9.27186 19.3327 9.80798C19.3327 10.0589 19.1958 10.3213 19.0475 10.5608L13.6863 19.0019C13.4468 19.3783 13.116 19.5608 12.7281 19.5608Z" fill="black"/>
</svg>
