<svg width="18" height="18" viewBox="0 0 18 18" fill="none" xmlns="http://www.w3.org/2000/svg">
<path d="M4.61834 15.8571C3.16438 15.8571 2.46377 15.1489 2.46377 13.695V12.1129C2.46377 11.9849 2.4261 11.8945 2.3357 11.8041L1.22074 10.6816C0.188654 9.65703 0.18112 8.66261 1.22074 7.63053L2.3357 6.51557C2.4261 6.42517 2.46377 6.32723 2.46377 6.2067V4.62467C2.46377 3.15564 3.16438 2.46256 4.61834 2.46256H6.20037C6.32844 2.46256 6.41884 2.42489 6.50924 2.33449L7.63173 1.22707C8.66382 0.187445 9.65071 0.179911 10.6828 1.21953L11.7977 2.33449C11.8957 2.42489 11.9861 2.46256 12.1142 2.46256H13.6962C15.1501 2.46256 15.8508 3.1707 15.8508 4.62467V6.2067C15.8508 6.32723 15.8809 6.41763 15.9788 6.51557L17.0938 7.63053C18.1259 8.66261 18.1259 9.65703 17.0938 10.6816L15.9788 11.8041C15.8884 11.8945 15.8508 11.9849 15.8508 12.1129V13.695C15.8508 15.1489 15.1501 15.8571 13.6962 15.8571H12.1142C11.9861 15.8571 11.8957 15.8872 11.7977 15.9852L10.6828 17.1001C9.65071 18.1247 8.66382 18.1322 7.63173 17.1001L6.50924 15.9852C6.41884 15.8872 6.32844 15.8571 6.20037 15.8571H4.61834ZM8.32481 12.9416C8.65629 12.9416 8.94256 12.7684 9.13843 12.4821L12.6415 7.13332C12.7696 6.94498 12.8449 6.73404 12.8449 6.5457C12.8449 6.07863 12.4381 5.74715 11.9861 5.74715C11.6847 5.74715 11.4437 5.91289 11.2403 6.2293L8.30975 10.8925L6.99139 9.28036C6.78798 9.03175 6.58458 8.92628 6.31337 8.92628C5.8463 8.92628 5.46962 9.29542 5.46962 9.7625C5.46962 9.98097 5.54496 10.1768 5.71823 10.3802L7.48106 12.4972C7.72214 12.7834 7.99334 12.9416 8.32481 12.9416Z" fill="#00FF29"/>
</svg>
