<svg width="28" height="28" viewBox="0 0 28 28" fill="none" xmlns="http://www.w3.org/2000/svg">
<path d="M14 26.4922C20.5391 26.4922 25.9531 21.0664 25.9531 14.5391C25.9531 8 20.5273 2.58594 13.9883 2.58594C7.46094 2.58594 2.04688 8 2.04688 14.5391C2.04688 21.0664 7.47266 26.4922 14 26.4922ZM14 24.5C8.46875 24.5 4.05078 20.0703 4.05078 14.5391C4.05078 9.00781 8.45703 4.57812 13.9883 4.57812C19.5195 4.57812 23.9609 9.00781 23.9609 14.5391C23.9609 20.0703 19.5312 24.5 14 24.5ZM12.7109 20.1055C13.0977 20.1055 13.4258 19.918 13.6602 19.5547L19.0156 11.1289C19.1445 10.8945 19.2969 10.6367 19.2969 10.3789C19.2969 9.85156 18.8281 9.51172 18.3359 9.51172C18.043 9.51172 17.75 9.69922 17.5273 10.0391L12.6641 17.8438L10.3555 14.8555C10.0742 14.4805 9.81641 14.3867 9.48828 14.3867C8.98438 14.3867 8.58594 14.7969 8.58594 15.3125C8.58594 15.5703 8.69141 15.8164 8.85547 16.0391L11.7148 19.5547C12.0078 19.9414 12.3242 20.1055 12.7109 20.1055Z" fill="black"/>
</svg>
