<svg width="28" height="28" viewBox="0 0 28 28" fill="none" xmlns="http://www.w3.org/2000/svg">
<path d="M11.5391 24.8867C12.043 24.8867 12.4414 24.6641 12.7227 24.2305L23.7969 6.79297C24.0078 6.45312 24.0898 6.19531 24.0898 5.92578C24.0898 5.28125 23.668 4.85938 23.0234 4.85938C22.5547 4.85938 22.2969 5.01172 22.0156 5.45703L11.4922 22.2266L6.03125 15.0781C5.73828 14.668 5.44531 14.5039 5.02344 14.5039C4.35547 14.5039 3.89844 14.9609 3.89844 15.6055C3.89844 15.875 4.01562 16.1797 4.23828 16.4609L10.3203 24.207C10.6719 24.6641 11.0352 24.8867 11.5391 24.8867Z" fill="black"/>
</svg>
