<svg width="28" height="28" viewBox="0 0 28 28" fill="none" xmlns="http://www.w3.org/2000/svg">
<path d="M7.08175 24.5H20.9183C23.3137 24.5 24.5 23.3137 24.5 20.9639V7.03612C24.5 4.68631 23.3137 3.5 20.9183 3.5H7.08175C4.69772 3.5 3.5 4.6749 3.5 7.03612V20.9639C3.5 23.3251 4.69772 24.5 7.08175 24.5ZM7.10456 22.6635C5.96388 22.6635 5.3365 22.0589 5.3365 20.8726V7.12738C5.3365 5.94106 5.96388 5.3365 7.10456 5.3365H20.8954C22.0247 5.3365 22.6635 5.94106 22.6635 7.12738V20.8726C22.6635 22.0589 22.0247 22.6635 20.8954 22.6635H7.10456ZM12.7624 19.4011C13.1388 19.4011 13.4582 19.2186 13.6863 18.865L18.8992 10.6635C19.0361 10.4354 19.173 10.1844 19.173 9.93346C19.173 9.42015 18.7167 9.08935 18.249 9.08935C17.9525 9.08935 17.6673 9.27186 17.4506 9.60266L12.7167 17.1996L10.4696 14.2909C10.1958 13.9259 9.94487 13.8346 9.63688 13.8346C9.13498 13.8346 8.74715 14.2338 8.74715 14.7357C8.74715 14.9867 8.84981 15.2262 9.00951 15.443L11.7928 18.865C12.0779 19.2414 12.3859 19.4011 12.7624 19.4011Z" fill="black"/>
</svg>
