<svg width="28" height="28" viewBox="0 0 28 28" fill="none" xmlns="http://www.w3.org/2000/svg">
<path d="M14 26C20.5647 26 26 20.5529 26 14C26 7.43529 20.5529 2 13.9882 2C7.43529 2 2 7.43529 2 14C2 20.5529 7.44706 26 14 26ZM12.6824 19.7529C12.2824 19.7529 11.9529 19.5882 11.6471 19.1765L8.69412 15.5529C8.51765 15.3176 8.41177 15.0588 8.41177 14.7882C8.41177 14.2588 8.82353 13.8235 9.35294 13.8235C9.69412 13.8235 9.95294 13.9294 10.2471 14.3176L12.6353 17.4L17.6588 9.32941C17.8824 8.97647 18.1882 8.78824 18.4941 8.78824C19.0118 8.78824 19.4941 9.14118 19.4941 9.69412C19.4941 9.95294 19.3412 10.2235 19.2 10.4706L13.6706 19.1765C13.4235 19.5647 13.0824 19.7529 12.6824 19.7529Z" fill="black"/>
</svg>
