<svg width="28" height="28" viewBox="0 0 28 28" fill="none" xmlns="http://www.w3.org/2000/svg">
<path d="M4.13281 17.9727C3.93359 18.1602 3.81641 18.4297 3.81641 18.7344C3.81641 19.3438 4.27344 19.8008 4.88281 19.8008C5.1875 19.8008 5.46875 19.6953 5.64453 19.4961L14 10.9648L22.3438 19.4961C22.5312 19.6953 22.8125 19.8008 23.1055 19.8008C23.7148 19.8008 24.1719 19.3438 24.1719 18.7344C24.1719 18.4297 24.0547 18.1602 23.8555 17.9727L14.7852 8.69141C14.5859 8.46875 14.293 8.33984 14 8.33984C13.6953 8.33984 13.4141 8.46875 13.2031 8.69141L4.13281 17.9727Z" fill="black"/>
</svg>
