<svg width="28" height="28" viewBox="0 0 28 28" fill="none" xmlns="http://www.w3.org/2000/svg">
<path d="M21.2305 14.5391C21.2305 14.2461 21.1133 13.9766 20.8906 13.7656L11.6094 4.67188C11.3984 4.47266 11.1406 4.36719 10.8359 4.36719C10.2383 4.36719 9.76953 4.82422 9.76953 5.43359C9.76953 5.72656 9.88672 5.99609 10.0742 6.19531L18.6055 14.5391L10.0742 22.8828C9.88672 23.082 9.76953 23.3398 9.76953 23.6445C9.76953 24.2539 10.2383 24.7109 10.8359 24.7109C11.1406 24.7109 11.3984 24.6055 11.6094 24.3945L20.8906 15.3125C21.1133 15.0898 21.2305 14.832 21.2305 14.5391Z" fill="black"/>
</svg>
