<svg width="28" height="28" viewBox="0 0 28 28" fill="none" xmlns="http://www.w3.org/2000/svg">
<path d="M14 20.7852C14.293 20.7852 14.5859 20.668 14.7852 20.4453L23.8555 11.1523C24.0547 10.9531 24.1719 10.6953 24.1719 10.4023C24.1719 9.79297 23.7148 9.32422 23.1055 9.32422C22.8125 9.32422 22.543 9.44141 22.3438 9.62891L14 18.1602L5.64453 9.62891C5.45703 9.44141 5.1875 9.32422 4.88281 9.32422C4.27344 9.32422 3.81641 9.79297 3.81641 10.4023C3.81641 10.6953 3.93359 10.9531 4.13281 11.1641L13.2031 20.4453C13.4258 20.668 13.6953 20.7852 14 20.7852Z" fill="black"/>
</svg>
