<svg width="28" height="28" viewBox="0 0 28 28" fill="none" xmlns="http://www.w3.org/2000/svg">
<path d="M6.78125 14.5391C6.78125 14.832 6.88672 15.0898 7.10938 15.3125L16.4023 24.3945C16.6016 24.6055 16.8594 24.7109 17.1641 24.7109C17.7734 24.7109 18.2422 24.2539 18.2422 23.6445C18.2422 23.3398 18.1133 23.082 17.9258 22.8828L9.39453 14.5391L17.9258 6.19531C18.1133 5.99609 18.2422 5.72656 18.2422 5.43359C18.2422 4.82422 17.7734 4.36719 17.1641 4.36719C16.8594 4.36719 16.6016 4.47266 16.4023 4.67188L7.10938 13.7656C6.88672 13.9766 6.78125 14.2461 6.78125 14.5391Z" fill="black"/>
</svg>
