<svg width="28" height="28" viewBox="0 0 28 28" fill="none" xmlns="http://www.w3.org/2000/svg">
<path d="M14 26C20.5647 26 26 20.5529 26 14C26 7.43529 20.5529 2 13.9882 2C7.43529 2 2 7.43529 2 14C2 20.5529 7.44706 26 14 26ZM14 24C8.44706 24 4.01176 19.5529 4.01176 14C4.01176 8.44706 8.43529 4 13.9882 4C19.5412 4 23.9882 8.44706 24 14C24.0118 19.5529 19.5529 24 14 24ZM13.9765 22.2118C18.5529 22.2118 22.2 18.5529 22.1882 13.9882C22.1765 9.43529 18.5294 5.77647 13.9647 5.77647C9.4 5.77647 5.77647 9.42353 5.77647 13.9882C5.77647 18.5647 9.41177 22.2118 13.9765 22.2118Z" fill="black"/>
</svg>
