<svg width="41" height="41" viewBox="0 0 41 41" fill="none" xmlns="http://www.w3.org/2000/svg">
<g id="Icon / clock.fill">
<path id="symbol" d="M20.5 38.346C11.1752 38.346 3.42413 30.5949 3.42413 21.2701C3.42413 11.9286 11.1585 4.19421 20.4833 4.19421C29.8248 4.19421 37.5759 11.9286 37.5759 21.2701C37.5759 30.5949 29.8415 38.346 20.5 38.346ZM11.7444 23.0781H20.4833C21.1362 23.0781 21.6552 22.5759 21.6552 21.9063V10.6228C21.6552 9.96988 21.1362 9.46765 20.4833 9.46765C19.8304 9.46765 19.3282 9.96988 19.3282 10.6228V20.7511H11.7444C11.0748 20.7511 10.5726 21.2534 10.5726 21.9063C10.5726 22.5759 11.0748 23.0781 11.7444 23.0781Z" fill="white"/>
</g>
</svg>
