<svg width="28" height="29" viewBox="0 0 28 29" fill="none" xmlns="http://www.w3.org/2000/svg">
<path d="M14 25.5557C8.28857 25.5557 3.54102 20.8081 3.54102 15.0967C3.54102 9.375 8.27832 4.6377 13.9897 4.6377C19.7114 4.6377 24.459 9.375 24.459 15.0967C24.459 20.8081 19.7217 25.5557 14 25.5557ZM14 23.8125C18.8398 23.8125 22.7158 19.9365 22.7158 15.0967C22.7158 10.2568 18.8296 6.38086 13.9897 6.38086C9.1499 6.38086 5.29443 10.2568 5.29443 15.0967C5.29443 19.9365 9.16016 23.8125 14 23.8125ZM8.63721 16.2041C8.22705 16.2041 7.91943 15.8965 7.91943 15.4863C7.91943 15.0864 8.22705 14.7788 8.63721 14.7788H13.2822V8.5752C13.2822 8.17529 13.5898 7.86768 13.9897 7.86768C14.3896 7.86768 14.7075 8.17529 14.7075 8.5752V15.4863C14.7075 15.8965 14.3896 16.2041 13.9897 16.2041H8.63721Z" fill="white"/>
</svg>
