<svg width="28" height="28" viewBox="0 0 28 28" fill="none" xmlns="http://www.w3.org/2000/svg">
<path d="M4.75098 23.4287H23.249C25.5049 23.4287 26.6221 22.3223 26.6221 20.1094V8.41113C26.6221 6.19824 25.5049 5.08105 23.249 5.08105H4.75098C2.50586 5.08105 1.37793 6.19824 1.37793 8.41113V20.1094C1.37793 22.3223 2.50586 23.4287 4.75098 23.4287ZM3.10742 8.50781C3.10742 7.39062 3.69824 6.81055 4.77246 6.81055H23.2275C24.2803 6.81055 24.8926 7.39062 24.8926 8.50781V9.35645H3.10742V8.50781ZM4.77246 21.6992C3.69824 21.6992 3.10742 21.1299 3.10742 20.0127V11.7949H24.8926V20.0127C24.8926 21.1299 24.2803 21.6992 23.2275 21.6992H4.77246ZM6.20117 19.6689H8.83301C9.4668 19.6689 9.88574 19.2393 9.88574 18.6377V16.6504C9.88574 16.0381 9.4668 15.6191 8.83301 15.6191H6.20117C5.56738 15.6191 5.14844 16.0381 5.14844 16.6504V18.6377C5.14844 19.2393 5.56738 19.6689 6.20117 19.6689Z" fill="black"/>
</svg>
