<svg width="28" height="28" viewBox="0 0 28 28" fill="none" xmlns="http://www.w3.org/2000/svg">
<path d="M3.5 12.4893H3.55127L5.54053 20.5591C5.93018 22.1689 6.78125 22.979 8.47314 22.979H19.5166C21.2188 22.979 22.0596 22.1689 22.4595 20.5591L24.4385 12.4893C24.459 12.4893 24.4692 12.4893 24.4897 12.4893C25.9458 12.4893 27.1455 11.2998 27.1455 9.82324C27.1455 8.36719 25.9561 7.17773 24.4897 7.17773C23.0337 7.17773 21.8442 8.37744 21.8442 9.82324C21.8442 10.1514 21.8955 10.4692 22.0083 10.7563L19.4756 12.3149C19.1064 12.5508 18.9014 12.479 18.6963 12.2021L15.4355 7.80322C16.1636 7.33154 16.6455 6.50098 16.6455 5.56787C16.6455 4.12207 15.4561 2.92236 14 2.92236C12.5234 2.92236 11.3442 4.11182 11.3442 5.56787C11.3442 6.51123 11.8364 7.33154 12.5747 7.80322L9.2627 12.2432C9.07812 12.5098 8.8833 12.561 8.53467 12.3457L5.98145 10.7769C6.08398 10.4795 6.14551 10.1616 6.14551 9.82324C6.14551 8.37744 4.95605 7.17773 3.5 7.17773C2.03369 7.17773 0.844238 8.36719 0.844238 9.82324C0.844238 11.2998 2.04395 12.4893 3.5 12.4893ZM14 6.62402C13.4258 6.62402 12.9438 6.14209 12.9438 5.56787C12.9438 4.9834 13.4258 4.52197 14 4.52197C14.564 4.52197 15.0459 5.00391 15.0459 5.56787C15.0459 6.14209 14.5845 6.62402 14 6.62402ZM7.9707 13.812C8.62695 14.2119 9.71387 14.2324 10.3906 13.3198L14 8.46973L17.6196 13.3301C18.2759 14.2119 19.3525 14.2119 19.9473 13.8428L22.9517 11.9971H22.9619L21.5469 17.7803H6.44287L5.03809 12.0176L7.9707 13.812ZM3.5 10.8896C2.92578 10.8896 2.44385 10.4077 2.44385 9.82324C2.44385 9.23877 2.92578 8.77734 3.5 8.77734C4.06396 8.77734 4.5459 9.25928 4.5459 9.82324C4.5459 10.4077 4.08447 10.8896 3.5 10.8896ZM24.4897 10.8896C23.9053 10.8896 23.4438 10.4077 23.4438 9.82324C23.4438 9.25928 23.9258 8.77734 24.4897 8.77734C25.064 8.77734 25.5459 9.23877 25.5459 9.82324C25.5459 10.4077 25.064 10.8896 24.4897 10.8896ZM8.46289 21.4307C7.69385 21.4307 7.25293 21.0923 7.07861 20.3643L6.82227 19.3286H21.1675L20.9214 20.3643C20.7471 21.0923 20.3062 21.4307 19.5371 21.4307H8.46289Z" fill="black"/>
</svg>
