<svg width="28" height="28" viewBox="0 0 28 28" fill="none" xmlns="http://www.w3.org/2000/svg">
<path d="M4.96582 22.3975C4.96582 24.6426 6.07227 25.7598 8.2959 25.7598H19.7041C21.9277 25.7598 23.0342 24.6426 23.0342 22.3975V6.10156C23.0342 3.86719 21.9277 2.72852 19.7041 2.72852H8.2959C6.07227 2.72852 4.96582 3.86719 4.96582 6.10156V22.3975ZM6.69531 22.3652V6.13379C6.69531 5.05957 7.26465 4.45801 8.38184 4.45801H19.6182C20.7354 4.45801 21.3047 5.05957 21.3047 6.13379V22.3652C21.3047 23.4395 20.7354 24.0303 19.6182 24.0303H8.38184C7.26465 24.0303 6.69531 23.4395 6.69531 22.3652ZM9.92871 8.94824H18.082C18.458 8.94824 18.7373 8.6582 18.7373 8.28223C18.7373 7.91699 18.458 7.62695 18.082 7.62695H9.92871C9.54199 7.62695 9.2627 7.91699 9.2627 8.28223C9.2627 8.6582 9.54199 8.94824 9.92871 8.94824ZM9.92871 12.6973H18.082C18.458 12.6973 18.7373 12.4072 18.7373 12.0312C18.7373 11.666 18.458 11.376 18.082 11.376H9.92871C9.54199 11.376 9.2627 11.666 9.2627 12.0312C9.2627 12.4072 9.54199 12.6973 9.92871 12.6973ZM9.92871 16.4463H13.7852C14.1719 16.4463 14.4512 16.167 14.4512 15.8018C14.4512 15.415 14.1719 15.125 13.7852 15.125H9.92871C9.54199 15.125 9.2627 15.415 9.2627 15.8018C9.2627 16.167 9.54199 16.4463 9.92871 16.4463Z" fill="black"/>
</svg>
