<svg width="28" height="28" viewBox="0 0 28 28" fill="none" xmlns="http://www.w3.org/2000/svg">
<path d="M8.2959 25.7598H19.7041C21.9277 25.7598 23.0342 24.6318 23.0342 22.3975V12.6436C23.0342 11.2578 22.873 10.6562 22.0137 9.77539L16.0947 3.74902C15.2783 2.91113 14.6016 2.72852 13.3984 2.72852H8.2959C6.08301 2.72852 4.96582 3.86719 4.96582 6.10156V22.3975C4.96582 24.6426 6.07227 25.7598 8.2959 25.7598ZM8.37109 24.0303C7.26465 24.0303 6.69531 23.4395 6.69531 22.3652V6.13379C6.69531 5.07031 7.26465 4.45801 8.38184 4.45801H13.1621V10.6992C13.1621 12.0527 13.8389 12.7188 15.1816 12.7188H21.3047V22.3652C21.3047 23.4395 20.7354 24.0303 19.6182 24.0303H8.37109ZM15.375 11.0967C14.9453 11.0967 14.7842 10.9248 14.7842 10.4951V4.79102L20.9717 11.0967H15.375Z" fill="black"/>
</svg>
