<svg width="40" height="40" viewBox="0 0 40 40" fill="none" xmlns="http://www.w3.org/2000/svg">
<g id="Icon / door.left.hand.open">
<path id="symbol" d="M8.83789 35.2225V8.29869C8.83789 6.51158 10.0684 5.31041 11.8994 5.31041H28.1006C29.9463 5.31041 31.1621 6.51158 31.1621 8.29869V35.2225C31.1621 35.867 30.6348 36.3944 29.9902 36.3944C29.3311 36.3944 28.8037 35.867 28.8037 35.2225V8.44517C28.8037 7.97642 28.4961 7.6688 28.0566 7.6688H11.9434C11.5039 7.6688 11.1963 7.97642 11.1963 8.44517V35.2225C11.1963 35.867 10.6689 36.3944 10.0098 36.3944C9.36523 36.3944 8.83789 35.867 8.83789 35.2225ZM12.9102 35.5594V9.69029C12.9102 9.39732 13.1445 9.25084 13.4229 9.36802L18.0371 11.4188C18.3887 11.5653 18.5352 11.6971 18.5352 12.0633V33.1717C18.5352 33.5526 18.3887 33.6698 18.0225 33.8309L13.4229 35.867C13.1445 35.9842 12.9102 35.8377 12.9102 35.5594Z" fill="white"/>
</g>
</svg>
