<svg width="28" height="28" viewBox="0 0 28 28" fill="none" xmlns="http://www.w3.org/2000/svg">
<path d="M27.9863 14.2549C27.9863 10.6563 26.6328 7.35841 24.291 4.90919C23.9043 4.50099 23.3779 4.54396 23.0771 4.87697C22.7656 5.22072 22.8301 5.70412 23.1953 6.09083C25.2471 8.23927 26.375 11.1182 26.375 14.2549C26.375 17.3916 25.2471 20.2705 23.1953 22.419C22.8301 22.7949 22.7656 23.2891 23.0771 23.6221C23.3779 23.9658 23.9043 24.0088 24.291 23.6006C26.6328 21.1514 27.9863 17.8535 27.9863 14.2549ZM0.00292969 14.2549C0.00292969 17.8535 1.35645 21.1514 3.69824 23.6006C4.08496 24.0088 4.61133 23.9658 4.91211 23.6221C5.22363 23.2891 5.15918 22.7949 4.79395 22.419C2.73145 20.2705 1.61426 17.3916 1.61426 14.2549C1.61426 11.1182 2.73145 8.23927 4.79395 6.09083C5.15918 5.70412 5.22363 5.22072 4.91211 4.87697C4.61133 4.54396 4.08496 4.50099 3.69824 4.90919C1.35645 7.35841 0.00292969 10.6563 0.00292969 14.2549ZM3.84863 14.2549C3.84863 16.8008 4.76172 19.1748 6.40527 20.9473C6.78125 21.3662 7.3291 21.377 7.65137 21.001C7.96289 20.6465 7.87695 20.1846 7.51172 19.7871C6.17969 18.294 5.44922 16.3604 5.44922 14.2549C5.44922 12.1494 6.17969 10.2158 7.51172 8.72267C7.87695 8.32521 7.96289 7.8633 7.65137 7.49806C7.3291 7.13283 6.78125 7.13283 6.40527 7.55177C4.76172 9.33498 3.84863 11.6983 3.84863 14.2549ZM24.1406 14.2549C24.1406 11.6983 23.2275 9.33498 21.584 7.55177C21.208 7.13283 20.6602 7.13283 20.3379 7.49806C20.0156 7.8633 20.1123 8.32521 20.4668 8.72267C21.8096 10.2158 22.54 12.1494 22.54 14.2549C22.54 16.3604 21.8096 18.294 20.4668 19.7871C20.1123 20.1846 20.0156 20.6465 20.3379 21.001C20.6602 21.377 21.208 21.3662 21.584 20.9473C23.2275 19.1748 24.1406 16.8008 24.1406 14.2549ZM7.68359 14.2549C7.68359 15.6944 8.17773 17.0479 9.03711 18.1113C9.3916 18.5625 9.98242 18.5625 10.3047 18.1973C10.627 17.832 10.4873 17.4024 10.1758 16.9619C9.5957 16.2315 9.29492 15.2861 9.29492 14.2549C9.29492 13.2236 9.5957 12.2783 10.1758 11.5371C10.4873 11.1074 10.627 10.6777 10.3047 10.3125C9.98242 9.94728 9.3916 9.94728 9.03711 10.3877C8.17773 11.4512 7.68359 12.8047 7.68359 14.2549ZM20.3057 14.2549C20.3057 12.8047 19.8115 11.4512 18.9521 10.3877C18.5977 9.94728 18.0068 9.94728 17.6846 10.3125C17.3623 10.6777 17.4912 11.1074 17.8135 11.5371C18.3936 12.2783 18.6943 13.2236 18.6943 14.2549C18.6943 15.2861 18.3936 16.2315 17.8135 16.9619C17.4912 17.4024 17.3623 17.832 17.6846 18.1973C18.0068 18.5625 18.5977 18.5625 18.9521 18.1113C19.8115 17.0479 20.3057 15.6944 20.3057 14.2549ZM12.0342 14.2764C12.0342 15.3184 12.9473 16.1992 14.0107 16.1992C15.0742 16.1992 15.9443 15.3184 15.9443 14.2549C15.9443 13.1807 15.085 12.2998 14.0107 12.2998C12.9258 12.2998 12.0342 13.2022 12.0342 14.2764Z" fill="black"/>
<path d="M27.9863 14.2549C27.9863 10.6563 26.6328 7.35841 24.291 4.90919C23.9043 4.50099 23.3779 4.54396 23.0771 4.87697C22.7656 5.22072 22.8301 5.70412 23.1953 6.09083C25.2471 8.23927 26.375 11.1182 26.375 14.2549C26.375 17.3916 25.2471 20.2705 23.1953 22.419C22.8301 22.7949 22.7656 23.2891 23.0771 23.6221C23.3779 23.9658 23.9043 24.0088 24.291 23.6006C26.6328 21.1514 27.9863 17.8535 27.9863 14.2549ZM0.00292969 14.2549C0.00292969 17.8535 1.35645 21.1514 3.69824 23.6006C4.08496 24.0088 4.61133 23.9658 4.91211 23.6221C5.22363 23.2891 5.15918 22.7949 4.79395 22.419C2.73145 20.2705 1.61426 17.3916 1.61426 14.2549C1.61426 11.1182 2.73145 8.23927 4.79395 6.09083C5.15918 5.70412 5.22363 5.22072 4.91211 4.87697C4.61133 4.54396 4.08496 4.50099 3.69824 4.90919C1.35645 7.35841 0.00292969 10.6563 0.00292969 14.2549ZM3.84863 14.2549C3.84863 16.8008 4.76172 19.1748 6.40527 20.9473C6.78125 21.3662 7.3291 21.377 7.65137 21.001C7.96289 20.6465 7.87695 20.1846 7.51172 19.7871C6.17969 18.294 5.44922 16.3604 5.44922 14.2549C5.44922 12.1494 6.17969 10.2158 7.51172 8.72267C7.87695 8.32521 7.96289 7.8633 7.65137 7.49806C7.3291 7.13283 6.78125 7.13283 6.40527 7.55177C4.76172 9.33498 3.84863 11.6983 3.84863 14.2549ZM24.1406 14.2549C24.1406 11.6983 23.2275 9.33498 21.584 7.55177C21.208 7.13283 20.6602 7.13283 20.3379 7.49806C20.0156 7.8633 20.1123 8.32521 20.4668 8.72267C21.8096 10.2158 22.54 12.1494 22.54 14.2549C22.54 16.3604 21.8096 18.294 20.4668 19.7871C20.1123 20.1846 20.0156 20.6465 20.3379 21.001C20.6602 21.377 21.208 21.3662 21.584 20.9473C23.2275 19.1748 24.1406 16.8008 24.1406 14.2549ZM7.68359 14.2549C7.68359 15.6944 8.17773 17.0479 9.03711 18.1113C9.3916 18.5625 9.98242 18.5625 10.3047 18.1973C10.627 17.832 10.4873 17.4024 10.1758 16.9619C9.5957 16.2315 9.29492 15.2861 9.29492 14.2549C9.29492 13.2236 9.5957 12.2783 10.1758 11.5371C10.4873 11.1074 10.627 10.6777 10.3047 10.3125C9.98242 9.94728 9.3916 9.94728 9.03711 10.3877C8.17773 11.4512 7.68359 12.8047 7.68359 14.2549ZM20.3057 14.2549C20.3057 12.8047 19.8115 11.4512 18.9521 10.3877C18.5977 9.94728 18.0068 9.94728 17.6846 10.3125C17.3623 10.6777 17.4912 11.1074 17.8135 11.5371C18.3936 12.2783 18.6943 13.2236 18.6943 14.2549C18.6943 15.2861 18.3936 16.2315 17.8135 16.9619C17.4912 17.4024 17.3623 17.832 17.6846 18.1973C18.0068 18.5625 18.5977 18.5625 18.9521 18.1113C19.8115 17.0479 20.3057 15.6944 20.3057 14.2549ZM12.0342 14.2764C12.0342 15.3184 12.9473 16.1992 14.0107 16.1992C15.0742 16.1992 15.9443 15.3184 15.9443 14.2549C15.9443 13.1807 15.085 12.2998 14.0107 12.2998C12.9258 12.2998 12.0342 13.2022 12.0342 14.2764Z" fill="black"/>
</svg>
