<svg width="28" height="28" viewBox="0 0 28 28" fill="none" xmlns="http://www.w3.org/2000/svg">
<path d="M14 26C20.5647 26 26 20.5529 26 14C26 7.43529 20.5529 2 13.9882 2C7.43529 2 2 7.43529 2 14C2 20.5529 7.44706 26 14 26ZM14 24C8.44706 24 4.01176 19.5529 4.01176 14C4.01176 8.44706 8.43529 4 13.9882 4C19.5412 4 24 8.44706 24 14C24 19.5529 19.5529 24 14 24ZM8.50588 15.7059C9.44706 15.7059 10.2118 14.9412 10.2118 13.9882C10.2118 13.0471 9.43529 12.2824 8.50588 12.2824C7.55294 12.2824 6.78824 13.0471 6.78824 13.9882C6.78824 14.9412 7.55294 15.7059 8.50588 15.7059ZM13.9882 15.7059C14.9294 15.7059 15.7059 14.9412 15.7059 13.9882C15.7059 13.0471 14.9294 12.2824 13.9882 12.2824C13.0471 12.2824 12.2706 13.0471 12.2706 13.9882C12.2706 14.9412 13.0471 15.7059 13.9882 15.7059ZM19.4824 15.7059C20.4235 15.7059 21.1882 14.9412 21.1882 13.9882C21.1882 13.0471 20.4235 12.2824 19.4824 12.2824C18.5294 12.2824 17.7647 13.0471 17.7647 13.9882C17.7647 14.9412 18.5294 15.7059 19.4824 15.7059Z" fill="black"/>
</svg>
