<svg width="28" height="28" viewBox="0 0 28 28" fill="none" xmlns="http://www.w3.org/2000/svg">
<path d="M8.27359 14.0009C8.27359 12.8238 7.31919 11.88 6.12089 11.88C4.9544 11.88 4 12.8238 4 14.0009C4 15.178 4.9544 16.1218 6.12089 16.1218C7.31919 16.1218 8.27359 15.178 8.27359 14.0009ZM16.1209 14.0009C16.1209 12.8238 15.1771 11.88 14 11.88C12.8335 11.88 11.8897 12.8238 11.8897 14.0009C11.8897 15.178 12.8335 16.1218 14 16.1218C15.1771 16.1218 16.1209 15.178 16.1209 14.0009ZM24 14.0009C24 12.8238 23.0562 11.88 21.8791 11.88C20.6808 11.88 19.737 12.8238 19.737 14.0009C19.737 15.178 20.6808 16.1218 21.8791 16.1218C23.0562 16.1218 24 15.178 24 14.0009Z" fill="black"/>
</svg>
