<svg width="28" height="28" viewBox="0 0 28 28" fill="none" xmlns="http://www.w3.org/2000/svg">
<path d="M5.51367 23.5146H22.8086C24.7422 23.5146 25.8594 22.3975 25.8594 20.1846V8.3252C25.8594 6.12305 24.7314 5.00586 22.4863 5.00586H5.19141C3.25781 5.00586 2.14062 6.1123 2.14062 8.3252V20.1846C2.14062 22.4082 3.26855 23.5146 5.51367 23.5146ZM12.7217 14.8027L4.61133 6.7998C4.84766 6.70312 5.12695 6.64941 5.44922 6.64941H22.5508C22.8838 6.64941 23.1738 6.70312 23.4102 6.81055L15.3213 14.8027C14.8594 15.2646 14.4404 15.4688 14.0215 15.4688C13.5918 15.4688 13.1729 15.2539 12.7217 14.8027ZM3.78418 20.1846V8.3252C3.78418 8.23926 3.78418 8.28223 3.78418 8.20703L9.96094 14.2764L3.79492 20.3672C3.78418 20.3135 3.78418 20.249 3.78418 20.1846ZM24.2158 8.33594V20.1953C24.2158 20.2383 24.2158 20.292 24.2158 20.335L18.082 14.2764L24.2158 8.23926C24.2158 8.33594 24.2158 8.33594 24.2158 8.33594ZM5.44922 21.8711C5.14844 21.8711 4.89062 21.8281 4.66504 21.7314L11.0889 15.3828L11.7871 16.0703C12.5391 16.8115 13.2588 17.123 14.0215 17.123C14.7734 17.123 15.5039 16.8115 16.2559 16.0703L16.9541 15.3828L23.3672 21.7207C23.1309 21.8281 22.8623 21.8711 22.5508 21.8711H5.44922Z" fill="black"/>
</svg>
