<svg width="18" height="18" viewBox="0 0 18 18" fill="none" xmlns="http://www.w3.org/2000/svg">
<path d="M3.16162 16.4657C1.88093 16.4657 1.10498 15.5767 1.10498 14.4241C1.10498 14.07 1.19538 13.7084 1.39879 13.3694L7.24477 3.18416C7.62898 2.49861 8.30699 2.15207 9.00007 2.15207C9.69315 2.15207 10.3636 2.49861 10.7554 3.18416L16.6014 13.3694C16.7897 13.7009 16.8952 14.07 16.8952 14.4241C16.8952 15.5767 16.1192 16.4657 14.8385 16.4657H3.16162ZM9.0076 11.4333C9.37674 11.4333 9.59521 11.2148 9.60275 10.808L9.71575 6.71736C9.72328 6.31808 9.40688 6.02428 9.00007 6.02428C8.57819 6.02428 8.28439 6.31055 8.29192 6.70983L8.38986 10.808C8.39739 11.2073 8.61586 11.4333 9.0076 11.4333ZM9.0076 13.957C9.45208 13.957 9.84382 13.603 9.84382 13.151C9.84382 12.6914 9.45961 12.3373 9.0076 12.3373C8.54806 12.3373 8.16385 12.6989 8.16385 13.151C8.16385 13.5954 8.55559 13.957 9.0076 13.957Z" fill="#FFD600"/>
</svg>
