<svg width="28" height="28" viewBox="0 0 28 28" fill="none" xmlns="http://www.w3.org/2000/svg">
<path d="M13.9883 26.3516C20.1992 26.3516 25.3438 21.207 25.3438 14.9961C25.3438 8.78516 20.1875 3.64062 13.9766 3.64062C7.77734 3.64062 2.63281 8.78516 2.63281 14.9961C2.63281 21.207 7.77734 26.3516 13.9883 26.3516ZM13.9883 17.0117C13.3906 17.0117 13.0625 16.6719 13.0391 16.0625L12.8984 10.1797C12.875 9.55859 13.332 9.11328 13.9766 9.11328C14.6211 9.11328 15.1016 9.57031 15.0781 10.1914L14.9258 16.0625C14.9023 16.6836 14.5742 17.0117 13.9883 17.0117ZM13.9883 20.7617C13.3086 20.7617 12.7109 20.2227 12.7109 19.543C12.7109 18.8633 13.2969 18.3242 13.9883 18.3242C14.6914 18.3242 15.2656 18.8633 15.2656 19.543C15.2656 20.2344 14.6797 20.7617 13.9883 20.7617Z" fill="black"/>
</svg>
