<svg width="28" height="28" viewBox="0 0 28 28" fill="none" xmlns="http://www.w3.org/2000/svg">
<path d="M14 25.2012C8.0166 25.2012 3.04297 20.2275 3.04297 14.2441C3.04297 8.25 8.00586 3.28711 13.9893 3.28711C19.9834 3.28711 24.957 8.25 24.957 14.2441C24.957 20.2275 19.9941 25.2012 14 25.2012ZM14 23.375C19.0703 23.375 23.1309 19.3145 23.1309 14.2441C23.1309 9.17383 19.0596 5.11328 13.9893 5.11328C8.91895 5.11328 4.87988 9.17383 4.87988 14.2441C4.87988 19.3145 8.92969 23.375 14 23.375ZM13.9893 16.1777C13.4521 16.1777 13.1514 15.877 13.1406 15.3291L13.001 9.64648C12.9902 9.09863 13.3984 8.70117 13.9785 8.70117C14.5479 8.70117 14.9775 9.10938 14.9668 9.65723L14.8057 15.3291C14.7949 15.8877 14.4941 16.1777 13.9893 16.1777ZM13.9893 19.6689C13.3662 19.6689 12.8291 19.1641 12.8291 18.5518C12.8291 17.9395 13.3555 17.4346 13.9893 17.4346C14.6123 17.4346 15.1387 17.9287 15.1387 18.5518C15.1387 19.1748 14.6016 19.6689 13.9893 19.6689Z" fill="black"/>
</svg>
