<svg width="28" height="28" viewBox="0 0 28 28" fill="none" xmlns="http://www.w3.org/2000/svg">
<path d="M4.97656 25.6133H23.0117C25.0039 25.6133 26.2461 24.1836 26.2461 22.3789C26.2461 21.8398 26.1055 21.2891 25.8125 20.7852L16.7773 5.04688C16.168 3.98047 15.0898 3.40625 14 3.40625C12.8984 3.40625 11.8203 3.98047 11.2109 5.04688L2.17578 20.7969C1.88281 21.3008 1.74219 21.8398 1.74219 22.3789C1.74219 24.1836 2.98438 25.6133 4.97656 25.6133ZM4.98828 23.7734C4.17969 23.7734 3.64062 23.1055 3.64062 22.3789C3.64062 22.168 3.67578 21.9219 3.79297 21.6758L12.8164 5.9375C13.0742 5.49219 13.543 5.28125 14 5.28125C14.457 5.28125 14.9023 5.48047 15.1602 5.9375L24.1719 21.6875C24.3008 21.9219 24.3594 22.168 24.3594 22.3789C24.3594 23.1055 23.7969 23.7734 22.9883 23.7734H4.98828ZM14 17.7148C14.5625 17.7148 14.8789 17.3867 14.8906 16.7773L15.0664 10.6016C15.0781 10.0039 14.6094 9.55859 13.9883 9.55859C13.3555 9.55859 12.9102 9.99219 12.9219 10.5898L13.0742 16.7773C13.0859 17.375 13.4141 17.7148 14 17.7148ZM14 21.5234C14.668 21.5234 15.2656 20.9844 15.2656 20.3047C15.2656 19.6133 14.6797 19.0859 14 19.0859C13.3086 19.0859 12.7344 19.625 12.7344 20.3047C12.7344 20.9727 13.3203 21.5234 14 21.5234Z" fill="black"/>
</svg>
