<svg width="28" height="28" viewBox="0 0 28 28" fill="none" xmlns="http://www.w3.org/2000/svg">
<path d="M14 21.1953C6.98633 21.1953 1.98535 15.4561 1.98535 13.6631C1.98535 11.8613 6.99512 6.13086 14 6.13086C21.0928 6.13086 26.0059 11.8613 26.0059 13.6631C26.0059 15.4561 21.1016 21.1953 14 21.1953ZM14 19.8066C19.7656 19.8066 24.4678 14.9023 24.4678 13.6631C24.4678 12.6172 19.7656 7.51953 14 7.51953C8.20801 7.51953 3.52344 12.6172 3.52344 13.6631C3.52344 14.9023 8.20801 19.8066 14 19.8066ZM14 18.585C11.249 18.585 9.06934 16.3438 9.05176 13.6631C9.04297 10.9121 11.249 8.74121 14 8.74121C16.7334 8.74121 18.9307 10.9121 18.9307 13.6631C18.9307 16.3438 16.7334 18.585 14 18.585ZM14 15.2979C14.9053 15.2979 15.6436 14.5596 15.6436 13.6631C15.6436 12.7578 14.9053 12.0283 14 12.0283C13.0859 12.0283 12.3477 12.7578 12.3477 13.6631C12.3477 14.5596 13.0859 15.2979 14 15.2979Z" fill="black"/>
</svg>
