<svg width="28" height="28" viewBox="0 0 28 28" fill="none" xmlns="http://www.w3.org/2000/svg">
<path d="M20.8525 21.8423C21.1162 22.1147 21.5381 22.1323 21.8105 21.8423C22.1006 21.5522 22.0742 21.1567 21.8105 20.8843L7.11523 6.19775C6.85156 5.93408 6.4209 5.93408 6.14844 6.19775C5.89355 6.45264 5.89355 6.90088 6.14844 7.15576L20.8525 21.8423ZM14.0146 6.69873C12.4854 6.69873 11.0967 6.9624 9.80469 7.39307L10.9648 8.54443C11.9316 8.25439 12.9248 8.0874 14.0146 8.0874C19.7979 8.0874 24.4824 13.1851 24.4824 14.231C24.4824 14.9429 22.9443 16.8589 20.5098 18.353L21.5908 19.4341C24.3682 17.6323 26.0205 15.2681 26.0205 14.231C26.0205 12.4292 21.1162 6.69873 14.0146 6.69873ZM14.0146 21.7632C15.6494 21.7632 17.1436 21.4731 18.5059 21.0073L17.3545 19.856C16.3086 20.1812 15.2012 20.3745 14.0146 20.3745C8.22266 20.3745 3.53809 15.4702 3.53809 14.231C3.53809 13.6157 5.16406 11.5679 7.75684 10.0122L6.66699 8.92236C3.74023 10.7329 2 13.1675 2 14.231C2 16.0239 7.00098 21.7632 14.0146 21.7632ZM18.5234 16.1558C18.7959 15.5669 18.9453 14.9077 18.9453 14.231C18.9453 11.48 16.748 9.30908 14.0146 9.30908C13.3203 9.30908 12.6699 9.4585 12.0811 9.71338L18.5234 16.1558ZM14.0146 19.1528C14.7881 19.1528 15.5176 18.9595 16.168 18.6431L9.57617 12.0513C9.25098 12.7017 9.06641 13.4399 9.06641 14.231C9.0752 16.9116 11.2637 19.1528 14.0146 19.1528Z" fill="black"/>
</svg>
