<svg width="28" height="28" viewBox="0 0 28 28" fill="none" xmlns="http://www.w3.org/2000/svg">
<path d="M20.1406 14.9609L20.4688 14.5977C21.043 14 21.0781 13.2969 20.457 12.6875L20.1055 12.3477C21.8984 10.7422 23.8906 10.5195 25.1211 9.26563C26.8672 7.50782 26.3047 5.04688 25.0742 3.81641C23.8555 2.57422 21.418 2.04688 19.625 3.76954C18.3594 4.98829 18.1484 6.99219 16.543 8.78516L16.2031 8.4336C15.6055 7.82422 14.8906 7.84766 14.293 8.42188L13.9414 8.75C13.2148 9.44141 13.3555 10.0508 13.9648 10.6719L14.4688 11.1641L5.60938 20.0234C1.98828 23.6445 3.73438 23.082 1.76562 25.8594L2.82031 26.9727C5.50391 25.0156 5.14062 26.9375 8.82031 23.2695L17.7148 14.4219L18.2188 14.9258C18.8398 15.5469 19.4609 15.6758 20.1406 14.9609ZM10.8711 18.0664C10.4492 17.5977 10.543 17.1641 11 16.6953L15.4766 12.1719L16.7422 13.4492L12.2305 17.9609C11.8203 18.3711 11.2812 18.5 10.8711 18.0664Z" fill="black"/>
</svg>
