<svg width="28" height="28" viewBox="0 0 28 28" fill="none" xmlns="http://www.w3.org/2000/svg">
<path d="M6.72266 25.2266C10.2852 25.2266 13.1328 20.8906 13.1328 14.5391C13.1328 8.17578 10.2852 3.86328 6.72266 3.86328C3.14844 3.86328 0.300781 8.17578 0.300781 14.5391C0.300781 20.8906 3.14844 25.2266 6.72266 25.2266ZM21.2773 25.2266C24.8516 25.2266 27.6992 20.8906 27.6992 14.5391C27.6992 8.17578 24.8516 3.86328 21.2773 3.86328C17.7148 3.86328 14.8672 8.17578 14.8672 14.5391C14.8672 20.8906 17.7148 25.2266 21.2773 25.2266ZM4.19141 18.6758C6.14844 18.6758 7.44922 17.3164 7.44922 15.2539C7.44922 13.2266 6.14844 11.8555 4.19141 11.8555C3.34766 11.8555 2.63281 12.1016 2.09375 12.5469C2.55078 8.31641 4.48438 5.53906 6.72266 5.51562C9.3125 5.50391 11.4805 9.17188 11.4805 14.5391C11.4805 19.8711 9.3125 23.5508 6.72266 23.5742C4.78906 23.5742 3.07812 21.5 2.35156 18.1719C2.85547 18.5 3.47656 18.6758 4.19141 18.6758ZM18.7344 18.6758C20.6914 18.6758 22.0156 17.3164 22.0156 15.2539C22.0156 13.2266 20.6914 11.8555 18.7344 11.8555C17.9023 11.8555 17.1758 12.1016 16.625 12.5469C17.0938 8.31641 19.0273 5.53906 21.2773 5.52734C23.8438 5.52734 26.0234 9.19531 26.0234 14.5391C26.0234 19.8828 23.8438 23.5508 21.2773 23.5625C19.332 23.5625 17.6211 21.4766 16.8945 18.1719C17.3984 18.4883 18.0312 18.6758 18.7344 18.6758ZM3.26562 14.8555C2.84375 14.7969 2.58594 14.293 2.67969 13.7773C2.78516 13.2734 3.18359 12.8984 3.58203 12.9805C4.00391 13.0625 4.26172 13.543 4.15625 14.0469C4.0625 14.5625 3.67578 14.9258 3.26562 14.8555ZM17.8086 14.8555C17.3984 14.7852 17.1289 14.293 17.2344 13.7773C17.3398 13.2734 17.7266 12.8984 18.1367 12.9805C18.5586 13.0508 18.8047 13.543 18.6992 14.0469C18.6055 14.5625 18.2188 14.9258 17.8086 14.8555Z" fill="black"/>
</svg>
