<svg width="28" height="28" viewBox="0 0 28 28" fill="none" xmlns="http://www.w3.org/2000/svg">
<path d="M14 24.9141C8.0166 24.9141 3.04297 19.9404 3.04297 13.957C3.04297 7.96289 8.00586 3 13.9893 3C19.9834 3 24.957 7.96289 24.957 13.957C24.957 19.9404 19.9941 24.9141 14 24.9141ZM14 23.0879C19.0703 23.0879 23.1309 19.0273 23.1309 13.957C23.1309 8.88672 19.0596 4.82617 13.9893 4.82617C8.91895 4.82617 4.87988 8.88672 4.87988 13.957C4.87988 19.0273 8.92969 23.0879 14 23.0879ZM10.8096 13.001C10.1328 13.001 9.54199 12.3887 9.54199 11.5293C9.54199 10.6592 10.1328 10.0469 10.8096 10.0469C11.4971 10.0469 12.0879 10.6592 12.0879 11.5293C12.0879 12.3887 11.4863 13.001 10.8096 13.001ZM17.1797 13.001C16.5029 13.001 15.9121 12.3887 15.9121 11.5293C15.9121 10.6592 16.5029 10.0469 17.1797 10.0469C17.8672 10.0469 18.458 10.6592 18.458 11.5293C18.458 12.3887 17.8564 13.001 17.1797 13.001ZM13.9893 19.3389C11.7441 19.3389 10.2402 17.8457 10.2402 17.1367C10.2402 16.8789 10.4873 16.7607 10.7236 16.8682C11.4971 17.2871 12.4316 17.7812 13.9893 17.7812C15.5469 17.7812 16.4814 17.2979 17.2656 16.8682C17.4912 16.7607 17.7383 16.8789 17.7383 17.1367C17.7383 17.8457 16.2344 19.3389 13.9893 19.3389Z" fill="#646468"/>
</svg>
