<svg width="36" height="37" viewBox="0 0 36 37" fill="none" xmlns="http://www.w3.org/2000/svg">
<path fill-rule="evenodd" clip-rule="evenodd" d="M29.3976 10.1801L29.3937 10.2023C29.3565 10.4105 29.2596 10.626 29.0757 10.7997C28.8723 10.9918 28.6185 11.0762 28.372 11.0762C28.1127 11.0762 27.8668 10.9803 27.6756 10.7997C27.4917 10.626 27.3948 10.4105 27.3576 10.2023L27.3548 10.1868L27.3527 10.1712C27.3007 9.7929 27.2474 9.4748 27.1935 9.21424L27.1922 9.20787L27.1922 9.20786C27.1436 8.96262 27.0871 8.78166 27.031 8.65327L27.0295 8.65001C26.9779 8.53054 26.9231 8.45626 26.875 8.40903L26.8697 8.40389L26.8697 8.40387C26.8222 8.35632 26.7485 8.30292 26.6316 8.25322C26.5012 8.19782 26.3211 8.14321 26.0806 8.09681L26.0741 8.09555L26.0741 8.09553C25.8197 8.04419 25.5097 7.99354 25.1417 7.94419C24.9196 7.91774 24.6959 7.82412 24.5151 7.64338L24.4997 7.62796L24.4852 7.61172C24.3121 7.41831 24.223 7.17593 24.223 6.92356C24.223 6.6712 24.3121 6.42882 24.4852 6.2354L24.4927 6.22707L24.5003 6.21895C24.685 6.02406 24.9225 5.92167 25.1648 5.90038C25.6016 5.85369 25.9546 5.80039 26.2296 5.74251C26.4883 5.68618 26.6591 5.61838 26.7656 5.55666C26.7777 5.54931 26.7895 5.54167 26.8008 5.53371C26.0472 5.02787 25.2451 4.59059 24.3946 4.22186C22.6257 3.45498 20.734 3.07153 18.7197 3.07153C16.7155 3.07153 14.829 3.45498 13.06 4.22186C11.2911 4.98875 9.72662 6.05217 8.36668 7.41211C7.01696 8.76183 5.95865 10.3263 5.19177 12.1055C4.42488 13.8744 4.04144 15.761 4.04144 17.7651C4.04144 19.7794 4.42488 21.6762 5.19177 23.4554C5.4408 24.0223 5.71924 24.5676 6.02708 25.0915C6.12761 24.9962 6.21445 24.8865 6.2889 24.7604L6.29034 24.7579C6.43858 24.5089 6.5743 24.1588 6.68009 23.6846L6.68105 23.6802C6.79504 23.1826 6.90077 22.5525 6.99631 21.7843L6.99919 21.7611L7.00343 21.7382C7.05059 21.4835 7.16921 21.238 7.37655 21.0422C7.59702 20.8339 7.87788 20.7242 8.17778 20.7242C8.46816 20.7242 8.7585 20.8224 8.99119 21.0422C9.19854 21.238 9.31715 21.4835 9.36431 21.7382L9.36893 21.7631L9.37192 21.7883C9.46348 22.5566 9.56535 23.187 9.67562 23.6852C9.78113 24.158 9.9164 24.5073 10.0641 24.7561C10.201 24.9827 10.3758 25.1567 10.5946 25.2881C10.8346 25.4279 11.1749 25.5574 11.6388 25.6592C12.1262 25.761 12.738 25.8524 13.4797 25.9316C13.7711 25.9567 14.0415 26.0808 14.2505 26.3014C14.4607 26.5233 14.5753 26.8076 14.5753 27.1157C14.5753 27.4237 14.4607 27.708 14.2505 27.93C14.0422 28.1498 13.7727 28.2739 13.4823 28.2995C12.7389 28.3828 12.1251 28.4765 11.6359 28.5789C11.172 28.6768 10.8343 28.8061 10.5976 28.9476C10.379 29.0782 10.2033 29.2536 10.0652 29.4856L10.0631 29.4891C10.0502 29.5105 10.0374 29.5327 10.0247 29.5557C10.9567 30.2509 11.9684 30.8351 13.06 31.3083C14.829 32.0752 16.7206 32.4586 18.735 32.4586C20.7493 32.4586 22.641 32.0752 24.41 31.3083C26.1789 30.5414 27.7382 29.4831 29.088 28.1334C30.4479 26.7837 31.5113 25.2243 32.2782 23.4554C33.0451 21.6762 33.4285 19.7794 33.4285 17.7651C33.4285 15.761 33.04 13.8744 32.2629 12.1055C31.6644 10.7171 30.8854 9.45941 29.9258 8.33253C29.8671 8.37768 29.8174 8.43386 29.7744 8.50618L29.7722 8.50974C29.7075 8.61712 29.6363 8.79091 29.5775 9.05668L29.5772 9.05792C29.5141 9.34059 29.4545 9.70521 29.4003 10.1576L29.3976 10.1801ZM29.4004 7.74761C29.2823 7.84707 29.182 7.96604 29.0996 8.10452C28.9777 8.30683 28.8814 8.56764 28.8107 8.88694C28.7966 8.95042 28.7827 9.01692 28.7691 9.08646C28.7387 9.24261 28.7097 9.41404 28.6821 9.60077C28.6746 9.65186 28.6672 9.7041 28.6599 9.75748C28.6502 9.82793 28.6408 9.90037 28.6315 9.97481L28.6289 9.99573L28.6206 10.0642C28.6084 10.1325 28.5804 10.1873 28.5365 10.2288C28.4926 10.2702 28.4378 10.2909 28.372 10.2909C28.311 10.2909 28.2586 10.2702 28.2148 10.2288C28.1709 10.1873 28.1429 10.1325 28.1307 10.0642L28.1224 10.0046L28.1182 9.97452C28.1073 9.89787 28.0964 9.82338 28.0853 9.75105C28.0777 9.70138 28.0701 9.65273 28.0624 9.6051C28.0322 9.41754 28.0013 9.2458 27.9696 9.08988L27.9625 9.05513C27.9064 8.77238 27.8357 8.53351 27.7504 8.33851C27.6651 8.14108 27.5566 7.97777 27.425 7.84858C27.2958 7.7194 27.1337 7.61337 26.9387 7.53049C26.7533 7.45168 26.5304 7.3861 26.27 7.33374L26.2294 7.32574C26.0691 7.2934 25.8914 7.26187 25.6962 7.23115C25.6574 7.22505 25.6179 7.21897 25.5777 7.21293L25.5443 7.20792C25.4625 7.19579 25.378 7.18378 25.2907 7.1719L25.2734 7.16955L25.2386 7.16487C25.1704 7.15756 25.1143 7.13197 25.0704 7.08809C25.029 7.04178 25.0083 6.98694 25.0083 6.92356C25.0083 6.86019 25.029 6.80535 25.0704 6.75903C25.1143 6.71272 25.1704 6.68713 25.2386 6.68225L25.2909 6.67662L25.3041 6.67517C25.3734 6.66756 25.441 6.65975 25.5068 6.65174L25.5663 6.64437C25.6129 6.63853 25.6586 6.63258 25.7033 6.62652C25.9135 6.59811 26.104 6.56741 26.275 6.53442C26.3158 6.52654 26.3554 6.51854 26.394 6.51041C26.7084 6.44216 26.9656 6.34954 27.1654 6.23254C27.2744 6.16743 27.3714 6.09 27.4565 6.00026C28.025 6.42872 28.5637 6.89934 29.0726 7.41211C29.1839 7.52251 29.2931 7.63434 29.4004 7.74761ZM9.40194 29.0648C9.60364 28.7325 9.86793 28.4688 10.1948 28.2735C10.5279 28.0744 10.9545 27.92 11.4745 27.8103C11.9985 27.7007 12.6424 27.6032 13.4062 27.5178C13.5158 27.5097 13.6072 27.4671 13.6804 27.3899C13.7535 27.3127 13.7901 27.2213 13.7901 27.1157C13.7901 27.01 13.7535 26.9186 13.6804 26.8414C13.6072 26.7643 13.5158 26.7216 13.4062 26.7135C12.6424 26.6322 11.9985 26.5368 11.4745 26.4271C10.9545 26.3133 10.5279 26.159 10.1948 25.964C9.86167 25.7649 9.59354 25.4968 9.39042 25.1596C9.1873 24.8183 9.02683 24.3837 8.90902 23.8555C8.79121 23.3234 8.68559 22.6652 8.59215 21.8812C8.57184 21.7715 8.52512 21.6821 8.45199 21.6131C8.37887 21.544 8.28747 21.5095 8.17778 21.5095C8.07622 21.5095 7.98888 21.544 7.91575 21.6131C7.84263 21.6821 7.79591 21.7715 7.7756 21.8812C7.6781 22.6652 7.56841 23.3234 7.44654 23.8555C7.32873 24.3837 7.16826 24.8183 6.96514 25.1596C6.82567 25.3958 6.65329 25.5982 6.44801 25.7666C7.0094 26.6165 7.65406 27.4054 8.38202 28.1334C8.70964 28.461 9.04961 28.7715 9.40194 29.0648ZM16.0355 24.6057C16.8024 24.9738 17.7022 25.1579 18.735 25.1579C19.7575 25.1579 20.6522 24.9738 21.4191 24.6057C22.1962 24.2376 22.7995 23.8133 23.2289 23.3327C23.6584 22.8521 23.8731 22.4482 23.8731 22.121C23.8731 21.9574 23.8067 21.8449 23.6737 21.7836C23.5408 21.7222 23.4079 21.7273 23.275 21.7989C22.7433 22.1057 22.1246 22.3971 21.4191 22.6732C20.7136 22.9492 19.8189 23.0873 18.735 23.0873C17.6613 23.0873 16.7666 22.9492 16.0509 22.6732C15.3453 22.3971 14.7267 22.1057 14.195 21.7989C14.0621 21.7273 13.9241 21.7222 13.7809 21.7836C13.648 21.8449 13.5815 21.9574 13.5815 22.121C13.5815 22.4482 13.7962 22.8521 14.2257 23.3327C14.6654 23.8133 15.2687 24.2376 16.0355 24.6057ZM13.106 15.8325C13.4537 16.2109 13.8525 16.4 14.3024 16.4C14.7727 16.4 15.1766 16.2109 15.5141 15.8325C15.8617 15.4542 16.0355 14.9787 16.0355 14.4061C16.0355 13.8131 15.8617 13.3274 15.5141 12.949C15.1766 12.5707 14.7727 12.3815 14.3024 12.3815C13.8525 12.3815 13.4537 12.5707 13.106 12.949C12.7686 13.3274 12.5999 13.8131 12.5999 14.4061C12.5999 14.9787 12.7686 15.4542 13.106 15.8325ZM21.9559 15.8325C22.3036 16.2109 22.7024 16.4 23.1523 16.4C23.6124 16.4 24.0163 16.2109 24.3639 15.8325C24.7116 15.4542 24.8854 14.9787 24.8854 14.4061C24.8854 13.8131 24.7116 13.3274 24.3639 12.949C24.0265 12.5707 23.6226 12.3815 23.1523 12.3815C22.6921 12.3815 22.2882 12.5707 21.9406 12.949C21.6031 13.3274 21.4344 13.8131 21.4344 14.4061C21.4344 14.9787 21.6083 15.4542 21.9559 15.8325Z" fill="white"/>
<path d="M28.3705 10.2911C28.4363 10.2911 28.4912 10.2704 28.535 10.229C28.5789 10.1875 28.6069 10.1327 28.6191 10.0644C28.6752 9.59645 28.7386 9.20402 28.8092 8.88715C28.8799 8.56784 28.9762 8.30703 29.0981 8.10472C29.22 7.89998 29.3808 7.73788 29.5807 7.61845C29.7806 7.49901 30.0365 7.40639 30.3485 7.34058C30.6629 7.27476 31.0493 7.21626 31.5075 7.16508C31.5733 7.1602 31.6282 7.13461 31.6721 7.0883C31.7159 7.04199 31.7379 6.98714 31.7379 6.92377C31.7379 6.86039 31.7159 6.80555 31.6721 6.75924C31.6282 6.71293 31.5733 6.68733 31.5075 6.68246C31.0493 6.63371 30.6629 6.57643 30.3485 6.51062C30.0365 6.44237 29.7806 6.34974 29.5807 6.23275C29.3808 6.11331 29.22 5.95244 29.0981 5.75013C28.9762 5.54538 28.8799 5.28457 28.8092 4.9677C28.7386 4.64839 28.6752 4.25352 28.6191 3.78309C28.6069 3.71728 28.5789 3.66365 28.535 3.62221C28.4912 3.58078 28.4363 3.56006 28.3705 3.56006C28.3096 3.56006 28.2572 3.58078 28.2133 3.62221C28.1694 3.66365 28.1414 3.71728 28.1292 3.78309C28.0707 4.25352 28.0049 4.64839 27.9318 4.9677C27.8611 5.28457 27.7648 5.54538 27.6429 5.75013C27.5235 5.95244 27.3638 6.11331 27.164 6.23275C26.9641 6.34974 26.7069 6.44237 26.3925 6.51062C26.0805 6.57643 25.6954 6.63371 25.2371 6.68246C25.1689 6.68733 25.1128 6.71293 25.0689 6.75924C25.0275 6.80555 25.0068 6.86039 25.0068 6.92377C25.0068 6.98714 25.0275 7.04199 25.0689 7.0883C25.1128 7.13217 25.1689 7.15777 25.2371 7.16508C25.6198 7.21626 25.9501 7.26989 26.228 7.32595C26.5058 7.37958 26.7423 7.44782 26.9373 7.5307C27.1323 7.61357 27.2944 7.7196 27.4235 7.84879C27.5552 7.97797 27.6636 8.14128 27.7489 8.33872C27.8343 8.53372 27.9049 8.77259 27.961 9.05534C28.0195 9.33808 28.0756 9.67445 28.1292 10.0644C28.1414 10.1327 28.1694 10.1875 28.2133 10.229C28.2572 10.2704 28.3096 10.2911 28.3705 10.2911Z" fill="white"/>
<path d="M8.17761 32.7282C8.2873 32.7282 8.3787 32.6937 8.45182 32.6246C8.52495 32.5556 8.57167 32.4642 8.59198 32.3504C8.68542 31.5704 8.79104 30.9164 8.90885 30.3883C9.02666 29.8561 9.18713 29.4214 9.39025 29.0842C9.59337 28.743 9.8615 28.4728 10.1946 28.2737C10.5277 28.0747 10.9543 27.9203 11.4743 27.8106C11.9983 27.7009 12.6422 27.6034 13.406 27.5181C13.5157 27.51 13.6071 27.4674 13.6802 27.3902C13.7533 27.313 13.7899 27.2216 13.7899 27.1159C13.7899 27.0103 13.7533 26.9189 13.6802 26.8417C13.6071 26.7645 13.5157 26.7219 13.406 26.7138C12.6422 26.6325 11.9983 26.537 11.4743 26.4274C10.9543 26.3136 10.5277 26.1592 10.1946 25.9642C9.8615 25.7652 9.59337 25.4971 9.39025 25.1599C9.18713 24.8186 9.02666 24.3839 8.90885 23.8558C8.79104 23.3237 8.68542 22.6655 8.59198 21.8815C8.57167 21.7718 8.52495 21.6824 8.45182 21.6134C8.3787 21.5443 8.2873 21.5098 8.17761 21.5098C8.07605 21.5098 7.98871 21.5443 7.91558 21.6134C7.84246 21.6824 7.79574 21.7718 7.77543 21.8815C7.67793 22.6655 7.56824 23.3237 7.44637 23.8558C7.32856 24.3839 7.16809 24.8186 6.96497 25.1599C6.76591 25.4971 6.49982 25.7652 6.1667 25.9642C5.83357 26.1592 5.40499 26.3136 4.88093 26.4274C4.36094 26.537 3.71907 26.6325 2.95533 26.7138C2.84158 26.7219 2.74814 26.7645 2.67502 26.8417C2.60596 26.9189 2.57143 27.0103 2.57143 27.1159C2.57143 27.2216 2.60596 27.313 2.67502 27.3902C2.74814 27.4633 2.84158 27.5059 2.95533 27.5181C3.59313 27.6034 4.1436 27.6928 4.60671 27.7863C5.06983 27.8756 5.46389 27.9894 5.78889 28.1275C6.11388 28.2656 6.38404 28.4423 6.59935 28.6576C6.81872 28.873 6.9995 29.1451 7.14168 29.4742C7.28387 29.7992 7.40168 30.1973 7.49512 30.6686C7.59262 31.1398 7.68605 31.7004 7.77543 32.3504C7.79574 32.4642 7.84246 32.5556 7.91558 32.6246C7.98871 32.6937 8.07605 32.7282 8.17761 32.7282Z" fill="white"/>
</svg>
