<svg width="28" height="28" viewBox="0 0 28 28" fill="none" xmlns="http://www.w3.org/2000/svg">
<path d="M3.51562 24.1592H24.4844C25.8164 24.1592 26.665 23.3105 26.665 22.0107V6.50977C26.665 5.2207 25.8164 4.37207 24.4844 4.37207H3.51562C2.19434 4.37207 1.33496 5.2207 1.33496 6.50977V22.0107C1.33496 23.3105 2.19434 24.1592 3.51562 24.1592ZM3.4834 8.38965C3.17188 8.38965 2.95703 8.16406 2.95703 7.88477V6.6709C2.95703 6.32715 3.18262 6.10156 3.52637 6.10156H4.86914C5.18066 6.10156 5.38477 6.31641 5.38477 6.62793V7.88477C5.38477 8.16406 5.18066 8.38965 4.86914 8.38965H3.4834ZM7.41504 13.4062C7.09277 13.4062 6.89941 13.2236 6.89941 12.9014V6.5957C6.89941 6.27344 7.09277 6.10156 7.41504 6.10156H20.5957C20.9072 6.10156 21.1006 6.27344 21.1006 6.5957V12.9014C21.1006 13.2236 20.9072 13.4062 20.5957 13.4062H7.41504ZM23.1309 8.38965C22.8193 8.38965 22.6152 8.16406 22.6152 7.88477V6.62793C22.6152 6.31641 22.8193 6.10156 23.1309 6.10156H24.4736C24.8281 6.10156 25.043 6.32715 25.043 6.6709V7.88477C25.043 8.16406 24.8389 8.38965 24.5166 8.38965H23.1309ZM3.4834 11.9453C3.17188 11.9453 2.95703 11.709 2.95703 11.4404V10.2051C2.95703 9.89355 3.16113 9.67871 3.4834 9.67871H4.86914C5.18066 9.67871 5.38477 9.89355 5.38477 10.2051V11.4404C5.38477 11.709 5.18066 11.9453 4.86914 11.9453H3.4834ZM23.1309 11.9453C22.8193 11.9453 22.6152 11.709 22.6152 11.4404V10.2051C22.6152 9.89355 22.8193 9.67871 23.1309 9.67871H24.5166C24.8389 9.67871 25.043 9.89355 25.043 10.2051V11.4404C25.043 11.709 24.8389 11.9453 24.5166 11.9453H23.1309ZM3.4834 15.3936C3.17188 15.3936 2.95703 15.168 2.95703 14.8887V13.6641C2.95703 13.3418 3.16113 13.1377 3.4834 13.1377H4.86914C5.18066 13.1377 5.38477 13.3418 5.38477 13.6641V14.8887C5.38477 15.168 5.18066 15.3936 4.86914 15.3936H3.4834ZM23.1309 15.3936C22.8193 15.3936 22.6152 15.168 22.6152 14.8887V13.6641C22.6152 13.3418 22.8193 13.1377 23.1309 13.1377H24.5166C24.8389 13.1377 25.043 13.3418 25.043 13.6641V14.8887C25.043 15.168 24.8389 15.3936 24.5166 15.3936H23.1309ZM7.41504 22.4297C7.09277 22.4297 6.89941 22.2363 6.89941 21.9141V15.6514C6.89941 15.3398 7.09277 15.1465 7.41504 15.1465H20.5957C20.9072 15.1465 21.1006 15.3398 21.1006 15.6514V21.9141C21.1006 22.2363 20.9072 22.4297 20.5957 22.4297H7.41504ZM3.4834 18.874C3.17188 18.874 2.95703 18.6377 2.95703 18.3584V17.1338C2.95703 16.8115 3.16113 16.6074 3.4834 16.6074H4.86914C5.18066 16.6074 5.38477 16.8115 5.38477 17.1338V18.3584C5.38477 18.6377 5.18066 18.874 4.86914 18.874H3.4834ZM23.1309 18.874C22.8193 18.874 22.6152 18.6377 22.6152 18.3584V17.1338C22.6152 16.8115 22.8193 16.6074 23.1309 16.6074H24.5166C24.8389 16.6074 25.043 16.8115 25.043 17.1338V18.3584C25.043 18.6377 24.8389 18.874 24.5166 18.874H23.1309ZM3.52637 22.4297C3.18262 22.4297 2.95703 22.1934 2.95703 21.8711V20.6572C2.95703 20.3564 3.17188 20.1416 3.4834 20.1416H4.86914C5.18066 20.1416 5.38477 20.3564 5.38477 20.6572V21.9033C5.38477 22.2041 5.18066 22.4297 4.86914 22.4297H3.52637ZM23.1309 22.4297C22.8193 22.4297 22.6152 22.2041 22.6152 21.9033V20.6572C22.6152 20.3564 22.8193 20.1416 23.1309 20.1416H24.5166C24.8389 20.1416 25.043 20.3564 25.043 20.6572V21.8711C25.043 22.1934 24.8281 22.4297 24.4736 22.4297H23.1309Z" fill="black"/>
</svg>
