<svg width="28" height="28" viewBox="0 0 28 28" fill="none" xmlns="http://www.w3.org/2000/svg">
<path d="M5.08203 26.0469C5.57422 26.0469 5.97266 25.6602 5.97266 25.168V18.6523C6.26562 18.5234 7.36719 18.1016 9.08984 18.1016C13.4258 18.1016 16.1445 20.2227 20.2695 20.2227C22.0977 20.2227 22.7773 20.0234 23.668 19.625C24.4766 19.2617 25.0039 18.6523 25.0039 17.5742V5.67969C25.0039 5.04688 24.4648 4.68359 23.7852 4.68359C23.2109 4.68359 22.1328 5.17578 20.1172 5.17578C15.9922 5.17578 13.2852 3.05469 8.9375 3.05469C7.10938 3.05469 6.41797 3.25391 5.52734 3.65234C4.71875 4.01562 4.19141 4.625 4.19141 5.69141V25.168C4.19141 25.6484 4.60156 26.0469 5.08203 26.0469ZM20.2695 18.4531C16.3672 18.4531 13.6016 16.332 9.08984 16.332C7.80078 16.332 6.62891 16.4844 5.97266 16.7539V5.75C6.13672 5.36328 7.10938 4.82422 8.9375 4.82422C13.0625 4.82422 15.8164 6.94531 20.1172 6.94531C21.3945 6.94531 22.4492 6.79297 23.2344 6.57031V17.5273C23.0703 17.9141 22.0977 18.4531 20.2695 18.4531Z" fill="black"/>
</svg>
