<svg width="28" height="28" viewBox="0 0 28 28" fill="none" xmlns="http://www.w3.org/2000/svg">
<path d="M4.36719 25.1914H23.9727C25.0195 25.1914 25.8359 24.8867 26.4219 24.2773C27.0078 23.6758 27.3008 22.7695 27.3008 21.5586V9.52344C27.3008 8.32031 26.9922 7.41406 26.375 6.80469C25.7578 6.19531 24.8398 5.89062 23.6211 5.89062H12.3711C11.9727 5.89062 11.6367 5.83984 11.3633 5.73828C11.0898 5.62891 10.8047 5.44922 10.5078 5.19922L9.79297 4.61328C9.53516 4.39453 9.28516 4.22266 9.04297 4.09766C8.80859 3.97266 8.54688 3.88281 8.25781 3.82812C7.97656 3.77344 7.64453 3.74609 7.26172 3.74609H3.92188C2.89062 3.74609 2.09375 4.03906 1.53125 4.625C0.96875 5.21094 0.6875 6.09375 0.6875 7.27344V21.5586C0.6875 22.7695 0.992188 23.6758 1.60156 24.2773C2.21875 24.8867 3.14062 25.1914 4.36719 25.1914ZM4.39062 23.3047C3.80469 23.3047 3.35547 23.1523 3.04297 22.8477C2.73047 22.5352 2.57422 22.0742 2.57422 21.4648V7.37891C2.57422 6.80078 2.72266 6.36328 3.01953 6.06641C3.31641 5.76953 3.74609 5.62109 4.30859 5.62109H6.78125C7.17188 5.62109 7.5 5.67578 7.76562 5.78516C8.03906 5.89453 8.32422 6.07422 8.62109 6.32422L9.33594 6.92188C9.58594 7.13281 9.83203 7.30078 10.0742 7.42578C10.3164 7.55078 10.582 7.64062 10.8711 7.69531C11.1602 7.75 11.4961 7.77734 11.8789 7.77734H23.5859C24.1641 7.77734 24.6133 7.93359 24.9336 8.24609C25.2539 8.55859 25.4141 9.01953 25.4141 9.62891V21.4766C25.4141 22.0781 25.2539 22.5352 24.9336 22.8477C24.6133 23.1523 24.1641 23.3047 23.5859 23.3047H4.39062ZM1.83594 12.0664H26.1406V10.2969H1.83594V12.0664Z" fill="black"/>
</svg>
