<svg width="28" height="28" viewBox="0 0 28 28" fill="none" xmlns="http://www.w3.org/2000/svg">
<path d="M14 26C7.44706 26 2 20.5529 2 14C2 7.43529 7.43529 2 13.9882 2C20.5529 2 26 7.43529 26 14C26 20.5529 20.5647 26 14 26ZM14 24C19.5529 24 24 19.5529 24 14C24 8.44706 19.5412 4 13.9882 4C8.43529 4 4.01176 8.44706 4.01176 14C4.01176 19.5529 8.44706 24 14 24ZM11.5059 21.7059C10.9529 21.7059 10.6 21.4 10.6118 20.8588L10.7412 13.4C10.7412 13.1647 10.6471 12.9882 10.4471 12.8941C9.56471 12.5176 9.18824 12.1176 9.23529 10.9412L9.41177 6.87059C9.42353 6.57647 9.6 6.4 9.87059 6.4C10.1294 6.4 10.2941 6.58824 10.2941 6.88235L10.2353 10.8588C10.2353 11.0824 10.4 11.2353 10.6118 11.2353C10.8353 11.2353 10.9882 11.0824 10.9882 10.8706L11.0588 6.77647C11.0588 6.48235 11.2353 6.31765 11.5059 6.31765C11.7647 6.31765 11.9529 6.48235 11.9529 6.77647L12 10.8706C12 11.0824 12.1647 11.2353 12.4 11.2353C12.6118 11.2353 12.7765 11.0824 12.7765 10.8588L12.7176 6.88235C12.7176 6.58824 12.8824 6.4 13.1412 6.4C13.4118 6.4 13.5765 6.57647 13.5882 6.87059L13.7765 10.9412C13.8471 12.1176 13.4471 12.5176 12.5765 12.8941C12.3647 12.9882 12.2706 13.1647 12.2706 13.4L12.4 20.8588C12.4118 21.4 12.0588 21.7059 11.5059 21.7059ZM16.1176 16.0588C16.1176 15.8 16.0118 15.6235 15.7765 15.4588L15.3882 15.1882C15.0588 14.9529 14.8824 14.6353 14.8824 14.1647V13.7176C14.8824 11.0706 15.5882 8.25882 16.6588 6.76471C16.8706 6.45882 17.0353 6.31765 17.2941 6.31765C17.5176 6.31765 17.7647 6.47059 17.7647 6.81176V20.8941C17.7647 21.4235 17.4235 21.7059 16.8471 21.7059C16.3059 21.7059 15.9412 21.4 15.9647 20.8235L16.1176 16.0588Z" fill="white"/>
</svg>
