<svg width="28" height="28" viewBox="0 0 28 28" fill="none" xmlns="http://www.w3.org/2000/svg">
<path d="M12.8673 26H15.1327C15.9963 26 16.6579 25.4724 16.8598 24.6417L17.3421 22.5426L17.7009 22.4191L19.529 23.5416C20.2579 24.0019 21.0991 23.8896 21.7159 23.2722L23.286 21.7119C23.9028 21.0945 24.015 20.2413 23.5551 19.5229L22.4112 17.7044L22.5458 17.3676L24.643 16.8737C25.4617 16.6717 26 15.9981 26 15.145V12.9224C26 12.0692 25.4729 11.3957 24.643 11.1936L22.5682 10.6885L22.4224 10.3293L23.5664 8.51076C24.0262 7.79233 23.914 6.95042 23.2972 6.3218L21.7271 4.75023C21.1215 4.14406 20.2804 4.03181 19.5514 4.48082L17.7234 5.60337L17.3421 5.45744L16.8598 3.35828C16.6579 2.5276 15.9963 2 15.1327 2H12.8673C12.0037 2 11.3421 2.5276 11.1402 3.35828L10.6467 5.45744L10.2654 5.60337L8.4486 4.48082C7.71963 4.03181 6.86729 4.14406 6.26168 4.75023L4.7028 6.3218C4.08598 6.95042 3.96262 7.79233 4.43365 8.51076L5.56636 10.3293L5.43178 10.6885L3.35701 11.1936C2.5271 11.3957 2 12.0692 2 12.9224V15.145C2 15.9981 2.53832 16.6717 3.35701 16.8737L5.45421 17.3676L5.57757 17.7044L4.44486 19.5229C3.97383 20.2413 4.0972 21.0945 4.71402 21.7119L6.2729 23.2722C6.88972 23.8896 7.74206 24.0019 8.47103 23.5416L10.2879 22.4191L10.6467 22.5426L11.1402 24.6417C11.3421 25.4724 12.0037 26 12.8673 26ZM13.0467 24.2488C12.8561 24.2488 12.7551 24.1703 12.7215 23.9906L12.0486 21.2067C11.3645 21.0384 10.7252 20.7689 10.243 20.4659L7.79813 21.9701C7.66355 22.0711 7.51776 22.0486 7.38318 21.9139L6.05981 20.5893C5.93645 20.4659 5.92523 20.3312 6.01495 20.174L7.51776 17.7493C7.25981 17.2778 6.96822 16.638 6.78878 15.9532L4.00748 15.2909C3.82804 15.2572 3.74953 15.1562 3.74953 14.9654V13.0907C3.74953 12.8887 3.81682 12.7989 4.00748 12.7652L6.77757 12.0917C6.95701 11.362 7.29346 10.6997 7.49533 10.2844L6.00374 7.85968C5.9028 7.6913 5.91402 7.55659 6.03738 7.42189L7.37196 6.11974C7.50654 5.98503 7.62991 5.96258 7.79813 6.06361L10.2206 7.53414C10.7028 7.26473 11.3869 6.9841 12.0598 6.79326L12.7215 4.00935C12.7551 3.82975 12.8561 3.75117 13.0467 3.75117H14.9533C15.1439 3.75117 15.2449 3.82975 15.2673 4.00935L15.9514 6.81572C16.6467 6.99532 17.2523 7.27596 17.757 7.54537L20.1907 6.06361C20.3701 5.96258 20.4822 5.98503 20.628 6.11974L21.9514 7.42189C22.086 7.55659 22.086 7.6913 21.985 7.85968L20.4935 10.2844C20.7065 10.6997 21.0318 11.362 21.2112 12.0917L23.9925 12.7652C24.172 12.7989 24.2505 12.8887 24.2505 13.0907V14.9654C24.2505 15.1562 24.1607 15.2572 23.9925 15.2909L21.2 15.9532C21.0206 16.638 20.7402 17.2778 20.471 17.7493L21.9738 20.174C22.0636 20.3312 22.0636 20.4659 21.929 20.5893L20.6168 21.9139C20.471 22.0486 20.3364 22.0711 20.1907 21.9701L17.7458 20.4659C17.2636 20.7689 16.6355 21.0384 15.9514 21.2067L15.2673 23.9906C15.2449 24.1703 15.1439 24.2488 14.9533 24.2488H13.0467ZM14 18.2881C16.3439 18.2881 18.2729 16.3573 18.2729 14C18.2729 11.6651 16.3439 9.73433 14 9.73433C11.6561 9.73433 9.71589 11.6651 9.71589 14C9.71589 16.3461 11.6449 18.2881 14 18.2881ZM14 16.5482C12.6093 16.5482 11.4654 15.4032 11.4654 14C11.4654 12.6193 12.6093 11.4743 14 11.4743C15.3682 11.4743 16.5121 12.6193 16.5121 14C16.5121 15.392 15.3682 16.5482 14 16.5482Z" fill="black"/>
</svg>
