<svg width="28" height="28" viewBox="0 0 28 28" fill="none" xmlns="http://www.w3.org/2000/svg">
<path d="M7.83594 26.1641H20.1523C22.3555 26.1641 23.5742 25.0039 23.5742 22.7891V15.5938H23.6562C24.6875 15.3711 25.2617 14.5391 25.2617 13.3438V10.2617C25.2617 8.83203 24.4648 7.92969 23.0352 7.92969H20.668C21.2891 7.30859 21.6523 6.46484 21.6523 5.49219C21.6523 3.21875 19.8594 1.60156 17.5859 1.60156C15.9453 1.60156 14.5859 2.50391 13.9883 4.07422C13.3906 2.50391 12.043 1.60156 10.3906 1.60156C8.12891 1.60156 6.32422 3.21875 6.32422 5.49219C6.32422 6.46484 6.6875 7.30859 7.32031 7.92969H4.95312C3.58203 7.92969 2.72656 8.83203 2.72656 10.2617V13.3438C2.72656 14.5391 3.28906 15.3711 4.32031 15.5938H4.40234V22.7891C4.40234 25.0039 5.62109 26.1641 7.83594 26.1641ZM13.0273 7.92969H11.1992C9.35938 7.92969 8.28125 6.88672 8.28125 5.59766C8.28125 4.30859 9.21875 3.55859 10.5078 3.55859C11.9023 3.55859 13.0273 4.61328 13.0273 6.34766V7.92969ZM14.9492 7.92969V6.34766C14.9492 4.61328 16.0742 3.55859 17.4688 3.55859C18.7578 3.55859 19.6953 4.30859 19.6953 5.59766C19.6953 6.88672 18.6289 7.92969 16.7773 7.92969H14.9492ZM12.9453 13.9062H5.43359C4.84766 13.9062 4.61328 13.6602 4.61328 13.0742V10.5195C4.61328 9.93359 4.84766 9.69922 5.43359 9.69922H12.9453V13.9062ZM15.0312 13.9062V9.69922H22.5664C23.1523 9.69922 23.375 9.93359 23.375 10.5195V13.0742C23.375 13.6602 23.1523 13.9062 22.5664 13.9062H15.0312ZM12.9453 24.4062H7.8125C6.83984 24.4062 6.28906 23.8555 6.28906 22.8828V15.6758H12.9453V24.4062ZM15.0312 24.4062V15.6758H21.6875V22.8828C21.6875 23.8555 21.1367 24.4062 20.1641 24.4062H15.0312Z" fill="black"/>
</svg>
