<svg width="80" height="80" viewBox="0 0 80 80" fill="none" xmlns="http://www.w3.org/2000/svg">
<rect x="1" y="1" width="78" height="78" rx="39" stroke="#2E42F1" stroke-width="2"/>
<path d="M31.1941 57.3773C28.0301 57.3773 26.289 55.7199 26.289 52.5558V42.2768H26.1718C24.6986 41.9587 23.895 40.7701 23.895 39.0625V34.6596C23.895 32.6172 25.1171 31.3281 27.0758 31.3281H30.4575C29.5535 30.4409 29.0345 29.2355 29.0345 27.846C29.0345 24.5982 31.6127 22.288 34.8437 22.288C37.2042 22.288 39.1294 23.577 39.9832 25.8203C40.837 23.577 42.7789 22.288 45.1227 22.288C48.3705 22.288 50.9319 24.5982 50.9319 27.846C50.9319 29.2355 50.4129 30.4409 49.5256 31.3281H52.9073C54.9497 31.3281 56.0881 32.6172 56.0881 34.6596V39.0625C56.0881 40.7701 55.2678 41.9587 53.7946 42.2768H53.6774V52.5558C53.6774 55.7199 51.9363 57.3773 48.789 57.3773H31.1941ZM38.6104 31.3281V29.0681C38.6104 26.5904 37.0033 25.0837 35.0111 25.0837C33.1696 25.0837 31.8303 26.1552 31.8303 27.9967C31.8303 29.8382 33.3705 31.3281 35.9988 31.3281H38.6104ZM41.356 31.3281H43.9676C46.6127 31.3281 48.1361 29.8382 48.1361 27.9967C48.1361 26.1552 46.7968 25.0837 44.9553 25.0837C42.9631 25.0837 41.356 26.5904 41.356 29.0681V31.3281ZM38.4932 39.8661V33.856H27.7622C26.9252 33.856 26.5903 34.1909 26.5903 35.0279V38.6775C26.5903 39.5145 26.9252 39.8661 27.7622 39.8661H38.4932ZM41.4731 39.8661H52.2377C53.0747 39.8661 53.3928 39.5145 53.3928 38.6775V35.0279C53.3928 34.1909 53.0747 33.856 52.2377 33.856H41.4731V39.8661ZM38.4932 54.8661V42.394H28.9843V52.6898C28.9843 54.0793 29.7711 54.8661 31.1606 54.8661H38.4932ZM41.4731 54.8661H48.8057C50.1952 54.8661 50.9821 54.0793 50.9821 52.6898V42.394H41.4731V54.8661Z" fill="#2E42F1"/>
</svg>
