<svg width="24" height="24" viewBox="0 0 24 24" fill="none" xmlns="http://www.w3.org/2000/svg">
<path d="M22.4453 1.56854C23.7918 2.91498 24 4.77501 24 7.06536V11.5489H17.712C19.4332 10.7577 20.627 9.31405 20.627 7.56507C20.627 5.52458 19.1139 4.01157 17.0873 4.01157C15.3522 4.01157 13.7976 5.08039 12.8953 6.85714V0H16.9346C19.225 0 21.0989 0.222094 22.4453 1.56854ZM10.4523 11.3545C7.73164 11.3545 5.42741 9.48062 5.42741 7.74552C5.42741 6.71833 6.05205 6.07982 7.03759 6.07982C9.09196 6.07982 10.8548 8.35628 10.8548 10.952V11.3545H10.4523ZM13.5477 11.3545H13.1452V10.952C13.1452 8.35628 14.908 6.07982 16.9624 6.07982C17.9479 6.07982 18.5865 6.71833 18.5865 7.74552C18.5865 9.48062 16.2684 11.3545 13.5477 11.3545ZM0 11.5489V7.03759C0 4.7889 0.222094 2.91498 1.55466 1.56854C2.9011 0.235975 4.7889 0 7.03759 0H11.1186V6.85714C10.2024 5.08039 8.64777 4.01157 6.91267 4.01157C4.88606 4.01157 3.38693 5.52458 3.38693 7.56507C3.38693 9.31405 4.5668 10.7577 6.30191 11.5489H0ZM19.5998 17.4899C17.6981 17.2678 15.0746 14.8248 14.2695 13.1729H24V16.9346C24 19.225 23.7918 21.085 22.4453 22.4315C21.1128 23.7779 19.225 24 16.9346 24H12.8953V14.2001H12.9925C13.9086 17.0596 17.2817 19.5442 19.4332 19.8635C20.2661 19.9746 20.7796 19.3638 20.7796 18.7392C20.7796 18.0312 20.3632 17.5732 19.5998 17.4899ZM1.55466 22.4315C0.208213 21.0989 0 19.225 0 16.9346V13.1729H9.73048C8.92539 14.8248 6.30191 17.2539 4.40023 17.4899C3.65067 17.587 3.23424 18.0312 3.23424 18.7392C3.23424 19.3638 3.73395 19.9746 4.5668 19.8635C6.71833 19.5442 10.0914 17.0596 11.0214 14.2001H11.1186V24H7.07924C4.7889 24 2.9011 23.7779 1.55466 22.4315Z" fill="black"/>
</svg>
