<svg width="28" height="28" viewBox="0 0 28 28" fill="none" xmlns="http://www.w3.org/2000/svg">
<path d="M14 26C20.5647 26 26 20.5529 26 14C26 7.43529 20.5529 2 13.9882 2C7.43529 2 2 7.43529 2 14C2 20.5529 7.44706 26 14 26ZM10.7176 11.7294C10.6706 11.2706 10.4706 10.8588 10.1529 10.5647C11.1882 7.94118 12.8353 5.56471 14.9882 3.64706C15.1529 3.65882 15.3176 3.68235 15.4824 3.70588C13.9412 6.30588 13.0118 9.22353 12.7882 12.2471C12.0824 12.1294 11.3882 11.9529 10.7176 11.7294ZM5.29412 8.35294C6.97647 5.78824 9.76471 3.97647 12.9412 3.64706C11.1529 5.51765 9.76471 7.69412 8.82353 10.0588C8.49412 10.0588 8.14118 10.1765 7.83529 10.3765C6.91765 9.81177 6.05882 9.12941 5.29412 8.35294ZM16.2 8.49412C16.2118 9.56471 16.3412 10.6235 16.5882 11.6471C16.3765 11.8588 16.2235 12.1294 16.1412 12.4235C15.8471 12.4471 15.5529 12.4588 15.2471 12.4588C14.8941 12.4588 14.5412 12.4471 14.2 12.4235C14.4 9.54118 15.2824 6.78824 16.7529 4.35294C16.3647 5.68235 16.1882 7.07059 16.2 8.49412ZM17.6235 8.48235C17.6118 7.12941 17.8 5.77647 18.2 4.50588C20.5059 5.54118 22.3882 7.41177 23.4471 9.70588C22.2118 10.6471 20.8235 11.3529 19.3412 11.8235C19.0235 11.3882 18.5059 11.1059 17.9176 11.0941C17.7412 10.2471 17.6353 9.37647 17.6235 8.48235ZM3.6 14C3.6 12.4588 3.94118 11 4.56471 9.67059C5.32941 10.4 6.16471 11.0471 7.07059 11.5882C7.04706 11.6824 7.04706 11.7882 7.04706 11.8941C7.04706 12.5176 7.35294 13.0706 7.83529 13.4118C7.58824 14.6353 7.45882 15.9059 7.45882 17.1882C6.10588 16.5294 4.81176 15.6941 3.62353 14.6941C3.61176 14.4588 3.6 14.2353 3.6 14ZM24.4 14C24.4 15.0118 24.2471 16 23.9647 16.9294C23.2824 17.2941 22.5765 17.6118 21.8471 17.8824C20.7176 16.8588 19.7765 15.6353 19.0706 14.2824C19.3882 14.0118 19.6 13.6353 19.6824 13.2118C21.2118 12.7412 22.6588 12.0353 23.9765 11.0941C24.2471 12.0235 24.4 13 24.4 14ZM12.7294 13.7529C12.7294 15.2824 12.9059 16.7882 13.2471 18.2588C13.0471 18.4118 12.8824 18.6118 12.7647 18.8353C11.4471 18.6353 10.1412 18.2941 8.88235 17.8118C8.84706 16.4118 8.95294 15.0353 9.22353 13.7059C9.64706 13.6235 10.0118 13.4 10.2824 13.0824C11.0706 13.3529 11.8941 13.5529 12.7294 13.6824C12.7294 13.7059 12.7294 13.7294 12.7294 13.7529ZM15.2471 13.8824C15.6235 13.8824 15.9882 13.8706 16.3412 13.8353C16.6235 14.3059 17.1176 14.6353 17.6941 14.7059C18.3647 16.0588 19.2588 17.3059 20.3294 18.3765C18.9412 18.7647 17.5294 18.9765 16.1059 19.0235C15.8588 18.4 15.2941 17.9529 14.6118 17.8706C14.3176 16.5647 14.1529 15.2118 14.1529 13.8471C14.5176 13.8706 14.8824 13.8824 15.2471 13.8824ZM3.98824 16.7882C5.09412 17.5765 6.27059 18.2471 7.50588 18.7765C7.55294 20.0353 7.74118 21.2824 8.07059 22.5059C6.11765 21.1294 4.64706 19.1176 3.98824 16.7882ZM14 24.4C12.5529 24.4 11.1529 24.0941 9.89412 23.5294C9.4 22.1882 9.08235 20.7882 8.96471 19.3529C10.1647 19.7647 11.3882 20.0706 12.6471 20.2471C12.8706 20.9647 13.5294 21.4824 14.3176 21.5176C14.7176 22.4588 15.2 23.3765 15.7529 24.2471C15.1765 24.3412 14.6 24.4 14 24.4ZM15.6588 21.0235C15.8235 20.8588 15.9647 20.6588 16.0588 20.4471C17.9176 20.3882 19.7765 20.0824 21.5647 19.4941C21.8235 19.7059 22.1059 19.9059 22.3765 20.1059C21.0941 21.8471 19.2941 23.1882 17.2 23.8824C16.6 22.9765 16.0824 22.0118 15.6588 21.0235Z" fill="black"/>
</svg>
