<svg width="28" height="28" viewBox="0 0 28 28" fill="none" xmlns="http://www.w3.org/2000/svg">
<path d="M9.37109 2C6.40625 2 4 4.40625 4 7.37109C4 8.64941 4.45117 9.83105 5.19238 10.7549C5.375 10.9805 5.58984 11.0664 5.79395 11.0664C6.32031 11.0664 6.77148 10.4434 6.32031 9.90625C5.74023 9.21875 5.40723 8.33789 5.40723 7.37109C5.40723 5.17969 7.17969 3.40723 9.37109 3.40723C11.5625 3.40723 13.3242 5.17969 13.3242 7.37109V7.59668C13.335 8.08008 13.668 8.29492 14.0117 8.29492C14.3447 8.29492 14.6885 8.05859 14.7207 7.68262C14.7314 7.60742 14.7314 7.51074 14.7314 7.37109C14.7314 4.40625 12.3359 2 9.37109 2ZM19.4258 25.6006C23.6904 24.0537 25.5059 20.1436 23.7871 15.417L22.9922 13.2148C22.1436 10.8838 20.543 9.92773 18.6631 10.583C18.1582 9.92773 17.3848 9.70215 16.5469 10.0029C16.2354 10.1211 15.9668 10.2822 15.709 10.4756C15.1611 9.7666 14.3125 9.50879 13.4316 9.82031C13.1953 9.90625 12.9697 10.0352 12.7549 10.1855L11.5303 6.83398C11.0684 5.55566 9.91895 5.01855 8.72656 5.44824C7.5127 5.88867 6.97559 7.03809 7.4375 8.31641L10.499 16.7383C10.5205 16.792 10.5098 16.835 10.4561 16.8564C10.4238 16.8779 10.3809 16.8564 10.3486 16.8242L9.0918 15.4492C8.46875 14.7832 7.7168 14.5791 6.99707 14.8369C6.01953 15.2021 5.38574 16.1367 5.79395 17.2432C5.89062 17.5547 6.10547 17.9307 6.35254 18.2422L9.95117 22.5928C12.6797 25.8799 15.8594 26.9004 19.4258 25.6006ZM18.9639 24.1934C16.1494 25.2246 13.5176 24.6982 11.0254 21.7012L7.42676 17.3721C7.31934 17.2432 7.24414 17.125 7.17969 16.9424C7.05078 16.5986 7.20117 16.2012 7.60938 16.0508C7.95312 15.9326 8.23242 16.0615 8.50098 16.3516L10.9932 18.9189C11.4014 19.3486 11.7666 19.3916 12.1318 19.2627C12.5508 19.1123 12.7227 18.6611 12.5615 18.1992L8.74805 7.73633C8.58691 7.30664 8.78027 6.89844 9.19922 6.74805C9.60742 6.59766 10.0049 6.80176 10.1553 7.23145L12.873 14.6973C13.002 15.0518 13.3994 15.2129 13.7539 15.084C14.0977 14.9551 14.291 14.5791 14.1621 14.2354L13.1846 11.5391C13.3242 11.3994 13.5391 11.2598 13.7324 11.1846C14.2373 11.002 14.6562 11.2275 14.8496 11.7539L15.709 14.1064C15.8379 14.4717 16.2461 14.6113 16.5898 14.4824C16.9121 14.3643 17.127 14.0098 16.9873 13.6338L16.2998 11.7217C16.4395 11.582 16.6436 11.4424 16.8477 11.3672C17.3525 11.1846 17.7715 11.4102 17.9648 11.9365L18.5342 13.5049C18.6738 13.8809 19.0713 14.0205 19.415 13.8916C19.748 13.7734 19.9521 13.4082 19.8232 13.043L19.4043 11.8828C20.2959 11.5605 21.1445 12.291 21.7246 13.9023L22.4014 15.7393C23.873 19.7998 22.541 22.8936 18.9639 24.1934Z" fill="black"/>
</svg>
