<svg width="28" height="28" viewBox="0 0 28 28" fill="none" xmlns="http://www.w3.org/2000/svg">
<path d="M2.07031 14.9492C2.07031 16.1289 2.17969 17.332 2.39844 18.5586C2.61719 19.7773 2.92969 20.9688 3.33594 22.1328C3.75 23.2969 4.24219 24.3828 4.8125 25.3906C4.95312 25.6406 5.14844 25.7969 5.39844 25.8594C5.65625 25.9297 5.91797 25.8906 6.18359 25.7422C6.43359 25.6094 6.58594 25.4141 6.64062 25.1562C6.70312 24.9062 6.66016 24.6445 6.51172 24.3711C5.73047 22.9414 5.125 21.4102 4.69531 19.7773C4.27344 18.1367 4.0625 16.5273 4.0625 14.9492C4.0625 13.3242 4.29688 11.8477 4.76562 10.5195C5.24219 9.19141 5.91797 8.05078 6.79297 7.09766C7.66797 6.13672 8.71484 5.39844 9.93359 4.88281C11.1523 4.36719 12.5078 4.10938 14 4.10938C15.4844 4.10938 16.8359 4.36719 18.0547 4.88281C19.2734 5.39844 20.3203 6.13672 21.1953 7.09766C22.0781 8.05078 22.7539 9.19141 23.2227 10.5195C23.6992 11.8477 23.9375 13.3242 23.9375 14.9492C23.9375 16.5273 23.7227 18.1367 23.293 19.7773C22.8633 21.4102 22.2578 22.9414 21.4766 24.3711C21.3281 24.6445 21.2812 24.9062 21.3359 25.1562C21.3984 25.4141 21.5547 25.6094 21.8047 25.7422C22.0703 25.8906 22.3281 25.9297 22.5781 25.8594C22.8359 25.7969 23.0352 25.6406 23.1758 25.3906C23.7461 24.3828 24.2383 23.2969 24.6523 22.1328C25.0664 20.9688 25.3828 19.7773 25.6016 18.5586C25.8203 17.332 25.9297 16.1289 25.9297 14.9492C25.9297 13.0195 25.6445 11.2695 25.0742 9.69922C24.5117 8.12109 23.7031 6.76953 22.6484 5.64453C21.6016 4.51172 20.3438 3.64062 18.875 3.03125C17.4141 2.42188 15.7891 2.11719 14 2.11719C12.2031 2.11719 10.5703 2.42188 9.10156 3.03125C7.64062 3.64062 6.38672 4.51172 5.33984 5.64453C4.29297 6.76953 3.48438 8.12109 2.91406 9.69922C2.35156 11.2695 2.07031 13.0195 2.07031 14.9492ZM5.73828 25.0977C5.93359 25.7695 6.29297 26.25 6.81641 26.5391C7.34766 26.8281 7.95312 26.875 8.63281 26.6797C9.3125 26.4844 9.79688 26.1172 10.0859 25.5781C10.375 25.0469 10.418 24.4453 10.2148 23.7734L8.53906 18.0547C8.34375 17.3828 7.98047 16.9062 7.44922 16.625C6.92578 16.3359 6.32422 16.2852 5.64453 16.4727C4.96484 16.668 4.48047 17.0352 4.19141 17.5742C3.90234 18.1055 3.85938 18.7109 4.0625 19.3906L5.73828 25.0977ZM22.25 25.0977L23.9258 19.3906C24.1289 18.7031 24.0859 18.0938 23.7969 17.5625C23.5078 17.0312 23.0234 16.668 22.3438 16.4727C21.6641 16.2852 21.0586 16.3359 20.5273 16.625C20.0039 16.9062 19.6445 17.3828 19.4492 18.0547L17.7734 23.7734C17.5703 24.4531 17.6133 25.0586 17.9023 25.5898C18.1992 26.1211 18.6836 26.4844 19.3555 26.6797C20.0352 26.875 20.6367 26.8281 21.1602 26.5391C21.6914 26.25 22.0547 25.7695 22.25 25.0977Z" fill="black"/>
</svg>
