<svg width="28" height="28" viewBox="0 0 28 28" fill="none" xmlns="http://www.w3.org/2000/svg">
<path d="M2.36328 11.2227C2.36328 16.2148 6.54688 21.125 13.1562 25.3438C13.4023 25.4961 13.7539 25.6602 14 25.6602C14.2461 25.6602 14.5977 25.4961 14.8555 25.3438C21.4531 21.125 25.6367 16.2148 25.6367 11.2227C25.6367 7.07422 22.7891 4.14453 18.9922 4.14453C16.8242 4.14453 15.0664 5.17578 14 6.75781C12.957 5.1875 11.1758 4.14453 9.00781 4.14453C5.21094 4.14453 2.36328 7.07422 2.36328 11.2227ZM4.25 11.2227C4.25 8.10547 6.26562 6.03125 8.98438 6.03125C11.1875 6.03125 12.4531 7.40234 13.2031 8.57422C13.5195 9.04297 13.7188 9.17188 14 9.17188C14.2812 9.17188 14.457 9.03125 14.7969 8.57422C15.6055 7.42578 16.8242 6.03125 19.0156 6.03125C21.7344 6.03125 23.75 8.10547 23.75 11.2227C23.75 15.582 19.1445 20.2812 14.2461 23.5391C14.1289 23.6211 14.0469 23.6797 14 23.6797C13.9531 23.6797 13.8711 23.6211 13.7656 23.5391C8.85547 20.2812 4.25 15.582 4.25 11.2227Z" fill="black"/>
</svg>
