<svg width="28" height="28" viewBox="0 0 28 28" fill="none" xmlns="http://www.w3.org/2000/svg">
<path d="M6.69531 24.6211H21.2295C22.7549 24.6211 23.6465 23.751 23.6465 22.2471V11.9238L25.1396 13.1807C25.3545 13.3633 25.6016 13.5244 25.9023 13.5244C26.4072 13.5244 26.8154 13.2129 26.8154 12.6973C26.8154 12.375 26.708 12.1602 26.4824 11.9668L23.6465 9.58203V5.13477C23.6465 4.66211 23.3457 4.36133 22.873 4.36133H21.7236C21.2617 4.36133 20.9502 4.66211 20.9502 5.13477V7.31543L15.2998 2.56738C14.5049 1.89062 13.5166 1.89062 12.7109 2.56738L1.51758 11.9668C1.28125 12.1602 1.17383 12.418 1.17383 12.665C1.17383 13.1055 1.51758 13.5244 2.09766 13.5244C2.39844 13.5244 2.64551 13.3633 2.87109 13.1807L4.26758 11.999V22.2471C4.26758 23.751 5.15918 24.6211 6.69531 24.6211ZM17.0938 15.6943C17.0938 15.2002 16.7715 14.8779 16.2773 14.8779H11.7227C11.2178 14.8779 10.8955 15.2002 10.8955 15.6943V22.8916H7.06055C6.37305 22.8916 5.99707 22.5049 5.99707 21.8066V10.5488L13.624 4.15723C13.8604 3.94238 14.1504 3.94238 14.3867 4.15723L21.917 10.4736V21.8066C21.917 22.5049 21.541 22.8916 20.8643 22.8916H17.0938V15.6943Z" fill="black"/>
</svg>
