<svg width="18" height="17" viewBox="0 0 18 17" fill="none" xmlns="http://www.w3.org/2000/svg">
<path d="M8.99166 16.8227C13.428 16.8227 17.1027 13.148 17.1027 8.71163C17.1027 4.27525 13.4197 0.600586 8.98329 0.600586C4.55528 0.600586 0.880615 4.27525 0.880615 8.71163C0.880615 13.148 4.55528 16.8227 8.99166 16.8227ZM8.99166 10.1514C8.56477 10.1514 8.33039 9.90862 8.31365 9.47335L8.2132 5.27134C8.19646 4.82771 8.52291 4.50963 8.98329 4.50963C9.44367 4.50963 9.78686 4.83608 9.77012 5.27972L9.66131 9.47335C9.64457 9.91699 9.41019 10.1514 8.99166 10.1514ZM8.99166 12.8299C8.50617 12.8299 8.07928 12.4449 8.07928 11.9594C8.07928 11.4739 8.4978 11.0889 8.99166 11.0889C9.4939 11.0889 9.90405 11.4739 9.90405 11.9594C9.90405 12.4533 9.48553 12.8299 8.99166 12.8299Z" fill="#FF3B30"/>
</svg>
