<svg width="28" height="28" viewBox="0 0 28 28" fill="none" xmlns="http://www.w3.org/2000/svg">
<path d="M14 26.4922C20.5391 26.4922 25.9531 21.0664 25.9531 14.5391C25.9531 8 20.5273 2.58594 13.9883 2.58594C7.46094 2.58594 2.04688 8 2.04688 14.5391C2.04688 21.0664 7.47266 26.4922 14 26.4922ZM14 24.5C8.46875 24.5 4.05078 20.0703 4.05078 14.5391C4.05078 9.00781 8.45703 4.57812 13.9883 4.57812C19.5195 4.57812 23.9492 9.00781 23.9609 14.5391C23.9727 20.0703 19.5312 24.5 14 24.5ZM13.8945 10.3672C14.75 10.3672 15.418 9.6875 15.418 8.83203C15.418 7.97656 14.75 7.29688 13.8945 7.29688C13.0508 7.29688 12.3711 7.97656 12.3711 8.83203C12.3711 9.6875 13.0508 10.3672 13.8945 10.3672ZM11.9492 20.9844H16.7188C17.1992 20.9844 17.5742 20.6328 17.5742 20.1523C17.5742 19.6953 17.1992 19.332 16.7188 19.332H15.2656V13.3672C15.2656 12.7344 14.9492 12.3125 14.3516 12.3125H12.1484C11.668 12.3125 11.293 12.6758 11.293 13.1328C11.293 13.6133 11.668 13.9648 12.1484 13.9648H13.4023V19.332H11.9492C11.4688 19.332 11.0938 19.6953 11.0938 20.1523C11.0938 20.6328 11.4688 20.9844 11.9492 20.9844Z" fill="black"/>
</svg>
