<svg width="41" height="41" viewBox="0 0 41 41" fill="none" xmlns="http://www.w3.org/2000/svg">
<g id="Icon / key.fill">
<path id="symbol" d="M20.5 0.675781C26.1633 0.675781 30.7358 5.24819 30.7358 10.8955C30.7358 15.2914 27.9763 18.9494 23.0188 20.9227L27.3024 25.2384C27.6394 25.5914 27.6394 26.0566 27.3345 26.3775L23.0028 30.6932L26.1633 33.8057C26.4842 34.1426 26.5003 34.6078 26.1633 34.9608L21.0775 40.0466C20.7406 40.3835 20.1952 40.3033 19.9224 40.0306L17.2431 37.3352C16.9544 37.0304 16.826 36.7256 16.826 36.3245V20.4895C12.8151 18.9654 10.2482 15.1791 10.2482 10.8955C10.2482 5.2161 14.7885 0.675781 20.5 0.675781ZM20.5 10.4784C22.0722 10.4784 23.3557 9.21094 23.3557 7.62263C23.3557 6.05036 22.0722 4.76688 20.5 4.76688C18.8956 4.76688 17.6442 6.03432 17.6442 7.62263C17.6442 9.21094 18.9277 10.4784 20.5 10.4784Z" fill="white"/>
</g>
</svg>
