<svg width="28" height="28" viewBox="0 0 28 28" fill="none" xmlns="http://www.w3.org/2000/svg">
<path d="M7.59526 23.5C6.39684 23.5 5.49596 23.1968 4.89262 22.5904C4.29754 21.9754 4 21.0572 4 19.8358V8.16419C4 6.95134 4.29754 6.03742 4.89262 5.42245C5.49596 4.80748 6.39684 4.5 7.59526 4.5H19.4171C20.6073 4.5 21.4999 4.80748 22.095 5.42245C22.6983 6.03742 23 6.95134 23 8.16419V19.8358C23 21.0487 22.6983 21.9626 22.095 22.5775C21.4999 23.1925 20.6073 23.5 19.4171 23.5H7.59526ZM7.62006 21.7448H19.3799C19.9915 21.7448 20.4585 21.5739 20.7809 21.2323C21.1115 20.8906 21.2768 20.3953 21.2768 19.7461V8.2795C21.2768 7.61328 21.1115 7.11362 20.7809 6.78051C20.4585 6.4474 19.9915 6.28085 19.3799 6.28085H7.62006C7.00845 6.28085 6.53735 6.4474 6.20675 6.78051C5.88441 7.11362 5.72325 7.61328 5.72325 8.2795V19.7461C5.72325 20.3953 5.88441 20.8906 6.20675 21.2323C6.53735 21.5739 7.00845 21.7448 7.62006 21.7448Z" fill="#646468"/>
<path d="M12.1339 10.6377C12.1339 10.9879 12.3075 11.163 12.6546 11.163H13.8854C14.2242 11.163 14.3937 10.9879 14.3937 10.6377V9.54868C14.3937 9.19849 14.2242 9.02339 13.8854 9.02339H12.6546C12.3075 9.02339 12.1339 9.19849 12.1339 9.54868V10.6377Z" fill="#646468"/>
<path d="M12.1339 14.5325C12.1339 14.8827 12.3075 15.0578 12.6546 15.0578H13.8854C14.2242 15.0578 14.3937 14.8827 14.3937 14.5325V13.4435C14.3937 13.0933 14.2242 12.9182 13.8854 12.9182H12.6546C12.3075 12.9182 12.1339 13.0933 12.1339 13.4435V14.5325Z" fill="#646468"/>
<path d="M16.6485 10.6377C16.6485 10.9879 16.8221 11.163 17.1692 11.163H18.4C18.7388 11.163 18.9083 10.9879 18.9083 10.6377V9.54868C18.9083 9.19849 18.7388 9.02339 18.4 9.02339H17.1692C16.8221 9.02339 16.6485 9.19849 16.6485 9.54868V10.6377Z" fill="#646468"/>
<path d="M16.6485 14.5325C16.6485 14.8827 16.8221 15.0578 17.1692 15.0578H18.4C18.7388 15.0578 18.9083 14.8827 18.9083 14.5325V13.4435C18.9083 13.0933 18.7388 12.9182 18.4 12.9182H17.1692C16.8221 12.9182 16.6485 13.0933 16.6485 13.4435V14.5325Z" fill="#646468"/>
<path d="M7.61936 10.6377C7.61936 10.9879 7.79293 11.163 8.14006 11.163H9.3708C9.70967 11.163 9.8791 10.9879 9.8791 10.6377V9.54868C9.8791 9.19849 9.70967 9.02339 9.3708 9.02339H8.14006C7.79293 9.02339 7.61936 9.19849 7.61936 9.54868V10.6377Z" fill="#646468"/>
<path d="M7.61936 14.5325C7.61936 14.8827 7.79293 15.0578 8.14006 15.0578H9.3708C9.70967 15.0578 9.8791 14.8827 9.8791 14.5325V13.4435C9.8791 13.0933 9.70967 12.9182 9.3708 12.9182H8.14006C7.79293 12.9182 7.61936 13.0933 7.61936 13.4435V14.5325Z" fill="#646468"/>
<path d="M7.61936 18.4462C7.61936 18.8732 7.82599 19.0868 8.23924 19.0868H18.7602C19.1735 19.0868 19.3801 18.8732 19.3801 18.4462V17.575C19.3801 17.1394 19.1735 16.9216 18.7602 16.9216H8.23924C7.82599 16.9216 7.61936 17.1394 7.61936 17.575V18.4462Z" fill="#646468"/>
</svg>
