<svg width="28" height="28" viewBox="0 0 28 28" fill="none" xmlns="http://www.w3.org/2000/svg">
<path d="M3.53906 9.07812H24.4219C24.7266 9.07812 24.9727 8.84375 24.9727 8.53906C24.9727 8.23438 24.7266 8 24.4219 8H3.53906C3.23438 8 3 8.23438 3 8.53906C3 8.84375 3.23438 9.07812 3.53906 9.07812ZM3.53906 14.1875H24.4219C24.7266 14.1875 24.9727 13.9531 24.9727 13.6484C24.9727 13.3438 24.7266 13.1094 24.4219 13.1094H3.53906C3.23438 13.1094 3 13.3438 3 13.6484C3 13.9531 3.23438 14.1875 3.53906 14.1875ZM3.53906 19.2969H24.4219C24.7266 19.2969 24.9727 19.0625 24.9727 18.7578C24.9727 18.4531 24.7266 18.2188 24.4219 18.2188H3.53906C3.23438 18.2188 3 18.4531 3 18.7578C3 19.0625 3.23438 19.2969 3.53906 19.2969Z" fill="black"/>
</svg>
