<svg width="28" height="28" viewBox="0 0 28 28" fill="none" xmlns="http://www.w3.org/2000/svg">
<path d="M14.1406 9.61719L12.582 11.1992C13.3555 11.2617 14.0039 11.4063 14.5273 11.6328C15.0586 11.8594 15.5156 12.1641 15.8984 12.5469C16.5781 13.2344 17.0312 13.9922 17.2578 14.8203C17.4844 15.6406 17.4844 16.4609 17.2578 17.2813C17.0391 18.1016 16.5898 18.8516 15.9102 19.5313L12.0781 23.3516C11.3984 24.0313 10.6484 24.4844 9.82812 24.7109C9.00781 24.9375 8.18359 24.9375 7.35547 24.7109C6.53516 24.4922 5.78516 24.043 5.10547 23.3633C4.42578 22.6758 3.97266 21.9219 3.74609 21.1016C3.51953 20.2734 3.51953 19.4492 3.74609 18.6289C3.97266 17.8086 4.42578 17.0586 5.10547 16.3789L7.40234 14.082C7.23828 13.7148 7.13281 13.3242 7.08594 12.9102C7.04688 12.4883 7.05859 12.0859 7.12109 11.7031L3.67578 15.1367C2.74609 16.0742 2.12109 17.1094 1.80078 18.2422C1.48828 19.375 1.48828 20.5117 1.80078 21.6523C2.11328 22.7852 2.74219 23.8242 3.6875 24.7695C4.64062 25.7227 5.68359 26.3555 6.81641 26.668C7.95703 26.9805 9.09375 26.9766 10.2266 26.6563C11.3594 26.3438 12.3906 25.7227 13.3203 24.793L17.3281 20.7734C18.2656 19.8359 18.8906 18.8008 19.2031 17.668C19.5234 16.5352 19.5273 15.4023 19.2148 14.2695C18.9023 13.1289 18.2695 12.0859 17.3164 11.1406C16.9492 10.7656 16.5156 10.4531 16.0156 10.2031C15.5156 9.94532 14.8906 9.75001 14.1406 9.61719ZM13.8477 19.2734L15.4062 17.6914C14.6328 17.6289 13.9805 17.4844 13.4492 17.2578C12.9258 17.0313 12.4727 16.7266 12.0898 16.3438C11.4023 15.6563 10.9453 14.9023 10.7188 14.082C10.4922 13.2539 10.4922 12.4297 10.7188 11.6094C10.9453 10.7891 11.3984 10.0391 12.0781 9.35938L15.8984 5.53907C16.5859 4.85938 17.3398 4.40626 18.1602 4.17969C18.9805 3.95313 19.8008 3.95313 20.6211 4.17969C21.4414 4.39844 22.1953 4.85157 22.8828 5.53907C23.5625 6.21876 24.0156 6.97266 24.2422 7.80079C24.4688 8.6211 24.4688 9.44141 24.2422 10.2617C24.0156 11.082 23.5625 11.832 22.8828 12.5117L20.5859 14.8086C20.75 15.1836 20.8516 15.5781 20.8906 15.9922C20.9375 16.4063 20.9297 16.8047 20.8672 17.1875L24.3125 13.7539C25.2422 12.8164 25.8633 11.7813 26.1758 10.6484C26.4961 9.51563 26.5 8.38282 26.1875 7.25001C25.875 6.10938 25.2461 5.06641 24.3008 4.1211C23.3477 3.16797 22.3008 2.53516 21.1602 2.22266C20.0273 1.91016 18.8945 1.91407 17.7617 2.23438C16.6289 2.54688 15.5938 3.17188 14.6562 4.10938L10.6602 8.11719C9.72266 9.05469 9.09375 10.0898 8.77344 11.2227C8.46094 12.3555 8.46094 13.4922 8.77344 14.6328C9.08594 15.7656 9.71875 16.8047 10.6719 17.75C11.0391 18.125 11.4727 18.4414 11.9727 18.6992C12.4727 18.9492 13.0977 19.1406 13.8477 19.2734Z" fill="black"/>
</svg>
