<svg width="28" height="28" viewBox="0 0 28 28" fill="none" xmlns="http://www.w3.org/2000/svg">
<path d="M2.58398 7.16211H21.1094C21.6562 7.16211 22.0957 6.70312 22.0957 6.15625C22.0957 5.60938 21.6562 5.16016 21.1094 5.16016H2.58398C2.03711 5.16016 1.60742 5.60938 1.60742 6.15625C1.60742 6.69336 2.04688 7.16211 2.58398 7.16211ZM2.58398 12.2793H8.82422C9.37109 12.2793 9.81055 11.8203 9.81055 11.2734C9.81055 10.7266 9.38086 10.2773 8.82422 10.2773H2.58398C2.03711 10.2773 1.60742 10.7363 1.60742 11.2734C1.60742 11.8105 2.04688 12.2793 2.58398 12.2793ZM13.209 22.4453H24.8398C25.7773 22.4453 26.3828 21.8398 26.3828 20.9121V11.8789C26.3828 10.9609 25.7773 10.3555 24.8398 10.3555H13.209C12.2715 10.3555 11.666 10.9609 11.666 11.8789V20.9121C11.666 21.8398 12.2715 22.4453 13.209 22.4453ZM13.1992 13.4023C13.0137 13.4023 12.8867 13.2852 12.8867 13.0996V12.0059C12.8867 11.8203 13.0137 11.6934 13.1992 11.6934H14.1562C14.3418 11.6934 14.459 11.8203 14.459 12.0059V13.0996C14.459 13.2852 14.3418 13.4023 14.1562 13.4023H13.1992ZM23.8926 13.4023C23.707 13.4023 23.5801 13.2852 23.5801 13.0996V12.0059C23.5801 11.8203 23.707 11.6934 23.8926 11.6934H24.8496C25.0352 11.6934 25.1523 11.8203 25.1523 12.0059V13.0996C25.1523 13.2852 25.0352 13.4023 24.8496 13.4023H23.8926ZM15.9238 15.5801C15.7188 15.5801 15.5723 15.4434 15.5723 15.2285V12.3281C15.5723 12.1133 15.7188 11.9668 15.9238 11.9668H22.125C22.3398 11.9668 22.4766 12.1133 22.4766 12.3281V15.2285C22.4766 15.4434 22.3398 15.5801 22.125 15.5801H15.9238ZM13.1992 15.9707C13.0137 15.9707 12.8867 15.834 12.8867 15.668V14.5742C12.8867 14.3887 13.0137 14.2617 13.1992 14.2617H14.1562C14.3418 14.2617 14.459 14.3887 14.459 14.5742V15.668C14.459 15.834 14.3418 15.9707 14.1562 15.9707H13.1992ZM23.8926 15.9707C23.707 15.9707 23.5801 15.834 23.5801 15.668V14.5742C23.5801 14.3887 23.707 14.2617 23.8926 14.2617H24.8496C25.0352 14.2617 25.1523 14.3887 25.1523 14.5742V15.668C25.1523 15.834 25.0352 15.9707 24.8496 15.9707H23.8926ZM2.58398 17.3965H8.82422C9.37109 17.3965 9.81055 16.9375 9.81055 16.4004C9.81055 15.8438 9.38086 15.4043 8.82422 15.4043H2.58398C2.03711 15.4043 1.60742 15.8535 1.60742 16.4004C1.60742 16.9375 2.04688 17.3965 2.58398 17.3965ZM13.1992 18.5195C13.0137 18.5195 12.8867 18.3926 12.8867 18.2266V17.123C12.8867 16.9375 13.0137 16.8105 13.1992 16.8105H14.1562C14.3418 16.8105 14.459 16.9375 14.459 17.123V18.2266C14.459 18.3926 14.3418 18.5195 14.1562 18.5195H13.1992ZM23.8926 18.5195C23.707 18.5195 23.5801 18.3926 23.5801 18.2266V17.123C23.5801 16.9375 23.707 16.8105 23.8926 16.8105H24.8496C25.0352 16.8105 25.1523 16.9375 25.1523 17.123V18.2266C25.1523 18.3926 25.0352 18.5195 24.8496 18.5195H23.8926ZM15.9238 20.8145C15.7188 20.8145 15.5723 20.668 15.5723 20.4629V17.5723C15.5723 17.3574 15.7188 17.2109 15.9238 17.2109H22.125C22.3398 17.2109 22.4766 17.3574 22.4766 17.5723V20.4629C22.4766 20.668 22.3398 20.8145 22.125 20.8145H15.9238ZM13.1992 21.0879C13.0137 21.0879 12.8867 20.9707 12.8867 20.7852V19.6914C12.8867 19.4961 13.0137 19.3789 13.1992 19.3789H14.1562C14.3418 19.3789 14.459 19.4961 14.459 19.6914V20.7852C14.459 20.9707 14.3418 21.0879 14.1562 21.0879H13.1992ZM23.8926 21.0879C23.707 21.0879 23.5801 20.9707 23.5801 20.7852V19.6914C23.5801 19.4961 23.707 19.3789 23.8926 19.3789H24.8496C25.0352 19.3789 25.1523 19.4961 25.1523 19.6914V20.7852C25.1523 20.9707 25.0352 21.0879 24.8496 21.0879H23.8926ZM2.58398 22.5137H8.82422C9.37109 22.5137 9.81055 22.0547 9.81055 21.5176C9.81055 20.9609 9.38086 20.5215 8.82422 20.5215H2.58398C2.03711 20.5215 1.60742 20.9707 1.60742 21.5176C1.60742 22.0547 2.04688 22.5137 2.58398 22.5137Z" fill="black"/>
</svg>
