<svg width="28" height="28" viewBox="0 0 28 28" fill="none" xmlns="http://www.w3.org/2000/svg">
<path d="M4.00977 20.1523H5.94336V21.7959C5.94336 24.0195 7.06055 25.126 9.31641 25.126H23.9902C26.2246 25.126 27.3633 24.0088 27.3633 21.7959V11.666C27.3633 9.45312 26.2246 8.33594 23.9902 8.33594H21.9385V6.69238C21.9385 4.47949 20.7998 3.3623 18.5654 3.3623H4.00977C1.75391 3.3623 0.636719 4.47949 0.636719 6.69238V16.8223C0.636719 19.0459 1.75391 20.1523 4.00977 20.1523ZM4.03125 18.4229C2.95703 18.4229 2.36621 17.8535 2.36621 16.7363V6.78906C2.36621 5.67188 2.95703 5.0918 4.03125 5.0918H18.5332C19.5967 5.0918 20.209 5.67188 20.209 6.78906V8.33594H9.31641C7.06055 8.33594 5.94336 9.45312 5.94336 11.666V18.4229H4.03125ZM9.33789 23.3965C8.26367 23.3965 7.67285 22.8271 7.67285 21.71V11.7627C7.67285 10.6455 8.26367 10.0654 9.33789 10.0654H23.958C25.0215 10.0654 25.6338 10.6455 25.6338 11.7627V21.71C25.6338 22.8271 25.0215 23.3965 23.958 23.3965H9.33789ZM12.7754 20.9688C12.7754 21.7744 13.1299 22.1504 13.8711 22.1504H19.4355C20.1875 22.1504 20.542 21.7744 20.542 20.9688V16.6934C20.542 15.9414 20.2305 15.5654 19.5859 15.5225V14.2549C19.5859 12.2783 18.4043 10.957 16.6533 10.957C14.9131 10.957 13.7207 12.2783 13.7207 14.2549V15.5225C13.0869 15.5654 12.7754 15.9414 12.7754 16.6934V20.9688ZM14.8379 15.5117V14.1367C14.8379 12.8691 15.5684 12.042 16.6533 12.042C17.749 12.042 18.4688 12.8691 18.4688 14.1367V15.5117H14.8379Z" fill="black"/>
</svg>
