<svg width="28" height="28" viewBox="0 0 28 28" fill="none" xmlns="http://www.w3.org/2000/svg">
<path d="M8.63281 25.7539H19.3672C21.125 25.7539 21.9922 24.875 21.9922 22.9648V14.8906C21.9922 13.2266 21.3242 12.3477 19.9648 12.1602V9.32422C19.9648 4.90625 17.0703 2.77344 14 2.77344C10.9297 2.77344 8.03516 4.90625 8.03516 9.32422V12.1602C6.67578 12.3477 6.00781 13.2266 6.00781 14.8906V22.9648C6.00781 24.875 6.875 25.7539 8.63281 25.7539ZM9.92188 9.07812C9.92188 6.13672 11.8086 4.57812 14 4.57812C16.1914 4.57812 18.0781 6.13672 18.0781 9.07812V12.125H9.92188V9.07812ZM8.70312 23.9961C8.16406 23.9961 7.89453 23.75 7.89453 23.0938V14.7734C7.89453 14.1172 8.16406 13.8828 8.70312 13.8828H19.3086C19.8477 13.8828 20.1055 14.1172 20.1055 14.7734V23.0938C20.1055 23.75 19.8477 23.9961 19.3086 23.9961H8.70312Z" fill="black"/>
</svg>
