<svg width="28" height="28" viewBox="0 0 28 28" fill="none" xmlns="http://www.w3.org/2000/svg">
<path d="M8.42188 25.6367H19.5781C21.0898 25.6367 21.8281 24.8867 21.8281 23.2461V14.6445C21.8281 13.168 21.2188 12.4062 19.9648 12.2773V9.32422C19.9648 4.90625 17.0703 2.77344 14 2.77344C10.9297 2.77344 8.03516 4.90625 8.03516 9.32422V12.3359C6.88672 12.5117 6.17188 13.2617 6.17188 14.6445V23.2461C6.17188 24.8867 6.91016 25.6367 8.42188 25.6367ZM9.92188 9.07812C9.92188 6.13672 11.8086 4.57812 14 4.57812C16.1914 4.57812 18.0781 6.13672 18.0781 9.07812V12.2656L9.92188 12.2773V9.07812Z" fill="black"/>
</svg>
