<svg width="28" height="28" viewBox="0 0 28 28" fill="none" xmlns="http://www.w3.org/2000/svg">
<path d="M2.55078 12.3359C2.55078 17.4922 6.74609 21.6875 11.9023 21.6875C13.9414 21.6875 15.8047 21.0312 17.3398 19.9297L23.1055 25.707C23.375 25.9766 23.7266 26.1055 24.1016 26.1055C24.8984 26.1055 25.4492 25.5078 25.4492 24.7227C25.4492 24.3477 25.3086 24.0078 25.0625 23.7617L19.332 17.9961C20.5391 16.4258 21.2539 14.4688 21.2539 12.3359C21.2539 7.17969 17.0586 2.98438 11.9023 2.98438C6.74609 2.98438 2.55078 7.17969 2.55078 12.3359ZM4.55469 12.3359C4.55469 8.28125 7.84766 4.98828 11.9023 4.98828C15.957 4.98828 19.25 8.28125 19.25 12.3359C19.25 16.3906 15.957 19.6836 11.9023 19.6836C7.84766 19.6836 4.55469 16.3906 4.55469 12.3359Z" fill="black"/>
</svg>
