<svg width="28" height="28" viewBox="0 0 28 28" fill="none" xmlns="http://www.w3.org/2000/svg">
<path d="M4.49463 23.3174C3.75635 23.3174 3.33594 22.8867 3.33594 22.1279V8.33643C3.33594 7.64941 3.61279 7.15723 4.21777 6.80859L9.5498 3.77344C9.86768 3.58887 10.2368 3.48633 10.606 3.48633C10.9648 3.48633 11.3237 3.58887 11.6416 3.77344L17.2095 7.18799L22.644 4.16309C22.9824 3.97852 23.249 3.89648 23.5054 3.89648C24.2437 3.89648 24.6641 4.31689 24.6641 5.07568V18.8877C24.6641 19.5747 24.3872 20.0669 23.772 20.4053L18.4092 23.4507C18.1016 23.625 17.7427 23.7173 17.3838 23.7173C17.0044 23.7173 16.6045 23.6147 16.2354 23.4097L10.5649 20.231L5.3457 23.0405C5.01758 23.2251 4.75098 23.3174 4.49463 23.3174ZM9.89844 18.6006V5.50635C9.77539 5.57812 9.6626 5.63965 9.5293 5.71143L5.3252 8.17236C5.0791 8.31592 4.98682 8.49023 4.98682 8.73633V21.0308C4.98682 21.1333 5.03809 21.1948 5.12012 21.1948C5.17139 21.1948 5.22266 21.1641 5.27393 21.1436L9.89844 18.6006ZM11.5493 18.7646L15.9995 21.2769C16.1533 21.3589 16.3071 21.4307 16.4507 21.5127V8.69531L11.8774 5.90625C11.7749 5.84473 11.6519 5.7832 11.5493 5.72168V18.7646ZM18.1016 21.6973C18.2554 21.6255 18.4092 21.5332 18.563 21.4409L22.6748 19.0518C22.9106 18.9082 23.0132 18.7339 23.0132 18.4775V6.18311C23.0132 6.08057 22.9619 6.01904 22.8696 6.01904C22.8286 6.01904 22.7773 6.03955 22.7261 6.07031L18.1016 8.59277V21.6973Z" fill="white"/>
</svg>
