<svg width="28" height="28" viewBox="0 0 28 28" fill="none" xmlns="http://www.w3.org/2000/svg">
<g clip-path="url(#clip0_17211_274085)">
<path d="M1.04013e-05 27.0632L0.937012 28.0002L3.46488 25.4723L2.52788 24.5353L1.04013e-05 27.0632Z" fill="black"/>
<path d="M0.00927734 27.0538L2.53715 24.5442L3.45557 25.4813L0.936941 27.9814L0.00927734 27.0538Z" fill="black"/>
<path d="M14.4201 8.07153L2.37744 22.5567L5.44328 25.6226L19.9285 13.5798L14.4201 8.07153ZM5.44328 25.6226L19.9285 13.5799L5.44328 25.6226Z" fill="black"/>
<path d="M2.38672 22.5475L14.4302 8.07983L19.9192 13.5889L5.44413 25.6048L2.38672 22.5475Z" fill="black"/>
<path d="M14.9413 6.59097L21.4091 13.0588C23.0236 13.0773 24.6397 12.4889 25.9059 11.3152L16.6848 2.09424C15.5112 3.36036 14.9228 4.97649 14.9413 6.59097Z" fill="black"/>
<path d="M21.4091 13.0458L14.9505 6.58175C14.9352 4.92811 15.5531 3.33446 16.6943 2.10333L25.8964 11.3244C24.6862 12.428 23.1188 13.0462 21.4834 13.0462L21.4091 13.0458Z" fill="black"/>
<path d="M26.0915 1.9088C23.9178 -0.264919 20.595 -0.579372 18.0806 0.95155L27.0487 9.91959C28.5796 7.40517 28.2651 4.08241 26.0915 1.9088Z" fill="black"/>
<path d="M18.0898 0.94225C19.1076 0.341563 20.2813 0.0130005 21.4815 0.0130005C23.2198 0.0130005 24.8537 0.68954 26.0821 1.91788C28.2092 4.04511 28.6045 7.32445 27.046 9.89842L18.0898 0.94225Z" fill="black"/>
</g>
<defs>
<clipPath id="clip0_17211_274085">
<rect width="28" height="28" fill="white"/>
</clipPath>
</defs>
</svg>
