<svg width="28" height="28" viewBox="0 0 28 28" fill="none" xmlns="http://www.w3.org/2000/svg">
<path d="M4.91797 13.9531C4.91797 15.5703 5.25 16.9922 5.91406 18.2188C6.58594 19.4453 7.51172 20.4336 8.69141 21.1836C9.87109 21.9258 11.2227 22.375 12.7461 22.5312V24.3945H8.73828C8.37109 24.3945 8.05469 24.5234 7.78906 24.7812C7.52344 25.0391 7.39062 25.3477 7.39062 25.707C7.39062 26.0664 7.52344 26.3711 7.78906 26.6211C8.05469 26.8789 8.37109 27.0078 8.73828 27.0078H19.2734C19.6328 27.0078 19.9453 26.8789 20.2109 26.6211C20.4766 26.3711 20.6094 26.0664 20.6094 25.707C20.6094 25.3477 20.4766 25.0391 20.2109 24.7812C19.9453 24.5234 19.6328 24.3945 19.2734 24.3945H15.2539V22.5312C16.7773 22.375 18.1289 21.9258 19.3086 21.1836C20.4883 20.4336 21.4102 19.4453 22.0742 18.2188C22.7461 16.9922 23.082 15.5703 23.082 13.9531V11.832C23.082 11.4727 22.9531 11.168 22.6953 10.918C22.4453 10.668 22.1367 10.543 21.7695 10.543C21.4023 10.543 21.0859 10.668 20.8203 10.918C20.5625 11.168 20.4336 11.4727 20.4336 11.832V13.8594C20.4336 15.1172 20.1562 16.2148 19.6016 17.1523C19.0547 18.0898 18.2969 18.8164 17.3281 19.332C16.3594 19.8477 15.25 20.1055 14 20.1055C12.75 20.1055 11.6406 19.8477 10.6719 19.332C9.70312 18.8164 8.94141 18.0898 8.38672 17.1523C7.83984 16.2148 7.56641 15.1172 7.56641 13.8594V11.832C7.56641 11.4727 7.43359 11.168 7.16797 10.918C6.91016 10.668 6.59766 10.543 6.23047 10.543C5.86328 10.543 5.55078 10.668 5.29297 10.918C5.04297 11.168 4.91797 11.4727 4.91797 11.832V13.9531ZM14 17.9141C14.7656 17.9141 15.4609 17.7344 16.0859 17.375C16.7109 17.0156 17.2109 16.5117 17.5859 15.8633C17.9609 15.2148 18.1484 14.4648 18.1484 13.6133V6.08984C18.1484 5.23047 17.9609 4.47656 17.5859 3.82812C17.2109 3.17969 16.7109 2.67578 16.0859 2.31641C15.4609 1.95703 14.7656 1.77734 14 1.77734C13.2344 1.77734 12.5352 1.95703 11.9023 2.31641C11.2773 2.67578 10.7773 3.17969 10.4023 3.82812C10.0273 4.46875 9.83984 5.21875 9.83984 6.07812V13.6133C9.83984 14.4648 10.0273 15.2148 10.4023 15.8633C10.7773 16.5117 11.2773 17.0156 11.9023 17.375C12.5352 17.7344 13.2344 17.9141 14 17.9141Z" fill="black"/>
</svg>
