<svg width="28" height="28" viewBox="0 0 28 28" fill="none" xmlns="http://www.w3.org/2000/svg">
<path d="M20.2549 8.20318C20.2549 8.54156 20.0396 8.80816 19.6909 8.87993L15.0049 9.90532C14.5229 10.0079 14.4204 10.1207 14.4204 10.6641V20.0464C14.4204 23.0303 12.1646 24.1377 10.6572 24.1377C8.95508 24.1377 7.74512 23.0406 7.74512 21.4717C7.74512 19.9234 8.70898 18.8775 10.7598 18.4468L12.3901 18.1084C12.8413 18.0162 13.0771 17.688 13.0259 17.1856L13.0054 5.78325C13.0054 5.20904 13.3643 4.85015 14.0205 4.70659L19.291 3.55816C19.814 3.45562 20.2549 3.80425 20.2549 4.34771V8.20318Z" fill="white"/>
</svg>
