<svg width="28" height="28" viewBox="0 0 28 28" fill="none" xmlns="http://www.w3.org/2000/svg">
<path d="M2.34131 21.4922C2.34131 23.5327 3.35645 24.5889 5.43799 24.5889H22.439C24.5923 24.5889 25.6587 23.5327 25.6587 21.4204V5.7832C25.6587 3.6709 24.5923 2.60449 22.439 2.60449H10.083C7.93994 2.60449 6.86328 3.6709 6.86328 5.7832V10.6743H4.4126C3.11035 10.6743 2.34131 11.3818 2.34131 12.6021V21.4922ZM8.16553 22.938C8.39111 22.4971 8.51416 21.9844 8.51416 21.3896V5.87549C8.51416 4.80908 9.08838 4.25537 10.1138 4.25537H22.4082C23.4336 4.25537 24.0078 4.80908 24.0078 5.87549V21.3281C24.0078 22.3945 23.4336 22.938 22.4082 22.938H8.16553ZM11.1802 8.71582H21.3623C21.7212 8.71582 21.998 8.42871 21.998 8.06982C21.998 7.72119 21.7212 7.45459 21.3623 7.45459H11.1802C10.811 7.45459 10.5342 7.72119 10.5342 8.06982C10.5342 8.42871 10.811 8.71582 11.1802 8.71582ZM11.1802 12.3252H21.3623C21.7212 12.3252 21.998 12.0483 21.998 11.6997C21.998 11.3408 21.7212 11.064 21.3623 11.064H11.1802C10.811 11.064 10.5342 11.3408 10.5342 11.6997C10.5342 12.0483 10.811 12.3252 11.1802 12.3252ZM3.99219 21.4922V12.9199C3.99219 12.5405 4.21777 12.3252 4.59717 12.3252H6.86328V21.4922C6.86328 22.3433 6.23779 22.938 5.43799 22.938C4.62793 22.938 3.99219 22.3125 3.99219 21.4922ZM11.7852 19.6362H14.4409C15.2202 19.6362 15.6919 19.1646 15.6919 18.3853V15.9448C15.6919 15.1553 15.2202 14.6836 14.4409 14.6836H11.7852C10.9956 14.6836 10.5239 15.1553 10.5239 15.9448V18.3853C10.5239 19.1646 10.9956 19.6362 11.7852 19.6362ZM17.5376 15.9448H21.3521C21.7212 15.9448 21.9878 15.6782 21.9878 15.3296C21.9878 14.9604 21.7212 14.6836 21.3521 14.6836H17.5376C17.1685 14.6836 16.9019 14.9604 16.9019 15.3296C16.9019 15.6782 17.1685 15.9448 17.5376 15.9448ZM17.5376 19.6362H21.3521C21.7212 19.6362 21.9878 19.3696 21.9878 19.021C21.9878 18.6621 21.7212 18.375 21.3521 18.375H17.5376C17.1685 18.375 16.9019 18.6621 16.9019 19.021C16.9019 19.3696 17.1685 19.6362 17.5376 19.6362Z" fill="black"/>
</svg>
