<svg width="24" height="25" viewBox="0 0 24 25" fill="none" xmlns="http://www.w3.org/2000/svg">
<path d="M12 24.4922C5.46094 24.4922 0.046875 19.0664 0.046875 12.5391C0.046875 6 5.47266 0.585938 12.0117 0.585938C18.5391 0.585938 23.9531 6 23.9531 12.5391C23.9531 19.0664 18.5273 24.4922 12 24.4922ZM12.0117 2.57812C6.48047 2.57812 2.05078 7.00781 2.03906 12.5391C2.02734 14.9883 2.90625 17.2266 4.35938 18.9492L18.4102 4.89844C16.6875 3.44531 14.4609 2.57812 12.0117 2.57812ZM12 22.5C17.5312 22.5 21.9492 18.0703 21.9492 12.5391C21.9492 10.1016 21.0938 7.875 19.6523 6.14062L5.60156 20.1914C7.33594 21.6328 9.5625 22.5 12 22.5Z" fill="#3C3C43" fill-opacity="0.6"/>
</svg>
