<svg width="14" height="15" viewBox="0 0 14 15" fill="none" xmlns="http://www.w3.org/2000/svg">
<path d="M7.00028 14.6383C10.7369 14.6383 13.8306 11.5378 13.8306 7.8079C13.8306 4.07129 10.7302 0.977539 6.99358 0.977539C3.26367 0.977539 0.169922 4.07129 0.169922 7.8079C0.169922 11.5378 3.27037 14.6383 7.00028 14.6383ZM6.99358 2.11593C10.1543 2.11593 12.6855 4.64718 12.6922 7.8079C12.6989 9.20745 12.1967 10.4865 11.3664 11.4708L3.33733 3.44182C4.32171 2.61147 5.59403 2.11593 6.99358 2.11593ZM7.00028 13.4999C3.83956 13.4999 1.31501 10.9686 1.31501 7.8079C1.31501 6.41504 1.80385 5.14272 2.62751 4.15165L10.6565 12.1807C9.66546 13.0043 8.39314 13.4999 7.00028 13.4999Z" fill="white"/>
</svg>
