<svg width="28" height="28" viewBox="0 0 28 28" fill="none" xmlns="http://www.w3.org/2000/svg">
<path d="M14 26.4922C20.5391 26.4922 25.9531 21.0664 25.9531 14.5391C25.9531 8 20.5273 2.58594 13.9883 2.58594C7.46094 2.58594 2.04688 8 2.04688 14.5391C2.04688 21.0664 7.47266 26.4922 14 26.4922ZM13.9883 4.57812C19.5195 4.57812 23.9492 9.00781 23.9609 14.5391C23.9727 16.9883 23.0938 19.2266 21.6406 20.9492L7.58984 6.89844C9.3125 5.44531 11.5391 4.57812 13.9883 4.57812ZM14 24.5C8.46875 24.5 4.05078 20.0703 4.05078 14.5391C4.05078 12.1016 4.90625 9.875 6.34766 8.14062L20.3984 22.1914C18.6641 23.6328 16.4375 24.5 14 24.5Z" fill="black"/>
</svg>
