<svg width="28" height="28" viewBox="0 0 28 28" fill="none" xmlns="http://www.w3.org/2000/svg">
<path d="M14 26C20.581 26 26 20.581 26 14C26 7.43049 20.5695 2 13.9885 2C7.41898 2 2 7.43049 2 14C2 20.581 7.41898 26 14 26ZM14.7133 19.465C13.908 19.465 13.4132 18.9933 13.4132 18.0614V11.1467H13.3097L11.9636 12.0326C11.6414 12.2512 11.4918 12.2857 11.2502 12.2857C10.744 12.2857 10.3758 11.86 10.3758 11.3653C10.3758 10.9511 10.5369 10.6865 10.9051 10.4449L12.93 9.08725C13.5513 8.66155 13.9885 8.51198 14.5753 8.51198C15.4612 8.51198 16.0249 9.06424 16.0249 9.92713V18.0614C16.0249 18.9933 15.5187 19.465 14.7133 19.465Z" fill="black"/>
</svg>
