<svg width="28" height="28" viewBox="0 0 28 28" fill="none" xmlns="http://www.w3.org/2000/svg">
<path d="M14 26C20.581 26 26 20.581 26 14C26 7.43049 20.5695 2 13.9885 2C7.41898 2 2 7.43049 2 14C2 20.581 7.41898 26 14 26ZM13.977 19.6491C11.9751 19.6491 10.3528 18.7402 9.95014 17.4056C9.90412 17.21 9.86961 17.0719 9.86961 16.8648C9.86961 16.2435 10.3183 15.8408 10.9856 15.8408C11.4688 15.8408 11.791 16.0479 12.0211 16.4851C12.3317 17.187 12.953 17.6817 14.023 17.6817C15.139 17.6817 15.8869 17.1179 15.8869 16.278C15.8869 15.4151 15.1505 14.8399 14.023 14.8399H13.4362C12.815 14.8399 12.3893 14.4487 12.3893 13.8734C12.3893 13.2752 12.8035 12.907 13.4362 12.907H13.977C14.9204 12.907 15.5992 12.3317 15.5992 11.5149C15.5992 10.7555 14.9895 10.2838 14.023 10.2838C13.1141 10.2838 12.4698 10.7325 12.1937 11.4688C11.9636 11.906 11.6414 12.1246 11.1582 12.1246C10.4909 12.1246 10.0537 11.722 10.0537 11.1122C10.0537 10.9166 10.0767 10.744 10.1342 10.5599C10.5024 9.1908 12.0096 8.33941 14.046 8.33941C16.4046 8.33941 18.0153 9.52445 18.0153 11.2502C18.0153 12.4353 17.0949 13.5053 15.9214 13.6663V13.7814C17.325 13.908 18.3605 15.024 18.3605 16.4046C18.3605 18.3375 16.6807 19.6491 13.977 19.6491Z" fill="black"/>
</svg>
