<svg width="28" height="28" viewBox="0 0 28 28" fill="none" xmlns="http://www.w3.org/2000/svg">
<path d="M14 26C20.581 26 26 20.581 26 14C26 7.43049 20.5695 2 13.9885 2C7.41898 2 2 7.43049 2 14C2 20.581 7.41898 26 14 26ZM11.2848 19.373C10.6174 19.373 10.1802 18.9588 10.1802 18.349C10.1802 18.0038 10.2953 17.6702 10.6635 17.325L14.1726 13.7814C14.9319 13.0451 15.5187 12.4123 15.5187 11.6759C15.5187 10.8936 14.9319 10.3758 14.023 10.3758C13.0796 10.3758 12.5733 11.0086 12.2627 11.6069C12.0326 11.9521 11.7565 12.2627 11.2157 12.2627C10.5599 12.2627 10.1227 11.8945 10.1227 11.2733C10.1227 11.0892 10.1457 10.8936 10.2148 10.698C10.652 9.34036 12.2167 8.33941 14.046 8.33941C16.3931 8.33941 17.9578 9.60499 17.9578 11.4688C17.9578 12.7229 17.256 13.6779 16.0479 14.8284L13.7584 17.1985V17.2905H17.325C18.0153 17.2905 18.4525 17.6817 18.4525 18.326C18.4525 18.9703 18.0038 19.373 17.325 19.373H11.2848Z" fill="black"/>
</svg>
