<svg width="260" height="261" viewBox="0 0 260 261" fill="none" xmlns="http://www.w3.org/2000/svg">
<path d="M5.42077 31.885C12.1835 38.6477 21.8445 38.2336 30.1599 29.9183C38.4407 21.6374 38.6478 12.1834 31.8851 5.4207C25.0878 -1.37651 15.6684 -1.204 7.35298 7.11138C-0.962396 15.4268 -1.37644 25.0878 5.42077 31.885ZM9.83724 27.4685C6.00734 23.6386 7.11145 17.773 12.563 12.3214C18.0146 6.86985 23.6732 5.97276 27.5031 9.80266C31.2985 13.5981 30.4359 19.2912 24.9843 24.7427C19.5328 30.1943 13.6326 31.2639 9.83724 27.4685Z" fill="white"/>
<path d="M30.9373 57.4015C37.1824 63.6466 44.2902 63.7847 52.7436 55.3313L66.8211 41.2538L61.9215 36.3543L47.3955 50.8803C42.1165 56.1594 38.3556 55.9868 35.3537 52.985C32.3519 49.9832 32.2829 46.3258 37.562 41.0468L52.088 26.5207L47.016 21.4487L32.9385 35.5262C24.4851 43.9796 24.6921 51.1563 30.9373 57.4015Z" fill="white"/>
<path d="M51.8136 77.3117L56.9201 82.4182L78.2089 61.1295L85.4201 68.3408L89.6641 64.0968L70.135 44.5678L65.8911 48.8117L73.1023 56.023L51.8136 77.3117Z" fill="white"/>
<path d="M84.4044 110.869C91.1671 117.631 100.828 117.217 109.144 108.902C117.424 100.621 117.631 91.1671 110.869 84.4043C104.071 77.6071 94.652 77.7797 86.3366 86.095C78.0213 94.4104 77.6072 104.071 84.4044 110.869ZM88.8209 106.452C84.991 102.622 86.0951 96.7566 91.5467 91.3051C96.9982 85.8535 102.657 84.9564 106.487 88.7863C110.282 92.5817 109.42 98.2748 103.968 103.726C98.5164 109.178 92.6163 110.248 88.8209 106.452Z" fill="white"/>
<path d="M100.605 126.103L105.711 131.21L116.063 120.859L125.137 129.933L129.381 125.689L120.307 116.615L127 109.921L137.627 120.548L141.871 116.304L126.138 100.57L100.605 126.103Z" fill="white"/>
<path d="M134.368 160.832C140.233 166.697 147.272 166.628 151.447 162.453C155.104 158.796 155.07 154.759 153.276 150.412L151.309 145.685C149.998 142.648 148.859 140.13 150.688 138.301C152.344 136.645 154.759 137.059 157.002 139.301C159.107 141.406 160.038 143.856 160.349 146.858L166.111 146.202C166.145 142.027 164.351 137.887 161.384 134.92C156.243 129.778 149.342 129.295 145.167 133.47C141.475 137.162 141.993 141.889 143.511 145.478L145.478 150.343C146.789 153.586 147.72 155.76 145.823 157.657C144.063 159.417 141.544 159.176 138.888 156.519C136.645 154.276 135.299 150.722 135.196 147.237L128.743 147.824C128.847 152.689 130.917 157.381 134.368 160.832Z" fill="white"/>
<path d="M152.161 177.659L157.268 182.766L178.556 161.477L185.768 168.688L190.012 164.444L170.483 144.915L166.239 149.159L173.45 156.371L152.161 177.659Z" fill="white"/>
<path d="M176.378 202.842C183.141 209.605 192.802 209.191 201.117 200.876C209.398 192.595 209.605 183.141 202.842 176.378C196.045 169.581 186.626 169.753 178.31 178.069C169.995 186.384 169.581 196.045 176.378 202.842ZM180.795 198.426C176.965 194.596 178.069 188.73 183.52 183.279C188.972 177.827 194.631 176.93 198.46 180.76C202.256 184.555 201.393 190.249 195.942 195.7C190.49 201.152 184.59 202.221 180.795 198.426Z" fill="white"/>
<path d="M202.481 228.945C205.794 232.258 209.796 233.707 214.35 233.362L214.868 227.462C212.039 227.6 209.278 226.91 207.105 224.736C203.033 220.665 203.758 214.764 209.347 209.175C214.799 203.723 221.01 203.309 224.84 207.139C226.806 209.106 227.393 211.418 227.427 214.005L233.396 213.419C233.465 210.037 232.396 205.932 229.153 202.688C222.666 196.201 212.384 195.718 203.965 204.137C195.442 212.66 196.029 222.493 202.481 228.945Z" fill="white"/>
<path d="M214.532 240.03L219.638 245.136L226.815 237.96L234.44 237.028L229.61 255.108L235.165 260.663L241.479 235.993L259.352 233.785L253.728 228.16L234.164 230.748L234.095 230.679L245.171 219.604L240.064 214.497L214.532 240.03Z" fill="white"/>
</svg>
