<svg width="28" height="28" viewBox="0 0 28 28" fill="none" xmlns="http://www.w3.org/2000/svg">
<path d="M15.793 27.5C16.6367 27.5 17.2344 26.7734 17.668 25.6484L25.3438 5.59766C25.5547 5.05859 25.6719 4.57812 25.6719 4.17969C25.6719 3.41797 25.2031 2.94922 24.4414 2.94922C24.043 2.94922 23.5625 3.06641 23.0234 3.27734L2.86719 11C1.88281 11.375 1.12109 11.9727 1.12109 12.8281C1.12109 13.9062 1.94141 14.2695 3.06641 14.6094L11.5273 17.0938L13.9883 25.4492C14.3398 26.6328 14.7031 27.5 15.793 27.5ZM12.0547 15.3125L3.96875 12.8398C3.78125 12.7812 3.72266 12.7344 3.72266 12.6523C3.72266 12.5703 3.76953 12.5117 3.94531 12.4414L19.7891 6.44141C20.7266 6.08984 21.6289 5.62109 22.4961 5.22266C21.7227 5.85547 20.7617 6.60547 20.1172 7.25L12.0547 15.3125ZM15.9805 24.9219C15.8867 24.9219 15.8398 24.8398 15.7812 24.6523L13.3086 16.5664L21.3711 8.50391C22.0039 7.87109 22.7891 6.88672 23.4102 6.08984C23.0117 6.98047 22.5312 7.88281 22.1797 8.83203L16.1797 24.6758C16.1094 24.8516 16.0625 24.9219 15.9805 24.9219Z" fill="black"/>
</svg>
