<svg width="28" height="28" viewBox="0 0 28 28" fill="none" xmlns="http://www.w3.org/2000/svg">
<path d="M8.41016 24.0898H11.082C12.1016 24.0898 12.6406 23.5508 12.6406 22.5195V6.55859C12.6406 5.49219 12.1016 5 11.082 5H8.41016C7.39062 5 6.85156 5.53906 6.85156 6.55859V22.5195C6.85156 23.5508 7.39062 24.0898 8.41016 24.0898ZM16.9297 24.0898H19.5898C20.6211 24.0898 21.1484 23.5508 21.1484 22.5195V6.55859C21.1484 5.49219 20.6211 5 19.5898 5H16.9297C15.8984 5 15.3594 5.53906 15.3594 6.55859V22.5195C15.3594 23.5508 15.8984 24.0898 16.9297 24.0898Z" fill="black"/>
</svg>
