<svg width="28" height="28" viewBox="0 0 28 28" fill="none" xmlns="http://www.w3.org/2000/svg">
<path d="M14 27C21.1157 27 27 21.1157 27 14C27 6.87139 21.1157 1 13.987 1C6.87139 1 1 6.87139 1 14C1 21.1157 6.88435 27 14 27ZM14 25.3151C7.72682 25.3151 2.68495 20.2602 2.68495 14C2.68495 7.72682 7.72682 2.67198 13.987 2.67198C20.2602 2.67198 25.3151 7.72682 25.328 14C25.328 20.2602 20.2732 25.3151 14 25.3151ZM17.344 13.4816C18.7308 13.4816 19.8584 12.2502 19.8584 10.656C19.8584 9.12662 18.7178 7.9342 17.344 7.9342C15.9701 7.9342 14.8166 9.15254 14.8295 10.669C14.8295 12.2502 15.9571 13.4816 17.344 13.4816ZM9.98205 13.6112C11.1874 13.6112 12.1854 12.5484 12.1854 11.1615C12.1854 9.82652 11.1745 8.78963 9.98205 8.78963C8.78963 8.78963 7.77866 9.83948 7.77866 11.1745C7.79163 12.5484 8.77667 13.6112 9.98205 13.6112ZM6.33998 19.327H11.4855C10.8116 18.5623 11.4855 16.6181 12.8853 15.5035C12.1725 14.9721 11.2263 14.5962 9.98205 14.5962C7.10469 14.5962 5.31605 16.683 5.31605 18.4716C5.31605 19.0419 5.61416 19.327 6.33998 19.327ZM13.2094 19.327H21.4656C22.334 19.327 22.6839 19.0678 22.6839 18.5105C22.6839 16.8774 20.6361 14.6221 17.344 14.6221C14.0389 14.6221 11.9781 16.8774 11.9781 18.5105C11.9781 19.0678 12.341 19.327 13.2094 19.327Z" fill="black"/>
</svg>
