<svg width="28" height="28" viewBox="0 0 28 28" fill="none" xmlns="http://www.w3.org/2000/svg">
<path d="M14 26.4922C20.5391 26.4922 25.9531 21.0664 25.9531 14.5391C25.9531 8 20.5273 2.58594 13.9883 2.58594C7.46094 2.58594 2.04688 8 2.04688 14.5391C2.04688 21.0664 7.47266 26.4922 14 26.4922ZM14 18.5234C10.4727 18.5234 7.76562 19.7891 6.57031 21.1953C5 19.4258 4.05078 17.1055 4.05078 14.5391C4.05078 9.00781 8.45703 4.57812 13.9883 4.57812C19.5195 4.57812 23.9492 9.00781 23.9609 14.5391C23.9727 17.1055 23.0117 19.4375 21.4297 21.1953C20.2461 19.7891 17.5273 18.5234 14 18.5234ZM14 16.5312C16.2617 16.5547 18.0195 14.6328 18.0195 12.1133C18.0195 9.74609 16.25 7.78906 14 7.78906C11.75 7.78906 9.96875 9.74609 9.98047 12.1133C9.99219 14.6328 11.75 16.5078 14 16.5312Z" fill="black"/>
</svg>
