<svg width="28" height="28" viewBox="0 0 28 28" fill="none" xmlns="http://www.w3.org/2000/svg">
<path d="M4.70801 24.1377H23.292C25.5479 24.1377 26.665 23.0312 26.665 20.8184V7.69141C26.665 5.47852 25.5479 4.36133 23.292 4.36133H4.70801C2.46289 4.36133 1.33496 5.47852 1.33496 7.69141V20.8184C1.33496 23.0312 2.46289 24.1377 4.70801 24.1377ZM4.72949 22.4082C3.65527 22.4082 3.06445 21.8389 3.06445 20.7217V7.78809C3.06445 6.6709 3.65527 6.09082 4.72949 6.09082H23.2705C24.334 6.09082 24.9355 6.6709 24.9355 7.78809V20.7217C24.9355 21.8389 24.334 22.4082 23.2705 22.4082H4.72949ZM9.53125 14.2012C10.8418 14.2119 11.8838 13.1055 11.8838 11.6338C11.8838 10.2588 10.8418 9.12012 9.53125 9.12012C8.23145 9.12012 7.17871 10.2588 7.17871 11.6338C7.17871 13.1055 8.23145 14.2012 9.53125 14.2012ZM16.5352 10.71H22.4004C22.7764 10.71 23.0664 10.4199 23.0664 10.0439C23.0664 9.67871 22.7764 9.38867 22.4004 9.38867H16.5352C16.1484 9.38867 15.8584 9.67871 15.8584 10.0439C15.8584 10.4199 16.1484 10.71 16.5352 10.71ZM16.5352 14.9209H22.4004C22.7764 14.9209 23.0664 14.6201 23.0664 14.2441C23.0664 13.8789 22.7764 13.5996 22.4004 13.5996H16.5352C16.1484 13.5996 15.8584 13.8789 15.8584 14.2441C15.8584 14.6201 16.1484 14.9209 16.5352 14.9209ZM5.3418 19.1211H13.7314C14.0859 19.1211 14.2578 18.8848 14.2578 18.5625C14.2578 17.5527 12.7432 14.9531 9.53125 14.9531C6.31934 14.9531 4.81543 17.5527 4.81543 18.5625C4.81543 18.8848 4.9873 19.1211 5.3418 19.1211ZM16.5352 19.1211H22.4004C22.7764 19.1211 23.0664 18.8418 23.0664 18.4766C23.0664 18.1006 22.7764 17.7998 22.4004 17.7998H16.5352C16.1484 17.7998 15.8584 18.1006 15.8584 18.4766C15.8584 18.8418 16.1484 19.1211 16.5352 19.1211Z" fill="black"/>
</svg>
