<svg width="28" height="28" viewBox="0 0 28 28" fill="none" xmlns="http://www.w3.org/2000/svg">
<path d="M9.32422 20.0352C12.5469 23.2578 16.4727 25.7539 19.6719 25.7539C21.1133 25.7539 22.3789 25.25 23.3867 24.1367C23.9727 23.4805 24.3359 22.707 24.3359 21.957C24.3359 21.3945 24.125 20.8438 23.5859 20.4688L20.1758 18.0547C19.6602 17.6797 19.2266 17.5039 18.8281 17.5039C18.3125 17.5039 17.8555 17.7969 17.3516 18.3008L16.5547 19.0859C16.4258 19.2031 16.2734 19.25 16.1328 19.25C15.957 19.25 15.793 19.1914 15.6758 19.1328C14.9961 18.7578 13.8125 17.75 12.7109 16.6602C11.6211 15.5586 10.6016 14.3867 10.25 13.6953C10.1914 13.5781 10.1211 13.4141 10.1211 13.25C10.1211 13.1094 10.168 12.957 10.2969 12.8398L11.082 12.0312C11.5742 11.5156 11.8672 11.0586 11.8672 10.5547C11.8672 10.1562 11.6914 9.71094 11.3164 9.18359L8.92578 5.83203C8.53906 5.28125 7.97656 5.04688 7.36719 5.04688C6.62891 5.04688 5.87891 5.375 5.22266 6.00781C4.13281 7.03906 3.66406 8.32812 3.66406 9.73438C3.66406 12.9453 6.11328 16.8242 9.32422 20.0352Z" fill="black"/>
</svg>
