<svg width="28" height="28" viewBox="0 0 28 28" fill="none" xmlns="http://www.w3.org/2000/svg">
<path d="M3.22853 18.3145C3.58986 20.2969 4.75197 21.1074 6.77346 20.7559L6.97853 20.7266V20.8145C6.97853 22.8359 7.99416 23.8418 10.0449 23.8418H23.3848C25.416 23.8418 26.4414 22.8262 26.4414 20.8145V11.6055C26.4414 9.59375 25.416 8.57813 23.3848 8.57813H21.1778L20.6895 5.88281C20.3379 3.90039 19.166 3.08008 17.1543 3.43164L4.11721 5.72656C2.10549 6.08789 1.27541 7.25977 1.62697 9.24219L3.22853 18.3145ZM4.76174 17.9629L3.18947 9.05664C3.01369 8.05078 3.45314 7.43555 4.41994 7.26953L17.3985 4.98438C18.3457 4.81836 18.9805 5.22852 19.166 6.23438L19.586 8.57813H10.0449C7.99416 8.57813 6.97853 9.59375 6.97853 11.6055V19.125L6.52931 19.2031C5.56252 19.3789 4.93752 18.959 4.76174 17.9629ZM8.5508 11.6934C8.5508 10.6777 9.08791 10.1504 10.0645 10.1504H23.3555C24.3223 10.1504 24.8692 10.6777 24.8692 11.6934V19.3008L21.2266 15.8535C20.8457 15.502 20.377 15.3262 19.8985 15.3262C19.4199 15.3262 18.9903 15.4824 18.5801 15.8438L14.6348 19.3398L13.0723 17.9238C12.6914 17.582 12.3008 17.4258 11.8809 17.4258C11.5 17.4258 11.1387 17.582 10.7578 17.9043L8.5508 19.8281V11.6934ZM13.9317 16.0684C15.0742 16.0684 16.002 15.1211 16.002 13.9785C16.002 12.8555 15.0742 11.9082 13.9317 11.9082C12.7891 11.9082 11.8711 12.8555 11.8711 13.9785C11.8711 15.1211 12.7891 16.0684 13.9317 16.0684Z" fill="black"/>
</svg>
