<svg width="28" height="28" viewBox="0 0 28 28" fill="none" xmlns="http://www.w3.org/2000/svg">
<path d="M5.65332 17.5635C5.65332 18.4766 6.26562 19.0781 7.23242 19.0781H13.0439V24.0947C13.0439 25.7383 13.7314 27.1025 14 27.1025C14.2578 27.1025 14.9453 25.7383 14.9453 24.0947V19.0781H20.7568C21.7236 19.0781 22.3359 18.4766 22.3359 17.5635C22.3359 15.2969 20.5205 12.9014 17.502 11.8057L17.1475 6.875C18.7158 5.9834 20.0049 4.97363 20.5635 4.25391C20.8428 3.88867 20.9824 3.52344 20.9824 3.20117C20.9824 2.5459 20.4775 2.0625 19.7256 2.0625H8.27441C7.51172 2.0625 7.01758 2.5459 7.01758 3.20117C7.01758 3.52344 7.14648 3.88867 7.42578 4.25391C7.98438 4.97363 9.27344 5.9834 10.8418 6.875L10.4873 11.8057C7.46875 12.9014 5.65332 15.2969 5.65332 17.5635Z" fill="black"/>
</svg>
