<svg width="28" height="28" viewBox="0 0 28 28" fill="none" xmlns="http://www.w3.org/2000/svg">
<path d="M8.2395 1C7.47681 1 6.98267 1.4834 6.98267 2.13867C6.98267 2.4502 7.10083 2.80469 7.38013 3.16992C7.92798 3.90039 9.22778 4.9209 10.8069 5.8125L10.7102 7.21973L21.3987 17.8975C21.968 17.6719 22.301 17.1777 22.301 16.501C22.301 14.2344 20.4856 11.8389 17.467 10.7432L17.1125 5.8125C18.6809 4.9209 19.9592 3.92188 20.5178 3.20215C20.8079 2.82617 20.9475 2.46094 20.9475 2.13867C20.9475 1.4834 20.4426 1 19.6907 1H8.2395ZM3.23364 3.96484L22.6555 23.3652C22.9885 23.6875 23.5149 23.6875 23.8264 23.3652C24.1487 23.043 24.1594 22.5166 23.8264 22.1943L4.41528 2.79395C4.09302 2.47168 3.55591 2.46094 3.23364 2.79395C2.92212 3.10547 2.92212 3.64258 3.23364 3.96484ZM5.61841 16.501C5.61841 17.4141 6.23071 18.0156 7.19751 18.0156H13.009V23.0322C13.009 24.6758 13.6965 26.04 13.9651 26.04C14.2229 26.04 14.9104 24.6758 14.9104 23.0322V18.166H15.5334L8.91626 11.5273C6.84302 12.7412 5.61841 14.6533 5.61841 16.501Z" fill="black"/>
</svg>
