<svg width="28" height="28" viewBox="0 0 28 28" fill="none" xmlns="http://www.w3.org/2000/svg">
<path d="M14 26.4922C20.5391 26.4922 25.9531 21.0664 25.9531 14.5391C25.9531 8 20.5273 2.58594 13.9883 2.58594C7.46094 2.58594 2.04688 8 2.04688 14.5391C2.04688 21.0664 7.47266 26.4922 14 26.4922ZM14 24.5C8.46875 24.5 4.05078 20.0703 4.05078 14.5391C4.05078 9.00781 8.45703 4.57812 13.9883 4.57812C19.5195 4.57812 23.9492 9.00781 23.9609 14.5391C23.9727 20.0703 19.5312 24.5 14 24.5ZM11.8086 19.1211L18.4766 15.1719C18.9688 14.8906 18.957 14.2109 18.4766 13.918L11.8086 9.96875C11.3047 9.67578 10.6367 9.89844 10.6367 10.4727V18.6172C10.6367 19.1797 11.2578 19.4492 11.8086 19.1211Z" fill="black"/>
</svg>
