<svg width="28" height="28" viewBox="0 0 28 28" fill="none" xmlns="http://www.w3.org/2000/svg">
<path d="M14 26C20.5647 26 26 20.5529 26 14C26 7.43529 20.5529 2 13.9882 2C7.43529 2 2 7.43529 2 14C2 20.5529 7.44706 26 14 26ZM14 24C8.44706 24 4.01176 19.5529 4.01176 14C4.01176 8.44706 8.43529 4 13.9882 4C19.5412 4 24 8.44706 24 14C24 19.5529 19.5529 24 14 24ZM8.54118 14C8.54118 14.5765 8.94118 14.9647 9.54118 14.9647H13V18.4353C13 19.0235 13.4 19.4353 13.9765 19.4353C14.5647 19.4353 14.9765 19.0353 14.9765 18.4353V14.9647H18.4471C19.0353 14.9647 19.4471 14.5765 19.4471 14C19.4471 13.4118 19.0353 13 18.4471 13H14.9765V9.54118C14.9765 8.94118 14.5647 8.52941 13.9765 8.52941C13.4 8.52941 13 8.94118 13 9.54118V13H9.54118C8.94118 13 8.54118 13.4118 8.54118 14Z" fill="black"/>
</svg>
