<svg width="28" height="28" viewBox="0 0 28 28" fill="none" xmlns="http://www.w3.org/2000/svg">
<path d="M14 26C20.5647 26 26 20.5529 26 14C26 7.43529 20.5529 2 13.9882 2C7.43529 2 2 7.43529 2 14C2 20.5529 7.44706 26 14 26ZM8.25882 14.0118C8.25882 13.4 8.68235 12.9765 9.29412 12.9765H12.9765V9.29412C12.9765 8.68235 13.3882 8.24706 13.9882 8.24706C14.6 8.24706 15.0235 8.68235 15.0235 9.29412V12.9765H18.7176C19.3176 12.9765 19.7529 13.4 19.7529 14.0118C19.7529 14.6118 19.3176 15.0118 18.7176 15.0118H15.0235V18.7059C15.0235 19.3176 14.6 19.7412 13.9882 19.7412C13.3882 19.7412 12.9765 19.3059 12.9765 18.7059V15.0118H9.29412C8.68235 15.0118 8.25882 14.6118 8.25882 14.0118Z" fill="black"/>
</svg>
