<svg width="28" height="28" viewBox="0 0 28 28" fill="none" xmlns="http://www.w3.org/2000/svg">
<path d="M14 26.4922C20.5391 26.4922 25.9531 21.0664 25.9531 14.5391C25.9531 8 20.5273 2.58594 13.9883 2.58594C7.46094 2.58594 2.04688 8 2.04688 14.5391C2.04688 21.0664 7.47266 26.4922 14 26.4922ZM14 24.5C8.46875 24.5 4.05078 20.0703 4.05078 14.5391C4.05078 9.00781 8.45703 4.57812 13.9883 4.57812C19.5195 4.57812 23.9492 9.00781 23.9609 14.5391C23.9727 20.0703 19.5312 24.5 14 24.5ZM13.7539 16.9648C14.3398 16.9648 14.7031 16.5898 14.7031 16.1328V15.9922C14.7031 15.3359 15.0781 14.9141 15.8984 14.375C17.0352 13.625 17.8438 12.9453 17.8438 11.5391C17.8438 9.59375 16.1094 8.53906 14.1172 8.53906C12.1016 8.53906 10.7773 9.5 10.4609 10.5781C10.4023 10.7656 10.3672 10.9531 10.3672 11.1523C10.3672 11.6797 10.7773 11.9609 11.1641 11.9609C11.5625 11.9609 11.8203 11.7734 12.0312 11.4922L12.2422 11.2109C12.6523 10.5312 13.2617 10.1328 14.0469 10.1328C15.1133 10.1328 15.8047 10.7422 15.8047 11.6328C15.8047 12.4297 15.3125 12.8164 14.293 13.5312C13.4492 14.1172 12.8164 14.7383 12.8164 15.8867V16.0391C12.8164 16.6484 13.1562 16.9648 13.7539 16.9648ZM13.7305 20.457C14.4102 20.457 14.9961 19.918 14.9961 19.2383C14.9961 18.5586 14.4219 18.0195 13.7305 18.0195C13.0391 18.0195 12.4648 18.5703 12.4648 19.2383C12.4648 19.9062 13.0508 20.457 13.7305 20.457Z" fill="black"/>
</svg>
