<svg width="28" height="28" viewBox="0 0 28 28" fill="none" xmlns="http://www.w3.org/2000/svg">
<path d="M26.7148 13.959C26.7148 10.6875 25.4844 7.68947 23.3555 5.4629C23.0039 5.09181 22.5254 5.13087 22.252 5.43361C21.9688 5.74611 22.0273 6.18556 22.3594 6.53712C24.2246 8.49025 25.25 11.1074 25.25 13.959C25.25 16.8106 24.2246 19.4277 22.3594 21.3809C22.0273 21.7227 21.9688 22.1719 22.252 22.4746C22.5254 22.7871 23.0039 22.8262 23.3555 22.4551C25.4844 20.2285 26.7148 17.2305 26.7148 13.959ZM1.27539 13.959C1.27539 17.2305 2.50586 20.2285 4.63477 22.4551C4.98633 22.8262 5.46484 22.7871 5.73828 22.4746C6.02148 22.1719 5.96289 21.7227 5.63086 21.3809C3.75586 19.4277 2.74023 16.8106 2.74023 13.959C2.74023 11.1074 3.75586 8.49025 5.63086 6.53712C5.96289 6.18556 6.02148 5.74611 5.73828 5.43361C5.46484 5.13087 4.98633 5.09181 4.63477 5.4629C2.50586 7.68947 1.27539 10.6875 1.27539 13.959ZM4.77148 13.959C4.77148 16.2735 5.60156 18.4317 7.0957 20.043C7.4375 20.4238 7.93555 20.4336 8.22852 20.0918C8.51172 19.7695 8.43359 19.3496 8.10156 18.9883C6.89062 17.6309 6.22656 15.8731 6.22656 13.959C6.22656 12.0449 6.89062 10.2871 8.10156 8.9297C8.43359 8.56837 8.51172 8.14845 8.22852 7.81642C7.93555 7.48439 7.4375 7.48439 7.0957 7.86525C5.60156 9.48634 4.77148 11.6348 4.77148 13.959ZM23.2188 13.959C23.2188 11.6348 22.3887 9.48634 20.8945 7.86525C20.5527 7.48439 20.0547 7.48439 19.7617 7.81642C19.4688 8.14845 19.5566 8.56837 19.8789 8.9297C21.0996 10.2871 21.7637 12.0449 21.7637 13.959C21.7637 15.8731 21.0996 17.6309 19.8789 18.9883C19.5566 19.3496 19.4688 19.7695 19.7617 20.0918C20.0547 20.4336 20.5527 20.4238 20.8945 20.043C22.3887 18.4317 23.2188 16.2735 23.2188 13.959ZM8.25781 13.959C8.25781 15.2676 8.70703 16.4981 9.48828 17.4649C9.81055 17.875 10.3477 17.875 10.6406 17.543C10.9336 17.211 10.8066 16.8203 10.5234 16.4199C9.99609 15.7559 9.72266 14.8965 9.72266 13.959C9.72266 13.0215 9.99609 12.1621 10.5234 11.4883C10.8066 11.0977 10.9336 10.707 10.6406 10.375C10.3477 10.043 9.81055 10.043 9.48828 10.4434C8.70703 11.4102 8.25781 12.6406 8.25781 13.959ZM19.7324 13.959C19.7324 12.6406 19.2832 11.4102 18.502 10.4434C18.1797 10.043 17.6426 10.043 17.3496 10.375C17.0566 10.707 17.1738 11.0977 17.4668 11.4883C17.9941 12.1621 18.2676 13.0215 18.2676 13.959C18.2676 14.8965 17.9941 15.7559 17.4668 16.4199C17.1738 16.8203 17.0566 17.211 17.3496 17.543C17.6426 17.875 18.1797 17.875 18.502 17.4649C19.2832 16.4981 19.7324 15.2676 19.7324 13.959ZM12.2129 13.9785C12.2129 14.9258 13.043 15.7266 14.0098 15.7266C14.9766 15.7266 15.7676 14.9258 15.7676 13.959C15.7676 12.9824 14.9863 12.1817 14.0098 12.1817C13.0234 12.1817 12.2129 13.002 12.2129 13.9785Z" fill="black"/>
</svg>
