<svg width="28" height="28" viewBox="0 0 28 28" fill="none" xmlns="http://www.w3.org/2000/svg">
<path d="M14 26.4922C20.5391 26.4922 25.9531 21.0664 25.9531 14.5391C25.9531 8 20.5273 2.58594 13.9883 2.58594C7.46094 2.58594 2.04688 8 2.04688 14.5391C2.04688 21.0664 7.47266 26.4922 14 26.4922ZM14 24.5C8.46875 24.5 4.05078 20.0703 4.05078 14.5391C4.05078 9.00781 8.45703 4.57812 13.9883 4.57812C19.5195 4.57812 23.9492 9.00781 23.9609 14.5391C23.9727 20.0703 19.5312 24.5 14 24.5ZM9.08984 20.4453L15.8164 17.1641C16.1914 16.9766 16.4492 16.7188 16.6367 16.3555L19.9062 9.64062C20.2812 8.84375 19.707 8.22266 18.8867 8.63281L12.1836 11.9023C11.8203 12.0664 11.5742 12.3125 11.375 12.7109L8.08203 19.4375C7.70703 20.2109 8.31641 20.8203 9.08984 20.4453ZM14 15.9805C13.2031 15.9805 12.5703 15.3359 12.5703 14.5508C12.5703 13.7539 13.2031 13.1094 14 13.1094C14.7969 13.1094 15.4414 13.7539 15.4414 14.5508C15.4414 15.3359 14.7969 15.9805 14 15.9805Z" fill="black"/>
</svg>
