<svg width="28" height="28" viewBox="0 0 28 28" fill="none" xmlns="http://www.w3.org/2000/svg">
<path d="M6.46484 23.8906C6.46484 25.7188 7.74219 26.9375 9.65234 26.9375H18.3359C20.2461 26.9375 21.5234 25.7188 21.5234 23.8906V5.17578C21.5234 3.34766 20.2461 2.12891 18.3359 2.12891H9.65234C7.74219 2.12891 6.46484 3.34766 6.46484 5.17578V23.8906ZM8.35156 23.5859V5.48047C8.35156 4.54297 8.90234 4.01562 9.89844 4.01562H18.1016C19.0859 4.01562 19.6367 4.54297 19.6367 5.48047V23.5859C19.6367 24.5234 19.0859 25.0508 18.1016 25.0508H9.89844C8.90234 25.0508 8.35156 24.5234 8.35156 23.5859Z" fill="black"/>
<path d="M13.2266 17.8203C13.5898 17.8203 13.875 17.6875 14.0664 17.4023L17.6484 12.082C17.7852 11.8828 17.8438 11.6758 17.8438 11.4961C17.8438 10.9805 17.4336 10.5898 16.9023 10.5898C16.543 10.5898 16.3125 10.7188 16.0898 11.0625L13.2109 15.5586L11.7852 13.918C11.5977 13.7031 11.3789 13.6016 11.082 13.6016C10.5469 13.6016 10.1523 13.9922 10.1523 14.5117C10.1523 14.7461 10.2148 14.9336 10.418 15.1641L12.4258 17.4688C12.6406 17.7109 12.8984 17.8203 13.2266 17.8203Z" fill="black"/>
</svg>
