<svg width="28" height="28" viewBox="0 0 28 28" fill="none" xmlns="http://www.w3.org/2000/svg">
<path d="M13.4768 5.87133C13.6335 5.87133 13.7179 5.77488 13.742 5.63021C14.1037 3.67712 14.0675 3.58067 16.1653 3.20693C16.31 3.17076 16.4064 3.08637 16.4064 2.92964C16.4064 2.78496 16.31 2.68851 16.1653 2.6644C14.0675 2.29066 14.1037 2.19421 13.742 0.241122C13.7179 0.0964489 13.6335 0 13.4768 0C13.32 0 13.2356 0.0964489 13.2115 0.241122C12.8498 2.19421 12.886 2.29066 10.7883 2.6644C10.6315 2.68851 10.5471 2.78496 10.5471 2.92964C10.5471 3.08637 10.6315 3.17076 10.7883 3.20693C12.886 3.58067 12.8498 3.67712 13.2115 5.63021C13.2356 5.77488 13.32 5.87133 13.4768 5.87133ZM7.6416 14.1659C7.87067 14.1659 8.0274 14.0092 8.05151 13.7922C8.48553 10.5732 8.59404 10.5732 11.9215 9.93424C12.1265 9.89807 12.2832 9.7534 12.2832 9.52433C12.2832 9.30732 12.1265 9.15059 11.9215 9.12648C8.59404 8.65629 8.47348 8.54779 8.05151 5.28058C8.0274 5.05151 7.87067 4.89478 7.6416 4.89478C7.42459 4.89478 7.26787 5.05151 7.2317 5.29263C6.8459 8.51162 6.66506 8.49956 3.36168 9.12648C3.15673 9.16265 3 9.30732 3 9.52433C3 9.76545 3.15673 9.89807 3.40991 9.93424C6.68917 10.4647 6.8459 10.5491 7.2317 13.7681C7.26787 14.0092 7.42459 14.1659 7.6416 14.1659ZM15.8157 27.5C16.1291 27.5 16.3582 27.2709 16.4185 26.9454C17.2744 20.3507 18.2028 19.338 24.7372 18.6146C25.0747 18.5785 25.3038 18.3374 25.3038 18.0118C25.3038 17.6984 25.0747 17.4573 24.7372 17.4211C18.2028 16.6977 17.2744 15.685 16.4185 9.07826C16.3582 8.75274 16.1291 8.53573 15.8157 8.53573C15.5022 8.53573 15.2731 8.75274 15.2249 9.07826C14.3689 15.685 13.4285 16.6977 6.90618 17.4211C6.55655 17.4573 6.32749 17.6984 6.32749 18.0118C6.32749 18.3374 6.55655 18.5785 6.90618 18.6146C13.4165 19.4706 14.3207 20.3507 15.2249 26.9454C15.2731 27.2709 15.5022 27.5 15.8157 27.5Z" fill="white"/>
</svg>
