<svg width="28" height="28" viewBox="0 0 28 28" fill="none" xmlns="http://www.w3.org/2000/svg">
<path d="M4.45703 18.6162H7.54004C7.63672 18.6162 7.72266 18.6484 7.79785 18.7129L12.6426 23.0527C13.1582 23.5146 13.5557 23.7295 14.0713 23.7295C14.7588 23.7295 15.2852 23.2246 15.2852 22.5264V6.04785C15.2852 5.34961 14.7588 4.78027 14.0498 4.78027C13.5342 4.78027 13.2012 5.0166 12.6426 5.52148L7.79785 9.81836C7.72266 9.88281 7.63672 9.91504 7.54004 9.91504H4.45703C2.99609 9.91504 2.27637 10.6562 2.27637 12.2139V16.3281C2.27637 17.8857 3.00684 18.6162 4.45703 18.6162ZM22.8906 21.624C23.2881 21.8926 23.7822 21.7959 24.0723 21.3877C25.4473 19.4971 26.2529 16.8975 26.2529 14.2441C26.2529 11.5908 25.458 8.96973 24.0723 7.10059C23.7822 6.69238 23.2881 6.5957 22.8906 6.86426C22.4932 7.13281 22.4287 7.6377 22.7402 8.07812C23.9111 9.73242 24.5879 11.9561 24.5879 14.2441C24.5879 16.5322 23.8896 18.7344 22.7402 20.4102C22.4395 20.8506 22.4932 21.3555 22.8906 21.624ZM4.53223 17.0479C4.13477 17.0479 3.95215 16.8652 3.95215 16.4678V12.0742C3.95215 11.666 4.13477 11.4834 4.53223 11.4834H7.96973C8.24902 11.4834 8.46387 11.4297 8.71094 11.2041L13.2871 7.04688C13.3408 6.99316 13.3945 6.96094 13.4697 6.96094C13.5449 6.96094 13.6094 7.01465 13.6094 7.11133V21.3877C13.6094 21.4844 13.5449 21.5488 13.4697 21.5488C13.416 21.5488 13.3516 21.5166 13.2871 21.4629L8.71094 17.3271C8.46387 17.1123 8.24902 17.0479 7.96973 17.0479H4.53223ZM18.916 18.8203C19.2705 19.0674 19.7754 18.9922 20.0654 18.5732C20.8926 17.4883 21.3867 15.8877 21.3867 14.2441C21.3867 12.6006 20.8926 11.0107 20.0654 9.91504C19.7754 9.49609 19.2705 9.41016 18.916 9.66797C18.4756 9.96875 18.4111 10.5059 18.7441 10.9463C19.3672 11.8057 19.7217 12.998 19.7217 14.2441C19.7217 15.4902 19.3564 16.6719 18.7441 17.542C18.4219 17.9932 18.4756 18.5088 18.916 18.8203Z" fill="black"/>
</svg>
