<svg width="28" height="28" viewBox="0 0 28 28" fill="none" xmlns="http://www.w3.org/2000/svg">
<path d="M15.2852 17.0371V6.04785C15.2852 5.34961 14.7695 4.78027 14.0498 4.78027C13.5342 4.78027 13.2119 5.0166 12.6426 5.52148L7.94824 9.68945L9.09766 10.8496L13.2871 7.04688C13.3408 6.99316 13.4053 6.96094 13.4697 6.96094C13.5449 6.96094 13.6094 7.01465 13.6094 7.11133V15.3613L15.2852 17.0371ZM18.7764 24.8574C19.0986 25.1797 19.6357 25.1797 19.9473 24.8574C20.2695 24.5244 20.2695 24.0088 19.9473 23.6865L1.55664 5.2959C1.23438 4.97363 0.697266 4.97363 0.375 5.2959C0.0527344 5.60742 0.0527344 6.15527 0.375 6.4668L18.7764 24.8574ZM4.46777 18.6162H7.54004C7.63672 18.6162 7.72266 18.6484 7.79785 18.7129L12.6426 23.0527C13.1689 23.5146 13.5557 23.7295 14.0713 23.7295C14.4902 23.7295 14.834 23.5361 15.0811 23.1709L13.835 21.9355L8.64648 17.2842C8.43164 17.0908 8.30273 17.0479 8.02344 17.0479H4.54297C4.13477 17.0479 3.95215 16.8652 3.95215 16.4678V12.042L2.66309 10.7529C2.41602 11.0967 2.27637 11.5801 2.27637 12.2139V16.3281C2.27637 17.8857 3.00684 18.6162 4.46777 18.6162Z" fill="black"/>
</svg>
