<svg width="28" height="28" viewBox="0 0 28 28" fill="none" xmlns="http://www.w3.org/2000/svg">
<path d="M7.08175 24.5H20.9183C23.3137 24.5 24.5 23.3137 24.5 20.9639V7.03612C24.5 4.68631 23.3137 3.5 20.9183 3.5H7.08175C4.69772 3.5 3.5 4.6749 3.5 7.03612V20.9639C3.5 23.3251 4.69772 24.5 7.08175 24.5ZM7.10456 22.6635C5.96388 22.6635 5.3365 22.0589 5.3365 20.8726V7.12738C5.3365 5.94106 5.96388 5.3365 7.10456 5.3365H20.8954C22.0247 5.3365 22.6635 5.94106 22.6635 7.12738V20.8726C22.6635 22.0589 22.0247 22.6635 20.8954 22.6635H7.10456Z" fill="black"/>
</svg>
