<svg width="28" height="28" viewBox="0 0 28 28" fill="none" xmlns="http://www.w3.org/2000/svg">
<path d="M13.9893 17.166C14.4512 17.166 14.8486 16.7793 14.8486 16.3281V5.2959L14.7842 3.68457L15.5039 4.44727L17.1367 6.1875C17.2871 6.35938 17.502 6.44531 17.7168 6.44531C18.1572 6.44531 18.501 6.12305 18.501 5.68262C18.501 5.45703 18.4043 5.28516 18.2432 5.12402L14.6123 1.62207C14.3975 1.40723 14.2148 1.33203 13.9893 1.33203C13.7744 1.33203 13.5918 1.40723 13.3662 1.62207L9.73535 5.12402C9.57422 5.28516 9.48828 5.45703 9.48828 5.68262C9.48828 6.12305 9.81055 6.44531 10.2617 6.44531C10.4658 6.44531 10.7021 6.35938 10.8525 6.1875L12.4746 4.44727L13.2051 3.68457L13.1406 5.2959V16.3281C13.1406 16.7793 13.5273 17.166 13.9893 17.166ZM7.83398 25.5771H20.1553C22.4004 25.5771 23.5283 24.46 23.5283 22.2471V11.5264C23.5283 9.31348 22.4004 8.19629 20.1553 8.19629H17.1582V9.92578H20.123C21.1865 9.92578 21.7988 10.5059 21.7988 11.623V22.1504C21.7988 23.2676 21.1865 23.8477 20.123 23.8477H7.85547C6.78125 23.8477 6.19043 23.2676 6.19043 22.1504V11.623C6.19043 10.5059 6.78125 9.92578 7.85547 9.92578H10.8311V8.19629H7.83398C5.58887 8.19629 4.46094 9.31348 4.46094 11.5264V22.2471C4.46094 24.46 5.58887 25.5771 7.83398 25.5771Z" fill="black"/>
</svg>
