<svg width="28" height="28" viewBox="0 0 28 28" fill="none" xmlns="http://www.w3.org/2000/svg">
<path d="M6.88672 25.3438H21.1016C23.5625 25.3438 24.7812 24.125 24.7812 21.7109V7.40234C24.7812 4.98828 23.5625 3.76953 21.1016 3.76953H6.88672C4.4375 3.76953 3.20703 4.97656 3.20703 7.40234V21.7109C3.20703 24.1367 4.4375 25.3438 6.88672 25.3438ZM6.91016 23.457C5.73828 23.457 5.09375 22.8359 5.09375 21.6172V7.49609C5.09375 6.27734 5.73828 5.65625 6.91016 5.65625H21.0781C22.2383 5.65625 22.8945 6.27734 22.8945 7.49609V21.6172C22.8945 22.8359 22.2383 23.457 21.0781 23.457H6.91016ZM7.47266 8.82031V11.6797C7.47266 12.4062 7.90625 12.8398 8.63281 12.8398H11.4922C12.2188 12.8398 12.6523 12.4062 12.6523 11.6797V8.82031C12.6523 8.09375 12.2188 7.66016 11.4922 7.66016H8.63281C7.90625 7.66016 7.47266 8.09375 7.47266 8.82031ZM8.17578 16.8828H19.7188C20.1289 16.8828 20.4336 16.5664 20.4336 16.1562C20.4336 15.7578 20.1289 15.4414 19.7188 15.4414H8.17578C7.74219 15.4414 7.4375 15.7578 7.4375 16.1562C7.4375 16.5664 7.74219 16.8828 8.17578 16.8828ZM8.17578 20.8906H16.625C17.0469 20.8906 17.3516 20.5742 17.3516 20.1758C17.3516 19.7656 17.0469 19.4492 16.625 19.4492H8.17578C7.74219 19.4492 7.4375 19.7656 7.4375 20.1758C7.4375 20.5742 7.74219 20.8906 8.17578 20.8906Z" fill="black"/>
</svg>
