<svg width="40" height="40" viewBox="0 0 40 40" fill="none" xmlns="http://www.w3.org/2000/svg">
<path d="M20.2374 36.6155L35.1997 21.6225C36.3507 20.4715 36.4274 19.8116 36.4274 18.2003V12.3688C36.4274 10.7422 36.0438 10.2357 34.8775 9.06945L31.3479 5.53987C30.1969 4.38892 29.6905 3.98993 28.0638 3.98993H22.217C20.6057 3.98993 19.9612 4.06666 18.8102 5.21761L3.80185 20.1953C1.60737 22.3898 1.56133 24.661 3.81719 26.9015L13.5312 36.6001C15.7871 38.8407 18.0429 38.81 20.2374 36.6155ZM18.58 34.7586C17.4751 35.8635 16.3088 35.8789 15.1886 34.7433L5.65871 25.2288C4.53845 24.1085 4.5538 22.9269 5.64336 21.8373L20.5443 6.96705C20.8512 6.66013 21.1735 6.46063 21.6953 6.46063H28.1559C28.6316 6.46063 28.9539 6.64478 29.2762 6.96705L33.4656 11.1412C33.7879 11.4634 33.9567 11.7857 33.9567 12.2614V18.7374C33.9567 19.2438 33.7725 19.5661 33.4656 19.873L18.58 34.7586ZM26.2684 16.2667C27.4653 16.2667 28.3708 15.3306 28.3708 14.1643C28.3708 12.9827 27.4653 12.0619 26.2684 12.0619C25.056 12.0619 24.166 12.9827 24.166 14.1643C24.166 15.3306 25.056 16.2667 26.2684 16.2667Z" fill="white"/>
</svg>
