<svg width="28" height="28" viewBox="0 0 28 28" fill="none" xmlns="http://www.w3.org/2000/svg">
<path d="M2.98242 21.2734C3.63672 21.2734 3.96875 21 4.18359 20.3164L5.27734 17.2695H10.8535L11.9375 20.3164C12.1523 21 12.4941 21.2734 13.1387 21.2734C13.8223 21.2734 14.2617 20.8633 14.2617 20.2188C14.2617 19.9844 14.2227 19.7891 14.1348 19.5254L9.80859 7.8457C9.50586 7.02539 8.95898 6.625 8.07031 6.625C7.2207 6.625 6.66406 7.02539 6.38086 7.83594L2.02539 19.5742C1.9375 19.8281 1.89844 20.0332 1.89844 20.2383C1.89844 20.8828 2.30859 21.2734 2.98242 21.2734ZM5.83398 15.4629L8.04102 9.11523H8.09961L10.3066 15.4629H5.83398ZM19.6133 21.332C21.0879 21.332 22.4844 20.541 23.0898 19.291H23.1289V20.3945C23.1387 20.9805 23.5391 21.3418 24.1055 21.3418C24.6914 21.3418 25.0918 20.9707 25.0918 20.3164V13.8711C25.0918 11.7129 23.4512 10.3164 20.8633 10.3164C18.8809 10.3164 17.2988 11.127 16.7422 12.416C16.6348 12.6504 16.5762 12.875 16.5762 13.0898C16.5762 13.5879 16.9375 13.9199 17.4551 13.9199C17.8164 13.9199 18.0898 13.7832 18.2852 13.4805C18.8613 12.416 19.623 11.9375 20.7949 11.9375C22.2109 11.9375 23.0703 12.7285 23.0703 14.0176V14.8184L20.0234 14.9941C17.4551 15.1309 16.0391 16.2832 16.0391 18.1582C16.0391 20.0527 17.5137 21.332 19.6133 21.332ZM20.1602 19.7695C18.9297 19.7695 18.0898 19.0957 18.0898 18.0801C18.0898 17.1035 18.8711 16.459 20.2969 16.3711L23.0703 16.1855V17.1719C23.0703 18.6367 21.7812 19.7695 20.1602 19.7695Z" fill="black"/>
</svg>
