<svg width="28" height="28" viewBox="0 0 28 28" fill="none" xmlns="http://www.w3.org/2000/svg">
<path d="M3.06641 6.18359H24.8984C25.3906 6.18359 25.8008 5.79688 25.8008 5.29297C25.8008 4.80078 25.3906 4.41406 24.8984 4.41406H3.06641C2.57422 4.41406 2.1875 4.80078 2.1875 5.29297C2.1875 5.79688 2.57422 6.18359 3.06641 6.18359ZM3.06641 12.3242H16.25C16.7422 12.3242 17.1406 11.9375 17.1406 11.4336C17.1406 10.9414 16.7422 10.5547 16.25 10.5547H3.06641C2.57422 10.5547 2.1875 10.9414 2.1875 11.4336C2.1875 11.9375 2.57422 12.3242 3.06641 12.3242ZM3.06641 18.4648H24.8984C25.3906 18.4648 25.8008 18.0664 25.8008 17.5742C25.8008 17.082 25.3906 16.6953 24.8984 16.6953H3.06641C2.57422 16.6953 2.1875 17.082 2.1875 17.5742C2.1875 18.0664 2.57422 18.4648 3.06641 18.4648ZM3.06641 24.5938H16.25C16.7422 24.5938 17.1406 24.207 17.1406 23.7148C17.1406 23.2227 16.7422 22.8242 16.25 22.8242H3.06641C2.57422 22.8242 2.1875 23.2227 2.1875 23.7148C2.1875 24.207 2.57422 24.5938 3.06641 24.5938Z" fill="black"/>
</svg>
