<svg width="28" height="28" viewBox="0 0 28 28" fill="none" xmlns="http://www.w3.org/2000/svg">
<path d="M3.06641 6.18359H24.8984C25.3906 6.18359 25.8008 5.79688 25.8008 5.29297C25.8008 4.80078 25.3906 4.41406 24.8984 4.41406H3.06641C2.57422 4.41406 2.1875 4.80078 2.1875 5.29297C2.1875 5.79688 2.57422 6.18359 3.06641 6.18359ZM11.7266 12.3242H24.8984C25.3906 12.3242 25.8008 11.9375 25.8008 11.4336C25.8008 10.9414 25.3906 10.5547 24.8984 10.5547H11.7266C11.2227 10.5547 10.8359 10.9414 10.8359 11.4336C10.8359 11.9375 11.2227 12.3242 11.7266 12.3242ZM3.06641 18.4648H24.8984C25.3906 18.4648 25.8008 18.0664 25.8008 17.5742C25.8008 17.082 25.3906 16.6953 24.8984 16.6953H3.06641C2.57422 16.6953 2.1875 17.082 2.1875 17.5742C2.1875 18.0664 2.57422 18.4648 3.06641 18.4648ZM11.7266 24.5938H24.8984C25.3906 24.5938 25.8008 24.207 25.8008 23.7148C25.8008 23.2227 25.3906 22.8242 24.8984 22.8242H11.7266C11.2227 22.8242 10.8359 23.2227 10.8359 23.7148C10.8359 24.207 11.2227 24.5938 11.7266 24.5938Z" fill="black"/>
</svg>
