<svg width="28" height="28" viewBox="0 0 28 28" fill="none" xmlns="http://www.w3.org/2000/svg">
<path d="M3.06641 6.18359H24.8984C25.3906 6.18359 25.8008 5.79688 25.8008 5.29297C25.8008 4.80078 25.3906 4.41406 24.8984 4.41406H3.06641C2.57422 4.41406 2.1875 4.80078 2.1875 5.29297C2.1875 5.79688 2.57422 6.18359 3.06641 6.18359ZM7.40234 12.3242H20.5742C21.0664 12.3242 21.4648 11.9375 21.4648 11.4336C21.4648 10.9414 21.0664 10.5547 20.5742 10.5547H7.40234C6.89844 10.5547 6.51172 10.9414 6.51172 11.4336C6.51172 11.9375 6.89844 12.3242 7.40234 12.3242ZM3.06641 18.4648H24.8984C25.3906 18.4648 25.8008 18.0664 25.8008 17.5742C25.8008 17.082 25.3906 16.6953 24.8984 16.6953H3.06641C2.57422 16.6953 2.1875 17.082 2.1875 17.5742C2.1875 18.0664 2.57422 18.4648 3.06641 18.4648ZM7.40234 24.5938H20.5742C21.0664 24.5938 21.4648 24.207 21.4648 23.7148C21.4648 23.2227 21.0664 22.8242 20.5742 22.8242H7.40234C6.89844 22.8242 6.51172 23.2227 6.51172 23.7148C6.51172 24.207 6.89844 24.5938 7.40234 24.5938Z" fill="black"/>
</svg>
