<svg width="28" height="28" viewBox="0 0 28 28" fill="none" xmlns="http://www.w3.org/2000/svg">
<path d="M8.29297 27.418C8.58203 27.418 8.84766 27.3398 9.08984 27.1836C9.33203 27.0273 9.62891 26.793 9.98047 26.4805L14.0234 22.8828H21.5469C22.7109 22.8828 23.6914 22.6758 24.4883 22.2617C25.2852 21.8398 25.8867 21.2305 26.293 20.4336C26.707 19.6367 26.9141 18.6641 26.9141 17.5156V8.53906C26.9141 7.39062 26.707 6.41797 26.293 5.62109C25.8867 4.82422 25.2852 4.21875 24.4883 3.80469C23.6914 3.38281 22.7109 3.17188 21.5469 3.17188H6.45312C5.28906 3.17188 4.30859 3.38281 3.51172 3.80469C2.71484 4.21875 2.10938 4.82422 1.69531 5.62109C1.28906 6.41797 1.08594 7.39062 1.08594 8.53906V17.5156C1.08594 18.6641 1.28906 19.6367 1.69531 20.4336C2.10938 21.2305 2.71484 21.8398 3.51172 22.2617C4.30859 22.6758 5.28906 22.8828 6.45312 22.8828H7.01562V25.9297C7.01562 26.3828 7.125 26.7422 7.34375 27.0078C7.57031 27.2812 7.88672 27.418 8.29297 27.418ZM8.77344 25.2734V21.875C8.77344 21.5547 8.70703 21.3281 8.57422 21.1953C8.44141 21.0625 8.21484 20.9961 7.89453 20.9961H6.45312C5.26562 20.9961 4.38672 20.7031 3.81641 20.1172C3.25391 19.5234 2.97266 18.6523 2.97266 17.5039V8.53906C2.97266 7.39844 3.25391 6.53516 3.81641 5.94922C4.38672 5.35547 5.26562 5.05859 6.45312 5.05859H21.5469C22.7266 5.05859 23.6016 5.35547 24.1719 5.94922C24.7422 6.53516 25.0273 7.39844 25.0273 8.53906V17.5039C25.0273 18.6523 24.7422 19.5234 24.1719 20.1172C23.6016 20.7031 22.7266 20.9961 21.5469 20.9961H13.9531C13.625 20.9961 13.3594 21.0312 13.1562 21.1016C12.9531 21.1719 12.7422 21.3203 12.5234 21.5469L8.77344 25.2734ZM7.96484 9.79297H19.8828C20.0781 9.79297 20.2383 9.72656 20.3633 9.59375C20.4961 9.46094 20.5625 9.30078 20.5625 9.11328C20.5625 8.92578 20.4961 8.76953 20.3633 8.64453C20.2383 8.51172 20.0781 8.44531 19.8828 8.44531H7.96484C7.76953 8.44531 7.60547 8.51172 7.47266 8.64453C7.34766 8.76953 7.28516 8.92578 7.28516 9.11328C7.28516 9.30078 7.34766 9.46094 7.47266 9.59375C7.60547 9.72656 7.76953 9.79297 7.96484 9.79297ZM7.96484 13.6016H19.8828C20.0781 13.6016 20.2383 13.5391 20.3633 13.4141C20.4961 13.2812 20.5625 13.1172 20.5625 12.9219C20.5625 12.7422 20.4961 12.5859 20.3633 12.4531C20.2383 12.3125 20.0781 12.2422 19.8828 12.2422H7.96484C7.76953 12.2422 7.60547 12.3125 7.47266 12.4531C7.34766 12.5859 7.28516 12.7422 7.28516 12.9219C7.28516 13.1172 7.34766 13.2812 7.47266 13.4141C7.60547 13.5391 7.76953 13.6016 7.96484 13.6016ZM7.96484 17.4219H15.7109C15.8984 17.4219 16.0586 17.3594 16.1914 17.2344C16.3242 17.1016 16.3906 16.9414 16.3906 16.7539C16.3906 16.5586 16.3242 16.3945 16.1914 16.2617C16.0586 16.1289 15.8984 16.0625 15.7109 16.0625H7.96484C7.76953 16.0625 7.60547 16.1289 7.47266 16.2617C7.34766 16.3945 7.28516 16.5586 7.28516 16.7539C7.28516 16.9414 7.34766 17.1016 7.47266 17.2344C7.60547 17.3594 7.76953 17.4219 7.96484 17.4219Z" fill="black"/>
</svg>
