<svg width="28" height="28" viewBox="0 0 28 28" fill="none" xmlns="http://www.w3.org/2000/svg">
<path fill-rule="evenodd" clip-rule="evenodd" d="M0.619048 6H19.3347V21.9419H0.619048C0.294819 21.9419 0 21.6789 0 21.3286V17.4163C0 17.0951 0.26543 16.803 0.619048 16.803C2.21072 16.803 3.47798 15.5475 3.47798 13.9709C3.47798 12.3942 2.18114 11.1388 0.619048 11.1388C0.294819 11.1388 0 10.8759 0 10.5256V6.61324C0 6.29205 0.26543 6 0.619048 6ZM13.5874 18.3504C14 18.6131 14.5011 18.2628 14.3833 17.7956L13.7644 15.3137C13.7644 15.2552 13.7644 15.1968 13.8234 15.1677L15.8275 13.4742C16.2106 13.1531 16.0043 12.5689 15.5327 12.5398L12.9096 12.3647C12.8506 12.3647 12.7916 12.3355 12.7622 12.2771L11.7601 9.85374C11.5833 9.41587 10.9643 9.41587 10.7875 9.85374L9.78545 12.2771C9.75585 12.3355 9.69705 12.3647 9.63804 12.3647L7.0149 12.5398C6.54327 12.5983 6.36647 13.1822 6.72008 13.4742L8.72418 15.1386C8.78318 15.1679 8.78318 15.2261 8.78318 15.2846L8.16413 17.8247C8.04634 18.2628 8.54735 18.6131 8.95997 18.3795L11.1707 17.0072C11.2297 16.9781 11.2885 16.9781 11.3475 17.0072L13.5874 18.3504ZM27.9999 10.5548C27.9999 10.876 27.7344 11.168 27.3808 11.168L27.3806 11.168C25.7892 11.168 24.5219 12.4235 24.5217 13.9999C24.5217 15.5766 25.8185 16.832 27.3806 16.832C27.7048 16.832 27.9997 17.0949 27.9997 17.4452L27.9999 21.3869C27.9999 21.7081 27.7344 22.0002 27.3808 22.0002H20.8672V6.02941L27.3808 6.02921C27.7051 6.02921 27.9999 6.29214 27.9999 6.64245V10.5548Z" fill="black"/>
</svg>
