<svg width="28" height="28" viewBox="0 0 28 28" fill="none" xmlns="http://www.w3.org/2000/svg">
<path d="M9.04297 25.3086C7.85938 25.3086 7.13281 24.6406 7.13281 23.3867V23.1523C7.13281 20.3281 10.1328 17.3281 11.7617 15.6992C12.5703 14.9023 12.5117 14.082 11.7617 13.3438C10.1328 11.7266 7.13281 8.73828 7.13281 5.89062V5.69141C7.13281 4.4375 7.85938 3.75781 9.04297 3.75781H18.957C20.1406 3.75781 20.8672 4.4375 20.8672 5.69141V5.89062C20.8672 8.73828 17.8789 11.7266 16.2383 13.3438C15.5 14.082 15.4414 14.9023 16.2383 15.6992C17.8789 17.3281 20.8672 20.3281 20.8672 23.1523V23.3867C20.8672 24.6406 20.1406 25.3086 18.957 25.3086H9.04297ZM9.94531 23.7148H18.0547C18.5586 23.7148 18.6758 23.1289 18.3359 22.8125L14.5977 19.25C14.457 19.1211 14.4102 19.0625 14.4102 18.875V13.6836C14.4102 13.1445 14.5039 12.875 14.9023 12.5352C15.6992 11.8672 16.8008 10.9062 17.5156 10.1445C17.8203 9.83984 17.6562 9.46484 17.293 9.46484H10.707C10.3438 9.46484 10.1797 9.83984 10.4844 10.1445C11.2109 10.9062 12.3125 11.8672 13.0977 12.5352C13.4961 12.875 13.6016 13.1445 13.6016 13.6836V18.875C13.6016 19.0625 13.543 19.1211 13.4023 19.25L9.66406 22.8125C9.32422 23.1289 9.44141 23.7148 9.94531 23.7148Z" fill="black"/>
</svg>
