<svg width="25" height="24" viewBox="0 0 25 24" fill="none" xmlns="http://www.w3.org/2000/svg">
<path d="M12.4598 22.2053C6.86496 22.2053 2.21429 17.5546 2.21429 11.9598C2.21429 9.45865 3.15849 7.13834 4.68528 5.35039C5.05693 4.90843 5.60938 4.8783 5.94086 5.22986C6.27233 5.58142 6.25224 6.05352 5.9509 6.44526C4.68528 7.92182 3.93193 9.84035 3.92188 11.9598C3.91184 16.7008 7.71876 20.4977 12.4598 20.4977C17.2009 20.4977 20.9877 16.7008 20.9877 11.9598C20.9877 7.44972 17.5726 3.80352 13.1529 3.45196V6.44526C13.1529 6.88722 12.8516 7.22874 12.4096 7.22874C11.9777 7.22874 11.6763 6.88722 11.6763 6.44526V2.55798C11.6763 2.03566 11.9375 1.71423 12.4699 1.71423C18.0748 1.71423 22.7054 6.35486 22.7054 11.9598C22.7054 17.5546 18.0647 22.2053 12.4598 22.2053ZM14.067 13.4062C13.2534 14.1897 12.1384 14.0189 11.4654 13.0647L7.75894 7.75106C7.40737 7.25888 7.9297 6.72651 8.43193 7.07807L13.7455 10.7946C14.6998 11.4575 14.8605 12.5725 14.067 13.4062Z" fill="#FF453A"/>
</svg>
