<svg width="28" height="28" viewBox="0 0 28 28" fill="none" xmlns="http://www.w3.org/2000/svg">
<path d="M20.8559 11.7154C21.0083 11.7246 21.1609 11.7013 21.3036 11.6471C21.4464 11.593 21.576 11.5092 21.6839 11.4012C21.7919 11.2933 21.8757 11.1636 21.9298 11.0209C21.984 10.8781 22.0072 10.7255 21.998 10.5731V7.14421C22.0072 6.99182 21.984 6.83921 21.9298 6.69646C21.8757 6.55372 21.7919 6.42409 21.6839 6.31613C21.576 6.20817 21.4464 6.12435 21.3036 6.07019C21.1609 6.01603 21.0083 5.99277 20.8559 6.00195H7.14407C6.99169 5.99277 6.8391 6.01603 6.69638 6.07019C6.55365 6.12435 6.42403 6.20817 6.31609 6.31613C6.20815 6.42409 6.12433 6.55372 6.07018 6.69646C6.01603 6.83921 5.99278 6.99182 6.00195 7.14421V10.5731C5.99278 10.7255 6.01603 10.8781 6.07018 11.0209C6.12433 11.1636 6.20815 11.2933 6.31609 11.4012C6.42403 11.5092 6.55365 11.593 6.69638 11.6471C6.8391 11.7013 6.99169 11.7246 7.14407 11.7154C7.29654 11.7247 7.44925 11.7016 7.5921 11.6475C7.73496 11.5934 7.86471 11.5096 7.97277 11.4016C8.08083 11.2937 8.16474 11.164 8.21896 11.0211C8.27317 10.8783 8.29645 10.7256 8.28726 10.5731V8.28754H12.8579V19.7144H10.5726C10.2695 19.7144 9.97888 19.8348 9.76459 20.0491C9.5503 20.2634 9.42992 20.5541 9.42992 20.8572C9.42992 21.1603 9.5503 21.451 9.76459 21.6653C9.97888 21.8796 10.2695 22 10.5726 22H17.4285C17.7315 22 18.0222 21.8796 18.2365 21.6653C18.4508 21.451 18.5712 21.1603 18.5712 20.8572C18.5712 20.5541 18.4508 20.2634 18.2365 20.0491C18.0222 19.8348 17.7315 19.7144 17.4285 19.7144H15.1421V8.28754H19.7127V10.5731C19.7035 10.7256 19.7268 10.8783 19.781 11.0211C19.8353 11.164 19.9192 11.2937 20.0272 11.4016C20.1353 11.5096 20.265 11.5934 20.4079 11.6475C20.5508 11.7016 20.7035 11.7247 20.8559 11.7154Z" fill="black"/>
</svg>
