<svg width="28" height="28" viewBox="0 0 28 28" fill="none" xmlns="http://www.w3.org/2000/svg">
<path d="M8.85645 26.4028H19.1548C20.7607 26.4028 21.8389 25.3584 21.9175 23.7524L22.6924 7.42334H24.04C24.5005 7.42334 24.8711 7.03027 24.8711 6.56982C24.8711 6.10938 24.5005 5.72754 24.04 5.72754H18.9077V4.00928C18.9077 2.38086 17.8521 1.39258 16.1226 1.39258H11.855C10.1255 1.39258 9.06982 2.38086 9.06982 4.00928V5.72754H3.97119C3.52197 5.72754 3.12891 6.10938 3.12891 6.56982C3.12891 7.0415 3.52197 7.42334 3.97119 7.42334H5.31885L6.09375 23.7637C6.17236 25.3696 7.22803 26.4028 8.85645 26.4028ZM10.8555 4.12158C10.8555 3.48145 11.3047 3.06592 11.9785 3.06592H15.999C16.6729 3.06592 17.1221 3.48145 17.1221 4.12158V5.72754H10.8555V4.12158ZM9.01367 24.707C8.37354 24.707 7.89062 24.2241 7.85693 23.5615L7.0708 7.42334H20.8843L20.1431 23.5615C20.1206 24.2354 19.6377 24.707 18.9751 24.707H9.01367ZM10.6758 22.7866C11.1025 22.7866 11.3833 22.5171 11.3721 22.124L11.0239 10.1074C11.0127 9.71436 10.7319 9.45605 10.3276 9.45605C9.90088 9.45605 9.62012 9.72559 9.63135 10.1187L9.96826 22.124C9.97949 22.5283 10.2603 22.7866 10.6758 22.7866ZM14 22.7866C14.4268 22.7866 14.73 22.5171 14.73 22.124V10.1187C14.73 9.72559 14.4268 9.45605 14 9.45605C13.5732 9.45605 13.2812 9.72559 13.2812 10.1187V22.124C13.2812 22.5171 13.5732 22.7866 14 22.7866ZM17.3354 22.7866C17.7397 22.7866 18.0205 22.5283 18.0317 22.124L18.3687 10.1187C18.3799 9.72559 18.0991 9.45605 17.6724 9.45605C17.2681 9.45605 16.9873 9.71436 16.9761 10.1187L16.6392 22.124C16.6279 22.5171 16.9087 22.7866 17.3354 22.7866Z" fill="black"/>
</svg>
