<svg width="28" height="28" viewBox="0 0 28 28" fill="none" xmlns="http://www.w3.org/2000/svg">
<path d="M5.76074 22.4942C6.13672 22.8594 6.75976 22.8594 7.125 22.4942L14 15.6192L20.875 22.4942C21.2402 22.8594 21.874 22.8701 22.2393 22.4942C22.6045 22.1182 22.6045 21.5059 22.2393 21.1406L15.3643 14.2549L22.2393 7.3799C22.6045 7.01466 22.6152 6.39162 22.2393 6.02638C21.8633 5.6504 21.2402 5.6504 20.875 6.02638L14 12.9014L7.125 6.02638C6.75976 5.6504 6.12598 5.63966 5.76074 6.02638C5.39551 6.40236 5.39551 7.01466 5.76074 7.3799L12.6357 14.2549L5.76074 21.1406C5.39551 21.5059 5.38476 22.1289 5.76074 22.4942Z" fill="black"/>
</svg>
