<svg width="28" height="28" viewBox="0 0 28 28" fill="none" xmlns="http://www.w3.org/2000/svg">
<path d="M14 26C20.5647 26 26 20.5529 26 14C26 7.43529 20.5529 2 13.9882 2C7.43529 2 2 7.43529 2 14C2 20.5529 7.44706 26 14 26ZM10.0471 18.9412C9.50588 18.9412 9.08235 18.5059 9.08235 17.9647C9.08235 17.7059 9.17647 17.4588 9.36471 17.2824L12.6235 14.0118L9.36471 10.7529C9.17647 10.5647 9.08235 10.3294 9.08235 10.0706C9.08235 9.51765 9.50588 9.10588 10.0471 9.10588C10.3176 9.10588 10.5294 9.2 10.7176 9.37647L14 12.6471L17.3059 9.36471C17.5059 9.16471 17.7176 9.08235 17.9765 9.08235C18.5176 9.08235 18.9529 9.50588 18.9529 10.0471C18.9529 10.3176 18.8706 10.5294 18.6588 10.7412L15.3882 14.0118L18.6471 17.2706C18.8471 17.4471 18.9412 17.6941 18.9412 17.9647C18.9412 18.5059 18.5059 18.9412 17.9529 18.9412C17.6824 18.9412 17.4353 18.8471 17.2588 18.6588L14 15.3882L10.7529 18.6588C10.5647 18.8471 10.3176 18.9412 10.0471 18.9412Z" fill="black"/>
</svg>
