<svg width="28" height="28" viewBox="0 0 28 28" fill="none" xmlns="http://www.w3.org/2000/svg">
<path fill-rule="evenodd" clip-rule="evenodd" d="M7.00391 26.2812C7.00391 27.0078 7.37891 27.4883 8.04688 27.4883C8.50391 27.4883 8.84375 27.2539 9.39453 26.7383L13.625 22.8711H21.5469C25.0391 22.8711 26.9141 20.9492 26.9141 17.5156V8.53906C26.9141 5.10547 25.0391 3.17188 21.5469 3.17188H6.45312C2.96094 3.17188 1.08594 5.09375 1.08594 8.53906V17.5156C1.08594 20.9609 2.96094 22.8711 6.45312 22.8711H7.00391V26.2812ZM10.5859 16.1562V17.0391H13.2109V18.7656H14.9375V17.0391H17.5625V16.1562H14.9375V14.8438H17.5625V13.9609H15.1875L18.7578 7.96094H16.8594L14.1094 12.7578H14.0547L11.3047 7.96094H9.39062L12.9609 13.9609H10.5859V14.8438H13.2109V16.1562H10.5859Z" fill="black"/>
</svg>
