<svg width="24" height="23" viewBox="0 0 24 23" fill="none" xmlns="http://www.w3.org/2000/svg">
<path d="M22.0781 9.83984C21.4688 9.83984 21.0117 9.37109 21.0117 8.75V7.76562L21.2578 3.67578L18.1641 6.92188L14.5664 10.5547C14.3672 10.7656 14.0977 10.8594 13.8164 10.8594C13.1602 10.8594 12.6562 10.4258 12.6562 9.76953C12.6562 9.45312 12.7734 9.17188 12.9844 8.96094L16.5938 5.35156L19.8516 2.26953L15.75 2.50391H14.7656C14.1445 2.50391 13.6641 2.07031 13.6641 1.4375C13.6641 0.804688 14.1445 0.359375 14.7656 0.359375H21.2695C22.4648 0.359375 23.168 1.05078 23.168 2.24609V8.75C23.168 9.35938 22.7109 9.83984 22.0781 9.83984ZM9.22266 22.7188H2.71875C1.52344 22.7188 0.832031 22.0273 0.832031 20.832V14.3281C0.832031 13.7188 1.28906 13.2383 1.91016 13.2383C2.53125 13.2383 2.97656 13.707 2.97656 14.3281V15.3125L2.74219 19.4023L5.82422 16.1562L9.43359 12.5234C9.63281 12.3125 9.89062 12.2188 10.1719 12.2188C10.8398 12.2188 11.332 12.6523 11.332 13.3086C11.332 13.625 11.2266 13.9062 11.0156 14.1172L7.39453 17.7266L4.14844 20.8086L8.25 20.5742H9.22266C9.84375 20.5742 10.3242 21.0078 10.3242 21.6406C10.3242 22.2734 9.85547 22.7188 9.22266 22.7188Z" fill="black"/>
</svg>
